ply
format ascii 1.0
element vertex 162
property float x
property float y
property float z
element face 320
property list uchar int vertex_indices
end_header
6.95092e-07 -1.5 0
0.723607 -0.670828 0.525727
-0.276392 -0.670829 0.850648
-0.894426 -0.670825 0
-0.276392 -0.670829 -0.850648
0.723607 -0.670828 -0.525727
0.276392 0.670829 0.850648
-0.723607 0.670828 0.525727
-0.723607 0.670828 -0.525727
0.276392 0.670829 -0.850648
0.894426 0.670825 0
-6.95092e-07 1.5 0
-0.162457 -1.27598 0.499994
0.425323 -1.27598 0.309012
0.262867 -0.788606 0.809012
0.850648 -0.788602 0
0.425323 -1.27598 -0.309012
-0.525728 -1.27598 0
-0.68819 -0.788604 0.499996
-0.162457 -1.27598 -0.499994
-0.68819 -0.788604 -0.499996
0.262867 -0.788606 -0.809012
0.951057 0 0.309014
0.951057 0 -0.309014
0 0 1
0.587787 0 0.809016
-0.951057 0 0.309014
-0.587787 0 0.809016
-0.587787 0 -0.809016
-0.951057 0 -0.309014
0.587787 0 -0.809016
0 0 -1
0.68819 0.788604 0.499996
-0.262867 0.788606 0.809012
-0.850648 0.788602 0
-0.262867 0.788606 -0.809012
0.68819 0.788604 -0.499996
0.162457 1.27598 0.499994
0.525728 1.27598 0
-0.425323 1.27598 0.309012
-0.425323 1.27598 -0.309012
0.162457 1.27598 -0.499994
-0.0784582 -1.45085 0.241471
0.205409 -1.45085 0.149237
0.141142 -1.3344 0.434384
0.352227 -1.09252 0.587745
0.60803 -0.989489 0.441756
0.529573 -0.754111 0.683231
0.0605161 -1.09252 0.682529
-0.0268349 -0.754112 0.86402
-0.232245 -0.989491 0.71478
0.813441 -0.754109 0.292518
0.667826 -1.09252 0.15336
0.456741 -1.3344 0
0.205409 -1.45085 -0.149237
0.667826 -1.09252 -0.15336
0.60803 -0.989489 -0.441756
0.813441 -0.754109 -0.292518
-0.253899 -1.45085 0
-0.369511 -1.3344 0.268464
-0.450138 -1.09252 0.516608
-0.486148 -0.754111 0.714781
-0.630426 -1.09252 0.268465
-0.830027 -0.754108 0.241472
-0.751566 -0.989487 0
-0.0784582 -1.45085 -0.241471
-0.369511 -1.3344 -0.268464
-0.630426 -1.09252 -0.268465
-0.830027 -0.754108 -0.241472
-0.450138 -1.09252 -0.516608
-0.486148 -0.754111 -0.714781
-0.232245 -0.989491 -0.71478
0.141142 -1.3344 -0.434384
0.0605161 -1.09252 -0.682529
-0.0268349 -0.754112 -0.86402
0.352227 -1.09252 -0.587745
0.529573 -0.754111 -0.683231
0.861934 -0.373255 0.441758
0.950112 -0.407403 0.153361
0.950112 -0.407403 -0.153361
0.861934 -0.373255 -0.441758
0.999943 -0.016026 0
0.956979 0.373254 -0.149238
0.956979 0.373254 0.149238
-0.153787 -0.373256 0.956258
0.147746 -0.407405 0.951001
0.439459 -0.407405 0.856217
0.686494 -0.373256 0.683232
0.309 -0.0160262 0.951002
0.437658 0.373256 0.864023
0.153787 0.373256 0.956258
-0.956979 -0.373254 0.149238
-0.858802 -0.407403 0.434386
-0.678514 -0.407405 0.682532
-0.437658 -0.373256 0.864023
-0.808973 -0.0160261 0.587749
-0.686494 0.373256 0.683232
-0.861934 0.373255 0.441758
-0.437658 -0.373256 -0.864023
-0.678514 -0.407405 -0.682532
-0.858802 -0.407403 -0.434386
-0.956979 -0.373254 -0.149238
-0.808973 -0.0160261 -0.587749
-0.861934 0.373255 -0.441758
-0.686494 0.373256 -0.683232
0.686494 -0.373256 -0.683232
0.439459 -0.407405 -0.856217
0.147746 -0.407405 -0.951001
-0.153787 -0.373256 -0.956258
0.309 -0.0160262 -0.951002
0.153787 0.373256 -0.956258
0.437658 0.373256 -0.864023
0.808973 0.0160261 0.587749
0.858802 0.407403 0.434386
0.830027 0.754108 0.241472
0.678514 0.407405 0.682532
0.486148 0.754111 0.714781
-0.309 0.0160262 0.951002
-0.147746 0.407405 0.951001
0.0268349 0.754112 0.86402
-0.439459 0.407405 0.856217
-0.529573 0.754111 0.683231
-0.999943 0.016026 0
-0.950112 0.407403 0.153361
-0.813441 0.754109 0.292518
-0.950112 0.407403 -0.153361
-0.813441 0.754109 -0.292518
-0.309 0.0160262 -0.951002
-0.439459 0.407405 -0.856217
-0.529573 0.754111 -0.683231
-0.147746 0.407405 -0.951001
0.0268349 0.754112 -0.86402
0.808973 0.0160261 -0.587749
0.678514 0.407405 -0.682532
0.486148 0.754111 -0.714781
0.858802 0.407403 -0.434386
0.830027 0.754108 -0.241472
0.232245 0.989491 0.71478
0.450138 1.09252 0.516608
0.630426 1.09252 0.268465
0.751566 0.989487 0
0.369511 1.3344 0.268464
0.253899 1.45085 0
0.0784582 1.45085 0.241471
-0.60803 0.989489 0.441756
-0.352227 1.09252 0.587745
-0.0605161 1.09252 0.682529
-0.141142 1.3344 0.434384
-0.205409 1.45085 0.149237
-0.60803 0.989489 -0.441756
-0.667826 1.09252 -0.15336
-0.667826 1.09252 0.15336
-0.456741 1.3344 0
-0.205409 1.45085 -0.149237
0.232245 0.989491 -0.71478
-0.0605161 1.09252 -0.682529
-0.352227 1.09252 -0.587745
-0.141142 1.3344 -0.434384
0.0784582 1.45085 -0.241471
0.630426 1.09252 -0.268465
0.450138 1.09252 -0.516608
0.369511 1.3344 -0.268464
3 0 43 42
3 43 13 44
3 44 12 42
3 43 44 42
3 13 46 45
3 46 1 47
3 47 14 45
3 46 47 45
3 14 49 48
3 49 2 50
3 50 12 48
3 49 50 48
3 13 45 44
3 45 14 48
3 48 12 44
3 45 48 44
3 1 46 51
3 46 13 52
3 52 15 51
3 46 52 51
3 13 43 53
3 43 0 54
3 54 16 53
3 43 54 53
3 16 56 55
3 56 5 57
3 57 15 55
3 56 57 55
3 13 53 52
3 53 16 55
3 55 15 52
3 53 55 52
3 0 42 58
3 42 12 59
3 59 17 58
3 42 59 58
3 12 50 60
3 50 2 61
3 61 18 60
3 50 61 60
3 18 63 62
3 63 3 64
3 64 17 62
3 63 64 62
3 12 60 59
3 60 18 62
3 62 17 59
3 60 62 59
3 0 58 65
3 58 17 66
3 66 19 65
3 58 66 65
3 17 64 67
3 64 3 68
3 68 20 67
3 64 68 67
3 20 70 69
3 70 4 71
3 71 19 69
3 70 71 69
3 17 67 66
3 67 20 69
3 69 19 66
3 67 69 66
3 0 65 54
3 65 19 72
3 72 16 54
3 65 72 54
3 19 71 73
3 71 4 74
3 74 21 73
3 71 74 73
3 21 76 75
3 76 5 56
3 56 16 75
3 76 56 75
3 19 73 72
3 73 21 75
3 75 16 72
3 73 75 72
3 1 51 77
3 51 15 78
3 78 22 77
3 51 78 77
3 15 57 79
3 57 5 80
3 80 23 79
3 57 80 79
3 23 82 81
3 82 10 83
3 83 22 81
3 82 83 81
3 15 79 78
3 79 23 81
3 81 22 78
3 79 81 78
3 2 49 84
3 49 14 85
3 85 24 84
3 49 85 84
3 14 47 86
3 47 1 87
3 87 25 86
3 47 87 86
3 25 89 88
3 89 6 90
3 90 24 88
3 89 90 88
3 14 86 85
3 86 25 88
3 88 24 85
3 86 88 85
3 3 63 91
3 63 18 92
3 92 26 91
3 63 92 91
3 18 61 93
3 61 2 94
3 94 27 93
3 61 94 93
3 27 96 95
3 96 7 97
3 97 26 95
3 96 97 95
3 18 93 92
3 93 27 95
3 95 26 92
3 93 95 92
3 4 70 98
3 70 20 99
3 99 28 98
3 70 99 98
3 20 68 100
3 68 3 101
3 101 29 100
3 68 101 100
3 29 103 102
3 103 8 104
3 104 28 102
3 103 104 102
3 20 100 99
3 100 29 102
3 102 28 99
3 100 102 99
3 5 76 105
3 76 21 106
3 106 30 105
3 76 106 105
3 21 74 107
3 74 4 108
3 108 31 107
3 74 108 107
3 31 110 109
3 110 9 111
3 111 30 109
3 110 111 109
3 21 107 106
3 107 31 109
3 109 30 106
3 107 109 106
3 1 77 87
3 77 22 112
3 112 25 87
3 77 112 87
3 22 83 113
3 83 10 114
3 114 32 113
3 83 114 113
3 32 116 115
3 116 6 89
3 89 25 115
3 116 89 115
3 22 113 112
3 113 32 115
3 115 25 112
3 113 115 112
3 2 84 94
3 84 24 117
3 117 27 94
3 84 117 94
3 24 90 118
3 90 6 119
3 119 33 118
3 90 119 118
3 33 121 120
3 121 7 96
3 96 27 120
3 121 96 120
3 24 118 117
3 118 33 120
3 120 27 117
3 118 120 117
3 3 91 101
3 91 26 122
3 122 29 101
3 91 122 101
3 26 97 123
3 97 7 124
3 124 34 123
3 97 124 123
3 34 126 125
3 126 8 103
3 103 29 125
3 126 103 125
3 26 123 122
3 123 34 125
3 125 29 122
3 123 125 122
3 4 98 108
3 98 28 127
3 127 31 108
3 98 127 108
3 28 104 128
3 104 8 129
3 129 35 128
3 104 129 128
3 35 131 130
3 131 9 110
3 110 31 130
3 131 110 130
3 28 128 127
3 128 35 130
3 130 31 127
3 128 130 127
3 5 105 80
3 105 30 132
3 132 23 80
3 105 132 80
3 30 111 133
3 111 9 134
3 134 36 133
3 111 134 133
3 36 136 135
3 136 10 82
3 82 23 135
3 136 82 135
3 30 133 132
3 133 36 135
3 135 23 132
3 133 135 132
3 6 116 137
3 116 32 138
3 138 37 137
3 116 138 137
3 32 114 139
3 114 10 140
3 140 38 139
3 114 140 139
3 38 142 141
3 142 11 143
3 143 37 141
3 142 143 141
3 32 139 138
3 139 38 141
3 141 37 138
3 139 141 138
3 7 121 144
3 121 33 145
3 145 39 144
3 121 145 144
3 33 119 146
3 119 6 137
3 137 37 146
3 119 137 146
3 37 143 147
3 143 11 148
3 148 39 147
3 143 148 147
3 33 146 145
3 146 37 147
3 147 39 145
3 146 147 145
3 8 126 149
3 126 34 150
3 150 40 149
3 126 150 149
3 34 124 151
3 124 7 144
3 144 39 151
3 124 144 151
3 39 148 152
3 148 11 153
3 153 40 152
3 148 153 152
3 34 151 150
3 151 39 152
3 152 40 150
3 151 152 150
3 9 131 154
3 131 35 155
3 155 41 154
3 131 155 154
3 35 129 156
3 129 8 149
3 149 40 156
3 129 149 156
3 40 153 157
3 153 11 158
3 158 41 157
3 153 158 157
3 35 156 155
3 156 40 157
3 157 41 155
3 156 157 155
3 10 136 140
3 136 36 159
3 159 38 140
3 136 159 140
3 36 134 160
3 134 9 154
3 154 41 160
3 134 154 160
3 41 158 161
3 158 11 142
3 142 38 161
3 158 142 161
3 36 160 159
3 160 41 161
3 161 38 159
3 160 161 159
