ply
format ascii 1.0
comment VTK generated PLY File
obj_info vtkPolyData points and polygons: vtk4.0
element vertex 441
property float x
property float y
property float z
element face 800
property list uchar int vertex_indices
end_header
-1.2599999904632568 -0.81000000238418579 0.47968199849128723 
-1.3999999761581421 -0.89999997615814209 0.65799999237060547 
-1.2599999904632568 -0.89999997615814209 1.0614199638366699 
-0.69999998807907104 -0.81000000238418579 1.034809947013855 
-0.8399999737739563 -0.89999997615814209 1.4485000371932983 
-0.69999998807907104 -0.89999997615814209 1.3580000400543213 
-1.1200000047683716 -0.81000000238418579 0.79956799745559692 
-1.1200000047683716 -0.89999997615814209 1.3166699409484863 
-0.98000001907348633 -0.81000000238418579 0.98774200677871704 
-0.98000001907348633 -0.89999997615814209 1.4402099847793579 
0.14000000059604645 -0.81000000238418579 -0.27281799912452698 
0 -0.89999997615814209 0 
0.14000000059604645 -0.89999997615814209 -0.33745598793029785 
-0.8399999737739563 -0.81000000238418579 1.060670018196106 
0 -0.81000000238418579 0 
-0.14000000059604645 -0.89999997615814209 0.33745598793029785 
-0.56000000238418579 -0.81000000238418579 0.92663198709487915 
-0.56000000238418579 -0.89999997615814209 1.1851799488067627 
-0.2800000011920929 -0.81000000238418579 0.52917200326919556 
-0.41999998688697815 -0.89999997615814209 0.94651198387145996 
-0.2800000011920929 -0.89999997615814209 0.6584479808807373 
-0.14000000059604645 -0.81000000238418579 0.27281799912452698 
0.2800000011920929 -0.81000000238418579 -0.52917200326919556 
0.2800000011920929 -0.89999997615814209 -0.6584479808807373 
0.41999998688697815 -0.81000000238418579 -0.75259798765182495 
0.41999998688697815 -0.89999997615814209 -0.94651198387145996 
1.3999999761581421 -0.81000000238418579 -0.011620000004768372 
1.2599999904632568 -0.89999997615814209 -1.0614199638366699 
1.3999999761581421 -0.89999997615814209 -0.65799999237060547 
0.69999998807907104 -0.81000000238418579 -1.034809947013855 
0.56000000238418579 -0.89999997615814209 -1.1851799488067627 
0.69999998807907104 -0.89999997615814209 -1.3580000400543213 
0.8399999737739563 -0.81000000238418579 -1.060670018196106 
0.8399999737739563 -0.89999997615814209 -1.4485000371932983 
-0.8399999737739563 -0.72000002861022949 0.71366399526596069 
0.56000000238418579 -0.81000000238418579 -0.92663198709487915 
0.98000001907348633 -0.81000000238418579 -0.98774200677871704 
0.98000001907348633 -0.89999997615814209 -1.4402099847793579 
1.1200000047683716 -0.81000000238418579 -0.79956799745559692 
1.1200000047683716 -0.89999997615814209 -1.3166699409484863 
-1.2599999904632568 -0.72000002861022949 -0.040823999792337418 
-1.3999999761581421 -0.81000000238418579 0.011620000004768372 
-1.1200000047683716 -0.72000002861022949 0.33689600229263306 
1.2599999904632568 -0.81000000238418579 -0.47968199849128723 
-0.41999998688697815 -0.81000000238418579 0.75259798765182495 
1.2599999904632568 -0.44999998807907104 1.2349300384521484 
1.1200000047683716 -0.54000002145767212 0.4251520037651062 
1.2599999904632568 -0.54000002145767212 0.8981279730796814 
-0.98000001907348633 -0.72000002861022949 0.58290398120880127 
-0.2800000011920929 -0.62999999523162842 0.31144401431083679 
-0.41999998688697815 -0.72000002861022949 0.57909601926803589 
-0.2800000011920929 -0.72000002861022949 0.41350400447845459 
0 -0.72000002861022949 0 
0.8399999737739563 -0.72000002861022949 -0.71366399526596069 
-0.14000000059604645 -0.72000002861022949 0.21498399972915649 
0.69999998807907104 -0.72000002861022949 -0.74563997983932495 
0.14000000059604645 -0.72000002861022949 -0.21498399972915649 
0.41999998688697815 -0.72000002861022949 -0.57909601926803589 
0.56000000238418579 -0.72000002861022949 -0.69529598951339722 
0.98000001907348633 -0.72000002861022949 -0.58290398120880127 
1.1200000047683716 -0.72000002861022949 -0.33689600229263306 
-0.69999998807907104 -0.62999999523162842 0.49048998951911926 
-0.69999998807907104 -0.72000002861022949 0.74563997983932495 
1.3999999761581421 -0.72000002861022949 0.56672000885009766 
-1.2599999904632568 -0.62999999523162842 -0.50009399652481079 
-1.3999999761581421 -0.72000002861022949 -0.56672000885009766 
-0.56000000238418579 -0.72000002861022949 0.69529598951339722 
1.2599999904632568 -0.72000002861022949 0.040823999792337418 
-1.1200000047683716 -0.62999999523162842 -0.071344003081321716 
-0.98000001907348633 -0.62999999523162842 0.22569400072097778 
-0.56000000238418579 -0.62999999523162842 0.49117600917816162 
-0.41999998688697815 -0.62999999523162842 0.42600598931312561 
-0.8399999737739563 -0.62999999523162842 0.40748399496078491 
0.2800000011920929 -0.72000002861022949 -0.41350400447845459 
-0.14000000059604645 -0.62999999523162842 0.1639540046453476 
-1.1200000047683716 -0.44999998807907104 -0.72452801465988159 
-1.2599999904632568 -0.54000002145767212 -0.8981279730796814 
-1.1200000047683716 -0.54000002145767212 -0.4251520037651062 
0.69999998807907104 -0.62999999523162842 -0.49048998951911926 
0.2800000011920929 -0.62999999523162842 -0.31144401431083679 
0.41999998688697815 -0.62999999523162842 -0.42600598931312561 
-1.3999999761581421 -0.62999999523162842 -1.0770200490951538 
0.56000000238418579 -0.62999999523162842 -0.49117600917816162 
1.3999999761581421 -0.62999999523162842 1.0770200490951538 
0.8399999737739563 -0.62999999523162842 -0.40748399496078491 
1.1200000047683716 -0.62999999523162842 0.071344003081321716 
1.2599999904632568 -0.62999999523162842 0.50009399652481079 
-0.98000001907348633 -0.54000002145767212 -0.08388800173997879 
0 -0.54000002145767212 0 
0 -0.62999999523162842 0 
-0.69999998807907104 -0.54000002145767212 0.2693600058555603 
-0.56000000238418579 -0.54000002145767212 0.31427198648452759 
0.56000000238418579 -0.54000002145767212 -0.31427198648452759 
-0.8399999737739563 -0.54000002145767212 0.14212800562381744 
-0.41999998688697815 -0.54000002145767212 0.29332798719406128 
-0.2800000011920929 -0.54000002145767212 0.22299200296401978 
0.14000000059604645 -0.54000002145767212 -0.11972799897193909 
0.14000000059604645 -0.62999999523162842 -0.1639540046453476 
0.2800000011920929 -0.54000002145767212 -0.22299200296401978 
-0.14000000059604645 -0.54000002145767212 0.11972799897193909 
0.98000001907348633 -0.62999999523162842 -0.22569400072097778 
0.41999998688697815 -0.54000002145767212 -0.29332798719406128 
1.3999999761581421 -0.54000002145767212 1.519279956817627 
0.98000001907348633 -0.54000002145767212 0.08388800173997879 
-0.56000000238418579 -0.44999998807907104 0.16458399593830109 
-0.69999998807907104 -0.44999998807907104 0.082249999046325684 
-1.2599999904632568 -0.44999998807907104 -1.2349300384521484 
-1.3999999761581421 -0.54000002145767212 -1.519279956817627 
-0.98000001907348633 -0.44999998807907104 -0.34584200382232666 
-0.8399999737739563 -0.44999998807907104 -0.082404002547264099 
-0.41999998688697815 -0.44999998807907104 0.1810619980096817 
-0.2800000011920929 -0.44999998807907104 0.14814800024032593 
0.69999998807907104 -0.44999998807907104 -0.082249999046325684 
0.69999998807907104 -0.54000002145767212 -0.2693600058555603 
0 -0.44999998807907104 0 
0.14000000059604645 -0.44999998807907104 -0.082305997610092163 
0.8399999737739563 -0.54000002145767212 -0.14212800562381744 
-0.14000000059604645 -0.44999998807907104 0.082305997610092163 
0.2800000011920929 -0.44999998807907104 -0.14814800024032593 
0.41999998688697815 -0.44999998807907104 -0.1810619980096817 
0.8399999737739563 -0.44999998807907104 0.082404002547264099 
0.98000001907348633 -0.44999998807907104 0.34584200382232666 
0.56000000238418579 -0.44999998807907104 -0.16458399593830109 
1.2599999904632568 0 2.0003800392150879 
1.1200000047683716 -0.090000003576278687 1.3777099847793579 
1.2599999904632568 -0.090000003576278687 1.9697599411010742 
1.1200000047683716 -0.44999998807907104 0.72452801465988159 
1.1200000047683716 0 1.4049299955368042 
0.98000001907348633 -0.090000003576278687 0.9173780083656311 
-0.69999998807907104 -0.36000001430511475 -0.070840001106262207 
-1.1200000047683716 -0.36000001430511475 -0.96947199106216431 
-0.98000001907348633 -0.36000001430511475 -0.56016802787780762 
0.14000000059604645 -0.36000001430511475 -0.051688000559806824 
-0.8399999737739563 -0.36000001430511475 -0.26611199975013733 
0 -0.36000001430511475 0 
-0.56000000238418579 -0.36000001430511475 0.042112000286579132 
-0.2800000011920929 -0.36000001430511475 0.086911998689174652 
-0.14000000059604645 -0.36000001430511475 0.051688000559806824 
0.2800000011920929 -0.36000001430511475 -0.086911998689174652 
0.41999998688697815 -0.36000001430511475 -0.089207999408245087 
1.3999999761581421 -0.36000001430511475 2.1996800899505615 
1.3999999761581421 -0.44999998807907104 1.8934999704360962 
0.69999998807907104 -0.36000001430511475 0.070840001106262207 
0.8399999737739563 -0.36000001430511475 0.26611199975013733 
-0.8399999737739563 -0.27000001072883606 -0.40899598598480225 
0.56000000238418579 -0.36000001430511475 -0.042112000286579132 
0.98000001907348633 -0.36000001430511475 0.56016802787780762 
1.1200000047683716 -0.36000001430511475 0.96947199106216431 
-1.2599999904632568 -0.27000001072883606 -1.724810004234314 
-1.3999999761581421 -0.36000001430511475 -2.1996800899505615 
-1.2599999904632568 -0.36000001430511475 -1.5104899406433105 
-1.1200000047683716 -0.27000001072883606 -1.1599800586700439 
1.2599999904632568 -0.36000001430511475 1.5104899406433105 
-0.41999998688697815 -0.36000001430511475 0.089207999408245087 
-1.3999999761581421 -0.44999998807907104 -1.8934999704360962 
-0.98000001907348633 -0.27000001072883606 -0.72686600685119629 
-0.2800000011920929 -0.18000000715255737 0.0052640000358223915 
-0.41999998688697815 -0.27000001072883606 0.01776600070297718 
-0.2800000011920929 -0.27000001072883606 0.039283998310565948 
0 -0.27000001072883606 0 
0.8399999737739563 -0.27000001072883606 0.40899598598480225 
-0.14000000059604645 -0.27000001072883606 0.027874000370502472 
0.69999998807907104 -0.27000001072883606 0.18990999460220337 
0.14000000059604645 -0.27000001072883606 -0.027874000370502472 
0.41999998688697815 -0.27000001072883606 -0.01776600070297718 
0.56000000238418579 -0.27000001072883606 0.053144000470638275 
0.98000001907348633 -0.27000001072883606 0.72686600685119629 
1.1200000047683716 -0.27000001072883606 1.1599800586700439 
-0.69999998807907104 -0.18000000715255737 -0.27496001124382019 
-0.69999998807907104 -0.27000001072883606 -0.18990999460220337 
1.3999999761581421 -0.27000001072883606 2.4378199577331543 
-1.2599999904632568 -0.18000000715255737 -1.8779000043869019 
-1.3999999761581421 -0.27000001072883606 -2.4378199577331543 
-0.56000000238418579 -0.27000001072883606 -0.053144000470638275 
1.2599999904632568 -0.27000001072883606 1.724810004234314 
-1.1200000047683716 -0.18000000715255737 -1.2960599660873413 
-0.98000001907348633 -0.18000000715255737 -0.84593600034713745 
-0.56000000238418579 -0.18000000715255737 -0.12118399888277054 
-0.41999998688697815 -0.18000000715255737 -0.033263999968767166 
-0.8399999737739563 -0.18000000715255737 -0.51105600595474243 
-0.14000000059604645 -0.18000000715255737 0.010863999836146832 
-1.1200000047683716 0 -1.4049299955368042 
-1.2599999904632568 -0.090000003576278687 -1.9697599411010742 
-1.1200000047683716 -0.090000003576278687 -1.3777099847793579 
0.69999998807907104 -0.18000000715255737 0.27496001124382019 
0.2800000011920929 -0.18000000715255737 -0.0052640000358223915 
0.2800000011920929 -0.27000001072883606 -0.039283998310565948 
0.41999998688697815 -0.18000000715255737 0.033263999968767166 
-1.3999999761581421 -0.18000000715255737 -2.6079199314117432 
0.56000000238418579 -0.18000000715255737 0.12118399888277054 
1.3999999761581421 -0.18000000715255737 2.6079199314117432 
0.8399999737739563 -0.18000000715255737 0.51105600595474243 
1.1200000047683716 -0.18000000715255737 1.2960599660873413 
1.2599999904632568 -0.18000000715255737 1.8779000043869019 
-0.98000001907348633 -0.090000003576278687 -0.9173780083656311 
0 -0.090000003576278687 0 
0 -0.18000000715255737 0 
-0.69999998807907104 -0.090000003576278687 -0.3259899914264679 
-0.56000000238418579 -0.090000003576278687 -0.16200800240039825 
0.56000000238418579 -0.090000003576278687 0.16200800240039825 
-0.8399999737739563 -0.090000003576278687 -0.57229197025299072 
-0.41999998688697815 -0.090000003576278687 -0.063882000744342804 
-0.2800000011920929 -0.090000003576278687 -0.015147999860346317 
0.14000000059604645 -0.090000003576278687 -0.00065800000447779894 
0.14000000059604645 -0.18000000715255737 -0.010863999836146832 
0.2800000011920929 -0.090000003576278687 0.015147999860346317 
-0.14000000059604645 -0.090000003576278687 0.00065800000447779894 
0.98000001907348633 -0.18000000715255737 0.84593600034713745 
0.41999998688697815 -0.090000003576278687 0.063882000744342804 
1.3999999761581421 -0.090000003576278687 2.7099800109863281 
-0.56000000238418579 0 -0.17561599612236023 
-0.69999998807907104 0 -0.34299999475479126 
-1.2599999904632568 0 -2.0003800392150879 
-1.3999999761581421 -0.090000003576278687 -2.7099800109863281 
-0.98000001907348633 0 -0.94119197130203247 
-0.8399999737739563 0 -0.59270399808883667 
-0.41999998688697815 0 -0.074087999761104584 
-0.2800000011920929 0 -0.021951999515295029 
0.69999998807907104 0 0.34299999475479126 
0.69999998807907104 -0.090000003576278687 0.3259899914264679 
0 0 0 
0.14000000059604645 0 0.0027439999394118786 
0.8399999737739563 -0.090000003576278687 0.57229197025299072 
-0.14000000059604645 0 -0.0027439999394118786 
0.2800000011920929 0 0.021951999515295029 
0.41999998688697815 0 0.074087999761104584 
0.8399999737739563 0 0.59270399808883667 
0.98000001907348633 0 0.94119197130203247 
0.56000000238418579 0 0.17561599612236023 
1.3999999761581421 0 2.7439999580383301 
0.41999998688697815 0.62999999523162842 -0.42600598931312561 
0.2800000011920929 0.54000002145767212 -0.22299200296401978 
0.41999998688697815 0.54000002145767212 -0.29332798719406128 
-0.69999998807907104 0.090000003576278687 -0.3259899914264679 
-1.1200000047683716 0.090000003576278687 -1.3777099847793579 
-0.98000001907348633 0.090000003576278687 -0.9173780083656311 
0.14000000059604645 0.090000003576278687 -0.00065800000447779894 
-0.8399999737739563 0.090000003576278687 -0.57229197025299072 
0 0.090000003576278687 0 
-0.56000000238418579 0.090000003576278687 -0.16200800240039825 
-0.2800000011920929 0.090000003576278687 -0.015147999860346317 
-0.14000000059604645 0.090000003576278687 0.00065800000447779894 
0.2800000011920929 0.090000003576278687 0.015147999860346317 
0.41999998688697815 0.090000003576278687 0.063882000744342804 
1.3999999761581421 0.090000003576278687 2.7099800109863281 
0.69999998807907104 0.090000003576278687 0.3259899914264679 
0.8399999737739563 0.090000003576278687 0.57229197025299072 
-0.8399999737739563 0.18000000715255737 -0.51105600595474243 
0.56000000238418579 0.090000003576278687 0.16200800240039825 
0.98000001907348633 0.090000003576278687 0.9173780083656311 
1.1200000047683716 0.090000003576278687 1.3777099847793579 
-1.2599999904632568 0.18000000715255737 -1.8779000043869019 
-1.3999999761581421 0.090000003576278687 -2.7099800109863281 
-1.2599999904632568 0.090000003576278687 -1.9697599411010742 
-1.1200000047683716 0.18000000715255737 -1.2960599660873413 
1.2599999904632568 0.090000003576278687 1.9697599411010742 
-0.41999998688697815 0.090000003576278687 -0.063882000744342804 
-0.14000000059604645 0.27000001072883606 0.027874000370502472 
-0.2800000011920929 0.18000000715255737 0.0052640000358223915 
-0.14000000059604645 0.18000000715255737 0.010863999836146832 
-0.98000001907348633 0.18000000715255737 -0.84593600034713745 
-0.2800000011920929 0.27000001072883606 0.039283998310565948 
-0.41999998688697815 0.18000000715255737 -0.033263999968767166 
0 0.18000000715255737 0 
0.8399999737739563 0.18000000715255737 0.51105600595474243 
0.69999998807907104 0.18000000715255737 0.27496001124382019 
0.14000000059604645 0.18000000715255737 -0.010863999836146832 
0.41999998688697815 0.18000000715255737 0.033263999968767166 
0.56000000238418579 0.18000000715255737 0.12118399888277054 
0.98000001907348633 0.18000000715255737 0.84593600034713745 
1.1200000047683716 0.18000000715255737 1.2960599660873413 
-0.69999998807907104 0.27000001072883606 -0.18990999460220337 
-0.69999998807907104 0.18000000715255737 -0.27496001124382019 
1.3999999761581421 0.18000000715255737 2.6079199314117432 
-1.2599999904632568 0.27000001072883606 -1.724810004234314 
-1.3999999761581421 0.18000000715255737 -2.6079199314117432 
-0.56000000238418579 0.18000000715255737 -0.12118399888277054 
1.2599999904632568 0.18000000715255737 1.8779000043869019 
-1.1200000047683716 0.27000001072883606 -1.1599800586700439 
-0.98000001907348633 0.27000001072883606 -0.72686600685119629 
-0.56000000238418579 0.27000001072883606 -0.053144000470638275 
-0.41999998688697815 0.27000001072883606 0.01776600070297718 
-0.8399999737739563 0.27000001072883606 -0.40899598598480225 
0.2800000011920929 0.18000000715255737 -0.0052640000358223915 
0 0.27000001072883606 0 
-0.98000001907348633 0.44999998807907104 -0.34584200382232666 
-1.1200000047683716 0.36000001430511475 -0.96947199106216431 
-0.98000001907348633 0.36000001430511475 -0.56016802787780762 
0.2800000011920929 0.27000001072883606 -0.039283998310565948 
0.41999998688697815 0.27000001072883606 -0.01776600070297718 
0.56000000238418579 0.27000001072883606 0.053144000470638275 
-1.2599999904632568 0.36000001430511475 -1.5104899406433105 
-1.3999999761581421 0.27000001072883606 -2.4378199577331543 
0.69999998807907104 0.27000001072883606 0.18990999460220337 
0.98000001907348633 0.27000001072883606 0.72686600685119629 
0.8399999737739563 0.27000001072883606 0.40899598598480225 
1.2599999904632568 0.27000001072883606 1.724810004234314 
1.3999999761581421 0.27000001072883606 2.4378199577331543 
1.1200000047683716 0.81000000238418579 -0.79956799745559692 
1.2599999904632568 0.89999997615814209 -1.0614199638366699 
1.1200000047683716 0.89999997615814209 -1.3166699409484863 
-0.8399999737739563 0.36000001430511475 -0.26611199975013733 
-0.69999998807907104 0.36000001430511475 -0.070840001106262207 
-0.56000000238418579 0.36000001430511475 0.042112000286579132 
-0.41999998688697815 0.36000001430511475 0.089207999408245087 
-0.2800000011920929 0.36000001430511475 0.086911998689174652 
-0.14000000059604645 0.36000001430511475 0.051688000559806824 
0 0.36000001430511475 0 
0.14000000059604645 0.36000001430511475 -0.051688000559806824 
0.14000000059604645 0.27000001072883606 -0.027874000370502472 
0.2800000011920929 0.36000001430511475 -0.086911998689174652 
0.41999998688697815 0.36000001430511475 -0.089207999408245087 
1.1200000047683716 0.27000001072883606 1.1599800586700439 
0.56000000238418579 0.36000001430511475 -0.042112000286579132 
0.8399999737739563 0.36000001430511475 0.26611199975013733 
-1.2599999904632568 0.44999998807907104 -1.2349300384521484 
-1.3999999761581421 0.36000001430511475 -2.1996800899505615 
1.1200000047683716 0.36000001430511475 0.96947199106216431 
1.2599999904632568 0.36000001430511475 1.5104899406433105 
-0.41999998688697815 0.44999998807907104 0.1810619980096817 
1.3999999761581421 0.36000001430511475 2.1996800899505615 
-0.56000000238418579 0.44999998807907104 0.16458399593830109 
-1.1200000047683716 0.44999998807907104 -0.72452801465988159 
-0.8399999737739563 0.44999998807907104 -0.082404002547264099 
-0.69999998807907104 0.44999998807907104 0.082249999046325684 
-0.2800000011920929 0.44999998807907104 0.14814800024032593 
-0.14000000059604645 0.44999998807907104 0.082305997610092163 
0.8399999737739563 0.44999998807907104 0.082404002547264099 
0.69999998807907104 0.36000001430511475 0.070840001106262207 
0.14000000059604645 0.44999998807907104 -0.082305997610092163 
0.2800000011920929 0.44999998807907104 -0.14814800024032593 
0.98000001907348633 0.36000001430511475 0.56016802787780762 
0 0.44999998807907104 0 
0.41999998688697815 0.44999998807907104 -0.1810619980096817 
0.56000000238418579 0.44999998807907104 -0.16458399593830109 
0.98000001907348633 0.44999998807907104 0.34584200382232666 
1.1200000047683716 0.44999998807907104 0.72452801465988159 
0.69999998807907104 0.44999998807907104 -0.082249999046325684 
-1.3999999761581421 0 -2.7439999580383301 
1.2599999904632568 0.44999998807907104 1.2349300384521484 
-1.2599999904632568 0.54000002145767212 -0.8981279730796814 
-1.3999999761581421 0.44999998807907104 -1.8934999704360962 
-0.56000000238418579 0.54000002145767212 0.31427198648452759 
-0.98000001907348633 0.54000002145767212 -0.08388800173997879 
-0.8399999737739563 0.54000002145767212 0.14212800562381744 
-0.69999998807907104 0.54000002145767212 0.2693600058555603 
0.14000000059604645 0.54000002145767212 -0.11972799897193909 
-0.41999998688697815 0.54000002145767212 0.29332798719406128 
-0.14000000059604645 0.54000002145767212 0.11972799897193909 
0 0.54000002145767212 0 
0.56000000238418579 0.54000002145767212 -0.31427198648452759 
-1.2599999904632568 0.62999999523162842 -0.50009399652481079 
-1.3999999761581421 0.54000002145767212 -1.519279956817627 
0.8399999737739563 0.54000002145767212 -0.14212800562381744 
0.98000001907348633 0.54000002145767212 0.08388800173997879 
-0.69999998807907104 0.62999999523162842 0.49048998951911926 
0.69999998807907104 0.54000002145767212 -0.2693600058555603 
1.1200000047683716 0.54000002145767212 0.4251520037651062 
1.2599999904632568 0.54000002145767212 0.8981279730796814 
-1.1200000047683716 0.62999999523162842 -0.071344003081321716 
-1.1200000047683716 0.54000002145767212 -0.4251520037651062 
-0.98000001907348633 0.62999999523162842 0.22569400072097778 
1.3999999761581421 0.54000002145767212 1.519279956817627 
1.3999999761581421 0.44999998807907104 1.8934999704360962 
-0.2800000011920929 0.54000002145767212 0.22299200296401978 
-0.8399999737739563 0.62999999523162842 0.40748399496078491 
-0.14000000059604645 0.72000002861022949 0.21498399972915649 
-0.2800000011920929 0.62999999523162842 0.31144401431083679 
-0.14000000059604645 0.62999999523162842 0.1639540046453476 
0.14000000059604645 0.62999999523162842 -0.1639540046453476 
0.98000001907348633 0.62999999523162842 -0.22569400072097778 
0 0.62999999523162842 0 
0.8399999737739563 0.62999999523162842 -0.40748399496078491 
0.2800000011920929 0.62999999523162842 -0.31144401431083679 
0.56000000238418579 0.62999999523162842 -0.49117600917816162 
0.69999998807907104 0.62999999523162842 -0.49048998951911926 
1.1200000047683716 0.62999999523162842 0.071344003081321716 
1.2599999904632568 0.62999999523162842 0.50009399652481079 
-0.56000000238418579 0.72000002861022949 0.69529598951339722 
-0.56000000238418579 0.62999999523162842 0.49117600917816162 
-1.2599999904632568 0.72000002861022949 -0.040823999792337418 
-1.3999999761581421 0.62999999523162842 -1.0770200490951538 
-1.1200000047683716 0.72000002861022949 0.33689600229263306 
-0.41999998688697815 0.62999999523162842 0.42600598931312561 
1.3999999761581421 0.62999999523162842 1.0770200490951538 
-0.98000001907348633 0.72000002861022949 0.58290398120880127 
-0.8399999737739563 0.72000002861022949 0.71366399526596069 
-0.41999998688697815 0.72000002861022949 0.57909601926803589 
-0.2800000011920929 0.72000002861022949 0.41350400447845459 
-0.69999998807907104 0.72000002861022949 0.74563997983932495 
0 0.72000002861022949 0 
-0.98000001907348633 0.89999997615814209 1.4402099847793579 
-1.1200000047683716 0.81000000238418579 0.79956799745559692 
-0.98000001907348633 0.81000000238418579 0.98774200677871704 
0.8399999737739563 0.72000002861022949 -0.71366399526596069 
0.41999998688697815 0.72000002861022949 -0.57909601926803589 
0.56000000238418579 0.72000002861022949 -0.69529598951339722 
0.69999998807907104 0.72000002861022949 -0.74563997983932495 
-1.2599999904632568 0.81000000238418579 0.47968199849128723 
-1.3999999761581421 0.72000002861022949 -0.56672000885009766 
0.98000001907348633 0.72000002861022949 -0.58290398120880127 
1.2599999904632568 0.72000002861022949 0.040823999792337418 
1.3999999761581421 0.72000002861022949 0.56672000885009766 
-0.8399999737739563 0.81000000238418579 1.060670018196106 
0.14000000059604645 0.81000000238418579 -0.27281799912452698 
0.14000000059604645 0.72000002861022949 -0.21498399972915649 
-0.56000000238418579 0.81000000238418579 0.92663198709487915 
-0.41999998688697815 0.81000000238418579 0.75259798765182495 
0.69999998807907104 0.81000000238418579 -1.034809947013855 
-0.69999998807907104 0.81000000238418579 1.034809947013855 
-0.2800000011920929 0.81000000238418579 0.52917200326919556 
-0.14000000059604645 0.81000000238418579 0.27281799912452698 
0.2800000011920929 0.81000000238418579 -0.52917200326919556 
0.2800000011920929 0.72000002861022949 -0.41350400447845459 
0.41999998688697815 0.81000000238418579 -0.75259798765182495 
0 0.81000000238418579 0 
1.1200000047683716 0.72000002861022949 -0.33689600229263306 
0.56000000238418579 0.81000000238418579 -0.92663198709487915 
-1.2599999904632568 0.89999997615814209 1.0614199638366699 
-1.3999999761581421 0.81000000238418579 0.011620000004768372 
1.2599999904632568 0.81000000238418579 -0.47968199849128723 
-0.41999998688697815 0.89999997615814209 0.94651198387145996 
1.3999999761581421 0.81000000238418579 -0.011620000004768372 
-0.56000000238418579 0.89999997615814209 1.1851799488067627 
-1.1200000047683716 0.89999997615814209 1.3166699409484863 
-0.8399999737739563 0.89999997615814209 1.4485000371932983 
-0.69999998807907104 0.89999997615814209 1.3580000400543213 
-0.2800000011920929 0.89999997615814209 0.6584479808807373 
-0.14000000059604645 0.89999997615814209 0.33745598793029785 
0.8399999737739563 0.89999997615814209 -1.4485000371932983 
0.8399999737739563 0.81000000238418579 -1.060670018196106 
0.14000000059604645 0.89999997615814209 -0.33745598793029785 
0.2800000011920929 0.89999997615814209 -0.6584479808807373 
0.98000001907348633 0.81000000238418579 -0.98774200677871704 
0 0.89999997615814209 0 
0.41999998688697815 0.89999997615814209 -0.94651198387145996 
0.56000000238418579 0.89999997615814209 -1.1851799488067627 
0.98000001907348633 0.89999997615814209 -1.4402099847793579 
0.69999998807907104 0.89999997615814209 -1.3580000400543213 
1.3999999761581421 0.89999997615814209 -0.65799999237060547 
-1.3999999761581421 0.89999997615814209 0.65799999237060547 
3 0 1 2 
3 3 4 5 
3 6 2 7 
3 8 7 9 
3 10 11 12 
3 13 9 4 
3 14 15 11 
3 16 5 17 
3 18 19 20 
3 21 20 15 
3 22 12 23 
3 24 23 25 
3 26 27 28 
3 29 30 31 
3 32 31 33 
3 34 8 13 
3 35 25 30 
3 36 33 37 
3 38 37 39 
3 40 41 0 
3 42 0 6 
3 43 39 27 
3 44 17 19 
3 45 46 47 
3 48 6 8 
3 49 50 51 
3 52 21 14 
3 50 16 44 
3 51 44 18 
3 53 29 32 
3 54 18 21 
3 55 35 29 
3 56 14 10 
3 57 22 24 
3 58 24 35 
3 59 32 36 
3 60 36 38 
3 61 34 62 
3 63 43 26 
3 64 65 40 
3 66 3 16 
3 67 38 43 
3 68 40 42 
3 69 42 48 
3 70 62 66 
3 71 66 50 
3 72 48 34 
3 62 13 3 
3 73 10 22 
3 74 51 54 
3 75 76 77 
3 78 58 55 
3 79 56 73 
3 80 73 57 
3 76 81 64 
3 82 57 58 
3 83 67 63 
3 84 55 53 
3 85 59 60 
3 86 60 67 
3 77 64 68 
3 87 68 69 
3 88 74 89 
3 90 72 61 
3 91 61 70 
3 92 80 82 
3 93 69 72 
3 94 70 71 
3 95 71 49 
3 96 89 97 
3 98 97 79 
3 99 49 74 
3 100 53 59 
3 97 52 56 
3 101 79 80 
3 89 54 52 
3 102 86 83 
3 103 84 100 
3 46 100 85 
3 104 90 91 
3 47 85 86 
3 105 93 90 
3 106 107 76 
3 108 77 87 
3 109 87 93 
3 110 91 94 
3 111 94 95 
3 112 92 113 
3 114 99 88 
3 115 88 96 
3 116 78 84 
3 117 95 99 
3 118 96 98 
3 119 98 101 
3 120 113 116 
3 121 116 103 
3 122 101 92 
3 113 82 78 
3 123 124 125 
3 126 103 46 
3 127 128 124 
3 129 109 105 
3 130 106 75 
3 131 75 108 
3 132 114 115 
3 133 108 109 
3 134 117 114 
3 135 105 104 
3 136 110 111 
3 137 111 117 
3 138 115 118 
3 139 118 119 
3 140 45 141 
3 142 122 112 
3 143 112 120 
3 144 131 133 
3 145 119 122 
3 146 120 121 
3 147 121 126 
3 148 149 150 
3 151 150 130 
3 152 126 45 
3 153 104 110 
3 150 154 106 
3 155 130 131 
3 156 157 158 
3 159 137 134 
3 157 135 153 
3 158 153 136 
3 160 142 143 
3 161 136 137 
3 162 145 142 
3 163 134 132 
3 164 138 139 
3 165 139 145 
3 166 143 146 
3 167 146 147 
3 168 144 169 
3 170 152 140 
3 171 172 148 
3 173 129 135 
3 174 147 152 
3 175 148 151 
3 176 151 155 
3 177 169 173 
3 178 173 157 
3 179 155 144 
3 169 133 129 
3 141 47 102 
3 180 158 161 
3 181 182 183 
3 184 165 162 
3 185 163 186 
3 187 186 164 
3 182 188 171 
3 189 164 165 
3 190 174 170 
3 191 162 160 
3 192 166 167 
3 193 167 174 
3 183 171 175 
3 194 175 176 
3 195 180 196 
3 197 179 168 
3 198 168 177 
3 199 187 189 
3 200 176 179 
3 201 177 178 
3 202 178 156 
3 203 196 204 
3 205 204 185 
3 206 156 180 
3 207 160 166 
3 204 159 163 
3 208 185 187 
3 196 161 159 
3 209 193 190 
3 128 191 207 
3 124 207 192 
3 210 197 198 
3 125 192 193 
3 211 200 197 
3 212 213 182 
3 214 183 194 
3 215 194 200 
3 216 198 201 
3 217 201 202 
3 218 199 219 
3 220 206 195 
3 221 195 203 
3 222 184 191 
3 223 202 206 
3 224 203 205 
3 225 205 208 
3 226 219 222 
3 227 222 128 
3 228 208 199 
3 219 189 184 
3 186 132 138 
3 229 125 209 
3 230 231 232 
3 233 215 211 
3 234 212 181 
3 235 181 214 
3 236 220 221 
3 237 214 215 
3 238 223 220 
3 239 211 210 
3 240 216 217 
3 241 217 223 
3 242 221 224 
3 243 224 225 
3 244 123 229 
3 245 228 218 
3 246 218 226 
3 247 235 237 
3 248 225 228 
3 249 226 227 
3 250 227 127 
3 251 252 253 
3 254 253 234 
3 255 127 123 
3 256 210 216 
3 257 258 259 
3 260 234 235 
3 261 262 258 
3 263 241 238 
3 262 239 256 
3 258 256 240 
3 264 245 246 
3 259 240 241 
3 265 248 245 
3 266 238 236 
3 267 242 243 
3 268 243 248 
3 269 246 249 
3 270 249 250 
3 271 247 272 
3 273 255 244 
3 274 275 251 
3 276 233 239 
3 277 250 255 
3 278 251 254 
3 279 254 260 
3 280 272 276 
3 281 276 262 
3 282 260 247 
3 272 237 233 
3 283 236 242 
3 284 259 263 
3 285 286 287 
3 288 266 283 
3 289 283 267 
3 290 267 268 
3 291 292 274 
3 293 268 265 
3 294 264 269 
3 295 265 264 
3 296 270 277 
3 297 277 273 
3 298 299 300 
3 286 274 278 
3 301 279 282 
3 302 282 271 
3 303 271 280 
3 304 280 281 
3 305 281 261 
3 306 261 257 
3 307 257 284 
3 308 284 309 
3 310 309 288 
3 311 288 289 
3 312 269 270 
3 309 263 266 
3 313 289 290 
3 314 293 295 
3 315 316 291 
3 317 294 312 
3 318 312 296 
3 319 303 304 
3 320 296 297 
3 321 302 303 
3 322 291 286 
3 323 287 301 
3 324 301 302 
3 325 304 305 
3 326 305 306 
3 327 328 314 
3 329 307 308 
3 330 308 310 
3 331 295 294 
3 332 306 307 
3 333 310 311 
3 334 311 313 
3 335 314 331 
3 336 331 317 
3 337 313 328 
3 328 290 293 
3 253 338 212 
3 339 317 318 
3 340 341 315 
3 342 324 321 
3 343 322 285 
3 344 285 323 
3 231 329 330 
3 345 323 324 
3 346 332 329 
3 347 321 319 
3 348 325 326 
3 349 326 332 
3 232 330 333 
3 350 333 334 
3 351 352 340 
3 353 337 327 
3 354 327 335 
3 355 344 345 
3 356 334 337 
3 357 335 336 
3 358 336 339 
3 359 340 360 
3 361 360 343 
3 362 339 363 
3 364 319 325 
3 360 315 322 
3 365 343 344 
3 366 367 368 
3 369 349 346 
3 367 347 364 
3 368 364 348 
3 370 353 354 
3 371 348 349 
3 372 356 353 
3 373 346 231 
3 374 232 350 
3 375 350 356 
3 376 354 357 
3 377 357 358 
3 378 355 379 
3 380 381 351 
3 382 351 359 
3 383 342 347 
3 384 358 362 
3 385 359 361 
3 386 361 365 
3 387 379 383 
3 388 383 367 
3 389 365 355 
3 379 345 342 
3 363 318 320 
3 390 368 371 
3 391 392 393 
3 394 375 372 
3 395 373 230 
3 396 230 374 
3 392 380 382 
3 397 374 375 
3 398 399 380 
3 400 372 370 
3 401 376 377 
3 402 377 384 
3 393 382 385 
3 403 385 386 
3 404 390 405 
3 406 389 378 
3 407 378 387 
3 408 396 397 
3 409 386 389 
3 410 387 388 
3 411 388 366 
3 412 405 413 
3 414 413 395 
3 415 366 390 
3 416 370 376 
3 413 369 373 
3 417 395 396 
3 405 371 369 
3 418 419 398 
3 298 400 416 
3 420 416 401 
3 421 406 407 
3 422 401 402 
3 423 409 406 
3 424 398 392 
3 425 393 403 
3 426 403 409 
3 427 407 410 
3 428 410 411 
3 429 408 430 
3 431 415 404 
3 432 404 412 
3 433 394 400 
3 434 411 415 
3 435 412 414 
3 436 414 417 
3 437 430 433 
3 300 433 298 
3 438 417 408 
3 430 397 394 
3 299 298 420 
3 439 420 422 
3 1 0 41 
3 4 3 13 
3 5 16 3 
3 7 8 6 
3 9 13 8 
3 17 44 16 
3 15 14 21 
3 11 10 14 
3 19 18 44 
3 20 21 18 
3 12 22 10 
3 23 24 22 
3 25 35 24 
3 30 29 35 
3 31 32 29 
3 33 36 32 
3 37 38 36 
3 39 43 38 
3 27 26 43 
3 41 40 65 
3 0 42 40 
3 6 48 42 
3 8 34 48 
3 13 62 34 
3 3 66 62 
3 16 50 66 
3 21 52 54 
3 14 56 52 
3 44 51 50 
3 18 54 51 
3 10 73 56 
3 35 55 58 
3 29 53 55 
3 22 57 73 
3 24 58 57 
3 32 59 53 
3 36 60 59 
3 38 67 60 
3 43 63 67 
3 65 64 81 
3 40 68 64 
3 42 69 68 
3 48 72 69 
3 34 61 72 
3 62 70 61 
3 66 71 70 
3 50 49 71 
3 51 74 49 
3 46 45 126 
3 47 141 45 
3 56 79 97 
3 58 78 82 
3 55 84 78 
3 73 80 79 
3 57 82 80 
3 53 100 84 
3 67 83 86 
3 81 76 107 
3 59 85 100 
3 60 86 85 
3 64 77 76 
3 68 87 77 
3 69 93 87 
3 72 90 93 
3 61 91 90 
3 70 94 91 
3 71 95 94 
3 49 99 95 
3 74 88 99 
3 89 96 88 
3 97 98 96 
3 79 101 98 
3 80 92 101 
3 54 89 74 
3 78 116 113 
3 84 103 116 
3 86 102 47 
3 107 106 154 
3 100 46 103 
3 85 47 46 
3 76 75 106 
3 93 105 109 
3 90 104 105 
3 77 108 75 
3 87 109 108 
3 91 110 104 
3 94 111 110 
3 95 117 111 
3 99 114 117 
3 88 115 114 
3 96 118 115 
3 98 119 118 
3 101 122 119 
3 92 112 122 
3 113 120 112 
3 116 121 120 
3 103 126 121 
3 52 97 89 
3 82 113 92 
3 154 150 149 
3 189 219 199 
3 109 129 133 
3 105 135 129 
3 75 131 130 
3 108 133 131 
3 104 153 135 
3 117 134 137 
3 114 132 134 
3 110 136 153 
3 111 137 136 
3 115 138 132 
3 118 139 138 
3 119 145 139 
3 122 142 145 
3 112 143 142 
3 120 146 143 
3 121 147 146 
3 126 152 147 
3 45 140 152 
3 149 148 172 
3 150 151 148 
3 130 155 151 
3 131 144 155 
3 133 169 144 
3 129 173 169 
3 135 157 173 
3 137 159 161 
3 134 163 159 
3 153 158 157 
3 136 161 158 
3 132 186 163 
3 145 162 165 
3 142 160 162 
3 138 164 186 
3 139 165 164 
3 143 166 160 
3 146 167 166 
3 147 174 167 
3 152 170 174 
3 172 171 188 
3 148 175 171 
3 151 176 175 
3 155 179 176 
3 144 168 179 
3 169 177 168 
3 173 178 177 
3 157 156 178 
3 158 180 156 
3 124 123 127 
3 106 130 150 
3 163 185 204 
3 165 184 189 
3 162 191 184 
3 186 187 185 
3 164 189 187 
3 160 207 191 
3 174 190 193 
3 188 182 213 
3 166 192 207 
3 167 193 192 
3 171 183 182 
3 175 194 183 
3 176 200 194 
3 179 197 200 
3 168 198 197 
3 177 201 198 
3 178 202 201 
3 156 206 202 
3 180 195 206 
3 196 203 195 
3 204 205 203 
3 185 208 205 
3 187 199 208 
3 161 196 180 
3 184 222 219 
3 191 128 222 
3 193 209 125 
3 213 212 338 
3 207 124 128 
3 192 125 124 
3 182 181 212 
3 200 211 215 
3 197 210 211 
3 183 214 181 
3 194 215 214 
3 198 216 210 
3 201 217 216 
3 202 223 217 
3 206 220 223 
3 195 221 220 
3 203 224 221 
3 205 225 224 
3 208 228 225 
3 199 218 228 
3 219 226 218 
3 222 227 226 
3 128 127 227 
3 159 204 196 
3 2 6 0 
3 125 229 123 
3 212 234 253 
3 211 239 233 
3 181 235 234 
3 214 237 235 
3 221 242 236 
3 215 233 237 
3 220 236 238 
3 210 256 239 
3 217 241 240 
3 223 238 241 
3 224 243 242 
3 225 248 243 
3 252 251 275 
3 218 246 245 
3 226 249 246 
3 237 272 247 
3 228 245 248 
3 227 250 249 
3 127 255 250 
3 253 254 251 
3 234 260 254 
3 123 244 255 
3 216 240 256 
3 318 363 339 
3 235 247 260 
3 258 257 261 
3 238 266 263 
3 256 258 262 
3 240 259 258 
3 246 269 264 
3 241 263 259 
3 245 264 265 
3 236 283 266 
3 243 268 267 
3 248 265 268 
3 249 270 269 
3 250 277 270 
3 272 280 271 
3 275 274 292 
3 251 278 274 
3 239 262 276 
3 255 273 277 
3 254 279 278 
3 260 282 279 
3 276 281 280 
3 262 261 281 
3 247 271 282 
3 233 276 272 
3 242 267 283 
3 259 284 257 
3 286 285 322 
3 265 295 293 
3 283 289 288 
3 267 290 289 
3 274 286 291 
3 268 293 290 
3 292 291 316 
3 264 294 295 
3 270 296 312 
3 277 297 296 
3 278 287 286 
3 279 301 287 
3 284 308 307 
3 271 303 302 
3 280 304 303 
3 290 328 313 
3 282 302 301 
3 281 305 304 
3 261 306 305 
3 309 310 308 
3 288 311 310 
3 257 307 306 
3 269 312 294 
3 266 288 309 
3 289 313 311 
3 263 309 284 
3 316 315 341 
3 294 317 331 
3 312 318 317 
3 303 319 321 
3 296 320 318 
3 302 321 324 
3 291 322 315 
3 287 323 285 
3 301 324 323 
3 304 325 319 
3 305 326 325 
3 328 327 337 
3 307 329 332 
3 308 330 329 
3 295 331 314 
3 306 332 326 
3 310 333 330 
3 311 334 333 
3 314 335 327 
3 331 336 335 
3 313 337 334 
3 293 314 328 
3 317 339 336 
3 341 340 352 
3 338 253 252 
3 323 345 344 
3 324 342 345 
3 322 343 360 
3 285 344 343 
3 321 347 342 
3 326 349 348 
3 332 346 349 
3 319 364 347 
3 325 348 364 
3 329 231 346 
3 330 232 231 
3 333 350 232 
3 334 356 350 
3 337 353 356 
3 327 354 353 
3 335 357 354 
3 336 358 357 
3 339 362 358 
3 352 351 381 
3 340 359 351 
3 360 361 359 
3 343 365 361 
3 344 355 365 
3 345 379 355 
3 342 383 379 
3 348 371 368 
3 349 369 371 
3 347 367 383 
3 364 368 367 
3 346 373 369 
3 350 375 374 
3 356 372 375 
3 231 230 373 
3 232 374 230 
3 353 370 372 
3 354 376 370 
3 357 377 376 
3 358 384 377 
3 381 380 399 
3 351 382 380 
3 359 385 382 
3 361 386 385 
3 365 389 386 
3 355 378 389 
3 379 387 378 
3 383 388 387 
3 367 366 388 
3 315 360 340 
3 368 390 366 
3 369 413 405 
3 375 394 397 
3 373 395 413 
3 230 396 395 
3 380 392 398 
3 374 397 396 
3 399 398 419 
3 372 400 394 
3 376 401 416 
3 377 402 401 
3 382 393 392 
3 385 403 393 
3 390 404 415 
3 389 406 409 
3 378 407 406 
3 396 408 417 
3 386 409 403 
3 387 410 407 
3 388 411 410 
3 405 412 404 
3 413 414 412 
3 366 415 411 
3 370 416 400 
3 395 417 414 
3 397 430 408 
3 371 405 390 
3 419 418 440 
3 400 298 433 
3 416 420 298 
3 401 422 420 
3 398 424 418 
3 409 423 426 
3 392 391 424 
3 393 425 391 
3 403 426 425 
3 406 421 423 
3 287 278 279 
3 407 427 421 
3 408 429 438 
3 415 431 434 
3 404 432 431 
3 394 433 430 
3 411 434 428 
3 412 435 432 
3 414 436 435 
3 430 437 429 
3 433 300 437 
3 417 438 436 
3 410 428 427 
3 420 439 299 
