ply
format ascii 1.0
comment VTK generated PLY File
obj_info vtkPolyData points and polygons: vtk4.0
element vertex 441
property float x
property float y
property float z
element face 800
property list uchar int vertex_indices
end_header
-1.264702320098877 -0.77218109369277954 -0.52081835269927979 
-1.4064018726348877 -0.84851258993148804 -0.70409965515136719 
-1.2701946496963501 -0.81800860166549683 -1.1076648235321045 
-0.7099376916885376 -0.73007553815841675 -1.0795941352844238 
-0.85384649038314819 -0.78863871097564697 -1.4975655078887939 
-0.71300321817398071 -0.79542094469070435 -1.4086418151855469 
-1.1277110576629639 -0.74798309803009033 -0.84109151363372803 
-1.1325967311859131 -0.79868996143341064 -1.3634892702102661 
-0.98948359489440918 -0.73372805118560791 -1.0300343036651611 
-0.9937625527381897 -0.78931421041488647 -1.487985372543335 
0.14229914546012878 -0.82849091291427612 0.21636024117469788 
-0.00028739217668771744 -0.89768862724304199 -0.06114727258682251 
0.14287392795085907 -0.92311364412307739 0.27401679754257202 
-0.85017424821853638 -0.72817301750183105 -1.1040651798248291 
-0.00025545974494889379 -0.80794543027877808 -0.054353132843971252 
-0.14344871044158936 -0.87226355075836182 -0.39631134271621704 
-0.56892848014831543 -0.73819226026535034 -0.97304368019104004 
-0.57138723134994507 -0.80841749906539917 -1.2376365661621094 
-0.28521013259887695 -0.76809734106063843 -0.57936358451843262 
-0.42915317416191101 -0.8263850212097168 -1.0009742975234985 
-0.28645548224449158 -0.84808140993118286 -0.71505910158157349 
-0.14281006157398224 -0.78739994764328003 -0.32506650686264038 
0.2846992015838623 -0.84779351949691772 0.47065731883049011 
0.28588071465492249 -0.94729578495025635 0.59276455640792847 
0.42679017782211304 -0.86461043357849121 0.69212180376052856 
0.42857837677001953 -0.96899223327636719 0.87867975234985352 
1.3997918367385864 -0.80832594633102417 -0.055907737463712692 
1.2696199417114258 -0.97736865282058716 0.9853702187538147 
1.4058270454406738 -0.94686460494995117 0.58180510997772217 
0.70942676067352295 -0.88581538200378418 0.97088783979415894 
0.57081246376037598 -0.98695969581604004 1.1153420209884644 
0.71242839097976685 -0.99995630979537964 1.2863472700119019 
0.84966331720352173 -0.88771790266036987 0.99535888433456421 
0.8532717227935791 -1.006738543510437 1.3752709627151489 
-0.84688514471054077 -0.66462552547454834 -0.75127047300338745 
0.56841754913330078 -0.87769865989685059 0.86433744430541992 
0.98897266387939453 -0.88216286897659302 0.92132806777954102 
0.99318772554397583 -1.0060629844665527 1.3656908273696899 
1.1272001266479492 -0.8679078221321106 0.73238521814346313 
1.1320220232009888 -0.99668723344802856 1.2411946058273315 
-1.2597846984863281 -0.72173118591308594 0.0049735512584447861 
-1.4003027677536011 -0.80756497383117676 -0.052798531949520111 
-1.1233363151550293 -0.69316726922988892 -0.37296605110168457 
1.2641913890838623 -0.84370982646942139 0.41211205720901489 
-0.4273010790348053 -0.75128048658370972 -0.80082809925079346 
1.2482250928878784 -0.35530021786689758 -1.2703549861907959 
1.1158002614974976 -0.50622361898422241 -0.46840351819992065 
1.2513545751571655 -0.47046878933906555 -0.94132304191589355 
-0.98565167188644409 -0.67454630136489868 -0.61957526206970215 
-0.28310257196426392 -0.60504740476608276 -0.34867823123931885 
-0.42564061284065247 -0.67463511228561401 -0.62103474140167236 
-0.2840924859046936 -0.68708604574203491 -0.45723661780357361 
-0.00022352726955432445 -0.71820229291915894 -0.047558993101119995 
0.84643810987472534 -0.77177906036376953 0.65615248680114746 
-0.14223527908325195 -0.7020227313041687 -0.26060596108436584 
0.70674443244934082 -0.77424263954162598 0.68934988975524902 
0.14178821444511414 -0.73438185453414917 0.16548795998096466 
0.42519354820251465 -0.76176953315734863 0.5259166955947876 
0.56627810001373291 -0.7704918384552002 0.64046591520309448 
0.98520463705062866 -0.76185828447341919 0.52445727586746216 
1.1228892803192139 -0.74323737621307373 0.27784806489944458 
-0.70476460456848145 -0.59168010950088501 -0.52326309680938721 
-0.70719146728515625 -0.66216194629669189 -0.78446787595748901 
1.3943952322006226 -0.6749235987663269 -0.62577778100967407 
-1.2554419040679932 -0.66665846109390259 0.46970689296722412 
-1.394842267036438 -0.76148098707199097 0.53065979480743408 
-0.56672513484954834 -0.66591274738311768 -0.73558390140533447 
1.2593376636505127 -0.71467339992523193 -0.10009153932332993 
-1.1194725036621094 -0.63424223661422729 0.040885169059038162 
-0.98226684331893921 -0.61176902055740356 -0.25660622119903564 
-0.56477725505828857 -0.59157866239547729 -0.52526122331619263 
-0.42417171597480774 -0.59644871950149536 -0.46159413456916809 
-0.84397929906845093 -0.59799593687057495 -0.43918353319168091 
0.28364542126655579 -0.74931854009628296 0.36211863160133362 
-0.1417243480682373 -0.61613178253173828 -0.20292967557907104 
-1.1132776737213135 -0.50406503677368164 0.7057647705078125 
-1.2516739368438721 -0.60696309804916382 0.87338161468505859 
-1.1161196231842041 -0.57120823860168457 0.40046209096908569 
0.70438146591186523 -0.66523802280426025 0.44173339009284973 
0.28271937370300293 -0.65187078714370728 0.26714852452278137 
0.42378851771354675 -0.66046947240829468 0.38006442785263062 
-1.390020489692688 -0.71026057004928589 1.04627525806427 
0.56439405679702759 -0.66533946990966797 0.44373151659965515 
1.3896373510360718 -0.54665762186050415 -1.1278049945831299 
0.84359610080718994 -0.65892219543457031 0.35765382647514343 
1.1190893650054932 -0.62267589569091797 -0.12241487205028534 
1.255058765411377 -0.59025973081588745 -0.55123656988143921 
-0.97932904958724976 -0.54539638757705688 0.058872867375612259 
-0.000159662333317101 -0.5387158989906311 -0.033970709890127182 
-0.00019159479415975511 -0.62845909595489502 -0.040764849632978439 
-0.70265710353851318 -0.51863020658493042 -0.29597973823547363 
-0.56308484077453613 -0.51519006490707397 -0.34207567572593689 
0.56276553869247437 -0.56224179267883301 0.27413424849510193 
-0.84145665168762207 -0.52828466892242432 -0.16780231893062592 
-0.42289441823959351 -0.51672148704528809 -0.32250645756721497 
-0.28224039077758789 -0.52198147773742676 -0.25368836522102356 
0.14095798134803772 -0.54770457744598389 0.084096267819404602 
0.14134116470813751 -0.64078634977340698 0.12139997631311417 
0.28192108869552612 -0.55545037984848022 0.18574695289134979 
-0.14127729833126068 -0.5297272801399231 -0.15203768014907837 
0.98188364505767822 -0.6451491117477417 0.17507651448249817 
0.42257508635520935 -0.5607103705406189 0.25456503033638 
1.385517954826355 -0.4235280454158783 -1.5619893074035645 
0.97900974750518799 -0.5320354700088501 -0.12681429088115692 
-0.56164789199829102 -0.43674689531326294 -0.18602727353572845 
-0.70086884498596191 -0.44301199913024902 -0.10261776298284531 
-1.2484805583953857 -0.54264521598815918 1.2160018682479858 
-1.3858373165130615 -0.6539037823677063 1.4940478801727295 
-0.97683829069137573 -0.47542819380760193 0.32686194777488708 
-0.83931714296340942 -0.45549145340919495 0.062873214483261108 
-0.42180871963500977 -0.43545326590538025 -0.20377163589000702 
-0.28150594234466553 -0.43788829445838928 -0.17226709425449371 
0.70061337947845459 -0.45493343472480774 0.048264633864164352 
0.70233774185180664 -0.55880165100097656 0.22803831100463867 
-0.00012772985792253166 -0.44897270202636719 -0.027176566421985626 
0.14063864946365356 -0.45513635873794556 0.053576845675706863 
0.8411373496055603 -0.54914718866348267 0.099860899150371552 
-0.14089411497116089 -0.44280907511711121 -0.10792997479438782 
0.28125050663948059 -0.46005713939666748 0.11791396886110306 
0.42155325412750244 -0.46249213814735413 0.14941850304603577 
0.83906173706054688 -0.44245395064353943 -0.11722634732723236 
0.97658282518386841 -0.42251724004745483 -0.38121509552001953 
0.56139242649078369 -0.46119853854179382 0.1316741555929184 
1.2411999702453613 0.15119984745979309 -1.9996163845062256 
1.1070188283920288 0.014401344582438469 -1.3842306137084961 
1.2414554357528687 0.059145145118236542 -1.9758790731430054 
1.1130222082138062 -0.39388036727905273 -0.76011788845062256 
1.1067953109741211 0.10619938373565674 -1.4045776128768921 
0.97134590148925781 -0.020399002358317375 -0.92391842603683472 
-0.69939994812011719 -0.36482566595077515 0.056822773069143295 
-1.1109465360641479 -0.43281283974647522 0.95679312944412231 
-0.97479462623596191 -0.40186461806297302 0.54736107587814331 
0.14038318395614624 -0.36308184266090393 0.029841706156730652 
-0.83756089210510254 -0.37961649894714355 0.25284302234649658 
-9.579740435583517e-05 -0.35922956466674805 -0.020382426679134369 
-0.56046634912490845 -0.35624918341636658 -0.057116027921438217 
-0.28089922666549683 -0.35276788473129272 -0.10441439598798752 
-0.14057478308677673 -0.35537728667259216 -0.07060655951499939 
0.28070762753486633 -0.36569124460220337 0.063649542629718781 
0.42072299122810364 -0.36581489443778992 0.064624801278114319 
1.3791953325271606 -0.19267795979976654 -2.2268295288085938 
1.3820374011993408 -0.30553478002548218 -1.9283307790756226 
0.69920837879180908 -0.35363346338272095 -0.097587622702121735 
0.83736926317214966 -0.33884260058403015 -0.29360789060592651 
-0.83618777990341187 -0.30065971612930298 0.4021071195602417 
0.56027477979660034 -0.36220991611480713 0.016351174563169479 
0.97460305690765381 -0.31659451127052307 -0.58812594413757324 
1.1107549667358398 -0.28564628958702087 -0.99755799770355225 
-1.2438185214996338 -0.40014013648033142 1.7180505990982056 
-1.3793870210647583 -0.52578115463256836 2.1860647201538086 
-1.2458621263504028 -0.47370418906211853 1.497557520866394 
-1.1091264486312866 -0.35745120048522949 1.1535433530807495 
1.2456705570220947 -0.24475491046905518 -1.5383223295211792 
-0.42091459035873413 -0.35264423489570618 -0.10538965463638306 
-1.3822928667068481 -0.5924106240272522 1.8739776611328125 
-0.97319799661636353 -0.32470554113388062 0.72037017345428467 
-0.28006899356842041 -0.17944514751434326 -0.0094147017225623131 
-0.42021209001541138 -0.26829421520233154 -0.027360524982213974 
-0.28042024374008179 -0.26662015914916992 -0.050130262970924377 
-6.3864936237223446e-05 -0.26948636770248413 -0.013588284142315388 
0.8360600471496582 -0.23831303417682648 -0.42928370833396912 
-0.1403193324804306 -0.2674318253993988 -0.040067423135042191 
0.69812268018722534 -0.25490161776542664 -0.20951844751834869 
0.14019159972667694 -0.27154091000556946 0.01289085391908884 
0.42008435726165771 -0.27067852020263672 0.00018395691586192697 
0.55941259860992432 -0.26527580618858337 -0.071834668517112732 
0.97307026386260986 -0.21426720917224884 -0.7475467324256897 
1.1089986562728882 -0.18152156472206116 -1.1807198524475098 
-0.69742017984390259 -0.20074841380119324 0.27393960952758789 
-0.698250412940979 -0.28407111763954163 0.18234188854694366 
1.3769919872283936 -0.084957487881183624 -2.4574851989746094 
-1.2423496246337891 -0.32195377349853516 1.8774912357330322 
-1.377119779586792 -0.45401525497436523 2.4303085803985596 
-0.55954033136367798 -0.27369692921638489 0.044658098369836807 
1.2436908483505249 -0.13883261382579803 -1.7452272176742554 
-1.1078171730041504 -0.2779807448387146 1.2960230112075806 
-0.97204846143722534 -0.24395099282264709 0.84588927030563354 
-0.55886977910995483 -0.18909011781215668 0.11929508298635483 
-0.41970115900039673 -0.1824033260345459 0.03031574934720993 
-0.83519786596298218 -0.21862107515335083 0.51066553592681885 
-0.14012773334980011 -0.17897273600101471 -0.016312567517161369 
-1.1067314147949219 -0.10671301931142807 1.418165922164917 
-1.2414554357528687 -0.23914514482021332 1.9758790731430054 
-1.1070188283920288 -0.19440135359764099 1.3842306137084961 
0.69735628366470337 -0.15873797237873077 -0.28752788901329041 
0.28000512719154358 -0.18004122376441956 -0.0041735819540917873 
0.28029251098632812 -0.27235260605812073 0.022953696548938751 
0.4196372926235199 -0.17708306014537811 -0.043904032558202744 
-1.3754912614822388 -0.37711301445960999 2.6067099571228027 
0.55880588293075562 -0.17039626836776733 -0.13288336992263794 
1.3754273653030396 0.017626624554395676 -2.6202981472015381 
0.83513402938842773 -0.14086529612541199 -0.52425384521484375 
1.1077533960342407 -0.081505641341209412 -1.3096113204956055 
1.2422857284545898 -0.037532590329647064 -1.8910794258117676 
-0.97134590148925781 -0.15960100293159485 0.92391842603683472 
0 -0.090000003576278687 -8.6736173798840355e-19 
-3.1932468118611723e-05 -0.17974318563938141 -0.0067941420711576939 
-0.69690924882888794 -0.1148575022816658 0.3316158652305603 
-0.55845463275909424 -0.10242875665426254 0.16679492592811584 
0.55845463275909424 -0.07757125049829483 -0.16679492592811584 
-0.83459115028381348 -0.13350062072277069 0.57851821184158325 
-0.41938182711601257 -0.094971500337123871 0.067639172077178955 
-0.2798454761505127 -0.091242879629135132 0.017732292413711548 
0.14000000059604645 -0.090000003576278687 -0.00065800000447779894 
0.14006386697292328 -0.1805136501789093 0.0027242843061685562 
0.2798454761505127 -0.088757127523422241 -0.017732292413711548 
-0.14000000059604645 -0.090000003576278687 0.00065800000447779894 
0.97198456525802612 -0.11553537845611572 -0.85947757959365845 
0.41938182711601257 -0.085028506815433502 -0.067639172077178955 
1.3745013475418091 0.11507437378168106 -2.7152683734893799 
-0.55829495191574097 -0.01371284294873476 0.18715763092041016 
-0.69671761989593506 -0.026398411020636559 0.35537070035934448 
-1.2411361932754517 -0.15171349048614502 2.0132045745849609 
-1.3745013475418091 -0.29507437348365784 2.7152683734893799 
-0.97109049558639526 -0.071655549108982086 0.95445752143859863 
-0.83436763286590576 -0.045298356562852859 0.60566526651382446 
-0.41925409436225891 -0.0059987744316458702 0.084609739482402802 
-0.27974966168403625 -0.0020133305806666613 0.031310718506574631 
0.69678151607513428 0.025884773582220078 -0.34178242087364197 
0.69690924882888794 -0.065142504870891571 -0.3316158652305603 
3.1932468118611723e-05 -0.00025681854458525777 0.0067941420711576939 
0.14000000059604645 0 0.0027439999394118786 
0.83459115028381348 -0.046499378979206085 -0.57851821184158325 
-0.13993613421916962 -0.00051363708917051554 0.010844283737242222 
0.27981352806091309 0.0014996934914961457 -0.017722435295581818 
0.41931796073913574 0.0054851369932293892 -0.07102145254611969 
0.83443152904510498 0.044784717261791229 -0.59207695722579956 
0.97115433216094971 0.071141906082630157 -0.94086921215057373 
0.55835884809494019 0.013199205510318279 -0.17356935143470764 
1.3742139339447021 0.20738573372364044 -2.7423956394195557 
0.42423558235168457 0.59593504667282104 0.47518241405487061 
0.28230425715446472 0.52146786451339722 0.26727664470672607 
0.42295828461647034 0.51620781421661377 0.33609473705291748 
-0.69684535264968872 0.064628869295120239 0.34520414471626282 
-1.1069550514221191 -0.01491498202085495 1.397818922996521 
-0.97128206491470337 0.019885364919900894 0.93750667572021484 
0.14006386697292328 0.089486368000507355 0.012930284254252911 
-0.83452731370925903 0.045985743403434753 0.59210652112960815 
6.3864936237223446e-05 0.089486368000507355 0.013588284142315388 
-0.55839073657989502 0.077057614922523499 0.18038322031497955 
-0.27978160977363586 0.088243491947650909 0.031320575624704361 
-0.13993613421916962 0.089486368000507355 0.014246284030377865 
0.27990934252738953 0.0907292440533638 -0.0041440087370574474 
0.4194456934928894 0.094457864761352539 -0.054050888866186142 
1.3745651245117188 0.29456073045730591 -2.7016801834106445 
0.69697308540344238 0.11434386670589447 -0.3180275559425354 
0.8346550464630127 0.13298699259757996 -0.56492996215820312 
-0.83507013320922852 0.14035165309906006 0.53784215450286865 
0.55851846933364868 0.10191511362791061 -0.15320664644241333 
0.97140979766845703 0.15908737480640411 -0.91033011674880981 
1.107082724571228 0.19388771057128906 -1.3706423044204712 
-1.2422219514846802 0.037018954753875732 1.9046677350997925 
-1.3744374513626099 -0.11558800935745239 2.7288565635681152 
-1.241391658782959 -0.059658780694007874 1.9894673824310303 
-1.1076894998550415 0.080991998314857483 1.3231996297836304 
1.2415193319320679 0.23863151669502258 -1.9622907638549805 
-0.41931796073913574 0.084514863789081573 0.081227459013462067 
-0.14012773334980011 0.27102729678153992 0.00069743051426485181 
-0.27994126081466675 0.17952758073806763 0.017761865630745888 
-0.14000000059604645 0.18000000715255737 0.010863999836146832 
-0.97192072868347168 0.11502174288034439 0.87306582927703857 
-0.28022864460945129 0.2718389630317688 -0.0093654114753007889 
-0.41957342624664307 0.17656941711902618 0.057492319494485855 
9.579740435583517e-05 0.17922955751419067 0.020382426679134369 
0.8352617621421814 0.2181074470281601 -0.49707728624343872 
0.69748401641845703 0.20023477077484131 -0.26035130023956299 
0.14019159972667694 0.17845909297466278 0.029900852590799332 
0.41976502537727356 0.18188968300819397 -0.016727466136217117 
0.55893361568450928 0.18857647478580475 -0.10570679605007172 
0.97211229801177979 0.24343736469745636 -0.83230102062225342 
1.1078810691833496 0.27746710181236267 -1.2824347019195557 
-0.69805878400802612 0.25438797473907471 0.2231067419052124 
-0.69729244709014893 0.15822432935237885 0.30111616849899292 
1.3755550384521484 0.37659937143325806 -2.5931215286254883 
-1.2436269521713257 0.13831897079944611 1.7588155269622803 
-1.3753634691238403 -0.018140261992812157 2.6338863372802734 
-0.55874204635620117 0.16988262534141541 0.14647164940834045 
1.2424135208129883 0.32144016027450562 -1.8639029264450073 
-1.1089348793029785 0.18100792169570923 1.1943081617355347 
-0.97300642728805542 0.21375358104705811 0.7611350417137146 
-0.55934876203536987 0.26476219296455383 0.085422948002815247 
-0.42002049088478088 0.27016487717628479 0.013404327444732189 
-0.83599621057510376 0.23779940605163574 0.44287198781967163 
0.28013285994529724 0.17893151938915253 0.023002985864877701 
0.00012772987247444689 0.2689727246761322 0.027176568284630775 
-0.97651898860931396 0.42200359702110291 0.39480337500572205 
-1.1106910705566406 0.28513264656066895 1.0111463069915771 
-0.97453916072845459 0.31608086824417114 0.60171419382095337 
0.28048411011695862 0.26610651612281799 0.063718549907207489 
0.42027595639228821 0.267780601978302 0.040948808193206787 
0.55960416793823242 0.27318328619003296 -0.031069813296198845 
-1.2456066608428955 0.24424128234386444 1.5519106388092041 
-1.3769282102584839 0.084443844854831696 2.4710733890533447 
0.69831424951553345 0.28355750441551208 -0.16875359416007996 
0.97326189279556274 0.32419189810752869 -0.70678186416625977 
0.83625167608261108 0.30014607310295105 -0.38851884007453918 
1.243882417678833 0.39962649345397949 -1.7044624090194702 
1.3771836757659912 0.45350161194801331 -2.4167203903198242 
1.1277749538421631 0.74746942520141602 0.85467982292175293 
1.2702585458755493 0.81749492883682251 1.1212530136108398 
1.1326606273651123 0.7981763482093811 1.3770774602890015 
-0.83730542659759521 0.33832895755767822 0.30719617009162903 
-0.69914454221725464 0.35311982035636902 0.11117590963840485 
-0.5602109432220459 0.3616962730884552 -0.0027628904208540916 
-0.42065912485122681 0.36530125141143799 -0.051036514341831207 
-0.2806437611579895 0.36517760157585144 -0.050061259418725967 
-0.1403193324804306 0.362568199634552 -0.016253422945737839 
0.000159662333317101 0.35871592164039612 0.033970709890127182 
0.14063864946365356 0.35486364364624023 0.084194846451282501 
0.14038318395614624 0.26691818237304688 0.053655706346035004 
0.28096309304237366 0.3522542417049408 0.11800268292427063 
0.42097845673561096 0.35213059186935425 0.11897793412208557 
1.1091903448104858 0.35693755745887756 -1.1399550437927246 
0.56053024530410767 0.35573557019233704 0.07070431113243103 
0.83762472867965698 0.37910288572311401 -0.23925474286079407 
-1.2481613159179688 0.35478657484054565 1.2839432954788208 
-1.379131555557251 0.19216431677341461 2.2404177188873291 
1.1110104322433472 0.43229919672012329 -0.94320482015609741 
1.2459260225296021 0.47319057583808899 -1.4839692115783691 
-0.42148938775062561 0.46197852492332458 -0.13583020865917206 
1.379450798034668 0.52526754140853882 -2.1724762916564941 
-0.56132853031158447 0.46068489551544189 -0.11808586120605469 
-1.1129583120346069 0.39336672425270081 0.77370619773864746 
-0.83899784088134766 0.44194033741950989 0.13081462681293488 
-0.70054954290390015 0.45441979169845581 -0.034676350653171539 
-0.28118664026260376 0.45954349637031555 -0.10432568192481995 
-0.14057478308677673 0.45462271571159363 -0.039988558739423752 
0.83938103914260864 0.45497784018516541 -0.049284934997558594 
0.69946384429931641 0.36431202292442322 -0.043234486132860184 
0.14095798134803772 0.44229543209075928 0.12151826173067093 
0.28156980872154236 0.43737465143203735 0.18585538864135742 
0.97485852241516113 0.40135097503662109 -0.53377282619476318 
0.00019159479415975511 0.44845908880233765 0.040764849632978439 
0.42187255620956421 0.43493965268135071 0.21735991537570953 
0.56171172857284546 0.43623325228691101 0.19961556792259216 
0.97690218687057495 0.47491455078125 -0.31327366828918457 
1.1133414506912231 0.5035514235496521 -0.6921764612197876 
0.70093274116516113 0.44249835610389709 0.11620604991912842 
-1.3741500377655029 -0.20789937674999237 2.755983829498291 
1.248544454574585 0.54213160276412964 -1.2024136781692505 
-1.2512906789779663 0.46995514631271362 0.95491135120391846 
-1.3819735050201416 0.30502116680145264 1.9419190883636475 
-0.56270164251327515 0.56172811985015869 -0.26054596900939941 
-0.97894585132598877 0.53152185678482056 0.14040257036685944 
-0.84107345342636108 0.54863357543945312 -0.08627261221408844 
-0.7022739052772522 0.55828803777694702 -0.21445003151893616 
0.14134116470813751 0.52921366691589355 0.16562597453594208 
-0.42251121997833252 0.56019675731658936 -0.24097675085067749 
-0.14089411497116089 0.54719096422195435 -0.07050798088312149 
0.00022352726955432445 0.53820228576660156 0.047558993101119995 
0.56314867734909058 0.51467645168304443 0.3556639552116394 
-1.2549948692321777 0.58974605798721313 0.56482487916946411 
-1.3854541778564453 0.42301440238952637 1.5755774974822998 
0.84152048826217651 0.52777099609375 0.18139059841632843 
0.9793928861618042 0.54488277435302734 -0.045284584164619446 
-0.70431756973266602 0.66472440958023071 -0.42814511060714722 
0.70272094011306763 0.5181165337562561 0.30956801772117615 
1.1161835193634033 0.57069456577301025 -0.38687381148338318 
1.2517377138137817 0.6064494252204895 -0.85979336500167847 
-1.1190254688262939 0.62216228246688843 0.13600315153598785 
-1.1157364845275879 0.50571000576019287 0.48199179768562317 
-0.981819748878479 0.64463549852371216 -0.16148823499679565 
1.3859012126922607 0.65339016914367676 -1.4804595708847046 
1.3823566436767578 0.59189701080322266 -1.8603893518447876 
-0.28185722231864929 0.55493670701980591 -0.17215867340564728 
-0.8435322642326355 0.65840858221054077 -0.34406554698944092 
-0.1417243480682373 0.73386824131011963 -0.15189968049526215 
-0.2826555073261261 0.65135717391967773 -0.25356024503707886 
-0.14127729833126068 0.64027273654937744 -0.10781169682741165 
0.14178821444511414 0.61561816930770874 0.21651796996593475 
0.98233067989349365 0.61125540733337402 0.27019450068473816 
0.00025545974494889379 0.6279454231262207 0.054353132843971252 
0.84404319524765015 0.59748232364654541 0.45277181267738342 
0.28316643834114075 0.60453373193740845 0.36226651072502136 
0.56484115123748779 0.59106504917144775 0.53884953260421753 
0.70482850074768066 0.59116649627685547 0.53685140609741211 
1.1195363998413086 0.63372862339019775 -0.027296885848045349 
1.2555058002471924 0.66614484786987305 -0.45611861348152161 
-0.56621420383453369 0.76997816562652588 -0.62687760591506958 
-0.56433022022247314 0.66482585668563843 -0.43014323711395264 
-1.2592737674713135 0.71415978670120239 0.11367982625961304 
-1.3895734548568726 0.54614394903182983 1.1413933038711548 
-1.1228253841400146 0.74272370338439941 -0.26425975561141968 
-0.42372465133666992 0.65995579957962036 -0.3664761483669281 
1.3900843858718872 0.70974689722061157 -1.0326870679855347 
-0.98514074087142944 0.76134467124938965 -0.51086896657943726 
-0.8463742733001709 0.77126544713973999 -0.64256417751312256 
-0.42512968182563782 0.76125586032867432 -0.51232844591140747 
-0.28358155488967896 0.74880492687225342 -0.3485303521156311 
-0.70668059587478638 0.77372902631759644 -0.6757616400718689 
0.00028739220579154789 0.71768867969512939 0.061147280037403107 
-0.99312388896942139 1.005549430847168 -1.352102518081665 
-1.1271363496780396 0.86739420890808105 -0.71879696846008301 
-0.98890876770019531 0.8816491961479187 -0.90773981809616089 
0.84694904088973999 0.66411185264587402 0.76485878229141235 
0.4257044792175293 0.6741214394569397 0.63462299108505249 
0.56678903102874756 0.66539913415908813 0.7491721510887146 
0.70725536346435547 0.66164833307266235 0.79805618524551392 
-1.2641276121139526 0.84319615364074707 -0.39852377772331238 
-1.3943313360214233 0.67440998554229736 0.63936609029769897 
0.98571550846099854 0.67403268814086914 0.63316357135772705 
1.2598485946655273 0.72121751308441162 0.0086147328838706017 
1.3949061632156372 0.76096737384796143 -0.51707148551940918 
-0.84959942102432251 0.88720422983169556 -0.98177057504653931 
0.14287392795085907 0.78688633441925049 0.3386547863483429 
0.14229914546012878 0.70150911808013916 0.27419424057006836 
-0.56835371255874634 0.87718498706817627 -0.85074913501739502 
-0.42672631144523621 0.86409676074981689 -0.67853349447250366 
0.71000152826309204 0.72956192493438721 1.0931823253631592 
-0.70936292409896851 0.88530170917510986 -0.95729953050613403 
-0.28463533520698547 0.84727990627288818 -0.4570690393447876 
-0.14223527908325195 0.82797729969024658 -0.20277196168899536 
0.2852739691734314 0.76758372783660889 0.59295189380645752 
0.28415635228157043 0.6865723729133606 0.47082489728927612 
0.42736494541168213 0.75076687335968018 0.81441634893417358 
0.000319324666634202 0.80743181705474854 0.067941419780254364 
1.1234002113342285 0.6926535964012146 0.38655433058738708 
0.56899231672286987 0.7376786470413208 0.98663198947906494 
-1.2695560455322266 0.97685497999191284 -0.97178190946578979 
-1.3997279405593872 0.80781227350234985 0.069496020674705505 
1.2647662162780762 0.77166748046875 0.53440660238265991 
-0.4285145103931427 0.96847856044769287 -0.86509150266647339 
1.4003666639328003 0.80705136060714722 0.066386811435222626 
-0.57074856758117676 0.9864460825920105 -1.101753830909729 
-1.1319581270217896 0.99617362022399902 -1.2276064157485962 
-0.85320782661437988 1.0062248706817627 -1.361682653427124 
-0.7123645544052124 0.99944263696670532 -1.272758960723877 
-0.28581684827804565 0.94678217172622681 -0.57917630672454834 
-0.14281006157398224 0.92260003089904785 -0.26042851805686951 
0.85391032695770264 0.78812509775161743 1.5111538171768188 
0.85023808479309082 0.72765940427780151 1.1176533699035645 
0.14351257681846619 0.87174993753433228 0.40989962220191956 
0.28651934862136841 0.84756779670715332 0.72864741086959839 
0.98954743146896362 0.73321443796157837 1.043622612953186 
0.00035125712747685611 0.89717495441436768 0.074735559523105621 
0.42921704053878784 0.82587134838104248 1.0145626068115234 
0.57145112752914429 0.80790388584136963 1.2512248754501343 
0.99382638931274414 0.78880053758621216 1.5015736818313599 
0.71306705474853516 0.79490727186203003 1.4222301244735718 
1.4064657688140869 0.8479989767074585 0.71768796443939209 
-1.4057631492614746 0.94635099172592163 -0.56821686029434204 
3 0 1 2 
3 3 4 5 
3 6 2 7 
3 8 7 9 
3 10 11 12 
3 13 9 4 
3 14 15 11 
3 16 5 17 
3 18 19 20 
3 21 20 15 
3 22 12 23 
3 24 23 25 
3 26 27 28 
3 29 30 31 
3 32 31 33 
3 34 8 13 
3 35 25 30 
3 36 33 37 
3 38 37 39 
3 40 41 0 
3 42 0 6 
3 43 39 27 
3 44 17 19 
3 45 46 47 
3 48 6 8 
3 49 50 51 
3 52 21 14 
3 50 16 44 
3 51 44 18 
3 53 29 32 
3 54 18 21 
3 55 35 29 
3 56 14 10 
3 57 22 24 
3 58 24 35 
3 59 32 36 
3 60 36 38 
3 61 34 62 
3 63 43 26 
3 64 65 40 
3 66 3 16 
3 67 38 43 
3 68 40 42 
3 69 42 48 
3 70 62 66 
3 71 66 50 
3 72 48 34 
3 62 13 3 
3 73 10 22 
3 74 51 54 
3 75 76 77 
3 78 58 55 
3 79 56 73 
3 80 73 57 
3 76 81 64 
3 82 57 58 
3 83 67 63 
3 84 55 53 
3 85 59 60 
3 86 60 67 
3 77 64 68 
3 87 68 69 
3 88 74 89 
3 90 72 61 
3 91 61 70 
3 92 80 82 
3 93 69 72 
3 94 70 71 
3 95 71 49 
3 96 89 97 
3 98 97 79 
3 99 49 74 
3 100 53 59 
3 97 52 56 
3 101 79 80 
3 89 54 52 
3 102 86 83 
3 103 84 100 
3 46 100 85 
3 104 90 91 
3 47 85 86 
3 105 93 90 
3 106 107 76 
3 108 77 87 
3 109 87 93 
3 110 91 94 
3 111 94 95 
3 112 92 113 
3 114 99 88 
3 115 88 96 
3 116 78 84 
3 117 95 99 
3 118 96 98 
3 119 98 101 
3 120 113 116 
3 121 116 103 
3 122 101 92 
3 113 82 78 
3 123 124 125 
3 126 103 46 
3 127 128 124 
3 129 109 105 
3 130 106 75 
3 131 75 108 
3 132 114 115 
3 133 108 109 
3 134 117 114 
3 135 105 104 
3 136 110 111 
3 137 111 117 
3 138 115 118 
3 139 118 119 
3 140 45 141 
3 142 122 112 
3 143 112 120 
3 144 131 133 
3 145 119 122 
3 146 120 121 
3 147 121 126 
3 148 149 150 
3 151 150 130 
3 152 126 45 
3 153 104 110 
3 150 154 106 
3 155 130 131 
3 156 157 158 
3 159 137 134 
3 157 135 153 
3 158 153 136 
3 160 142 143 
3 161 136 137 
3 162 145 142 
3 163 134 132 
3 164 138 139 
3 165 139 145 
3 166 143 146 
3 167 146 147 
3 168 144 169 
3 170 152 140 
3 171 172 148 
3 173 129 135 
3 174 147 152 
3 175 148 151 
3 176 151 155 
3 177 169 173 
3 178 173 157 
3 179 155 144 
3 169 133 129 
3 141 47 102 
3 180 158 161 
3 181 182 183 
3 184 165 162 
3 185 163 186 
3 187 186 164 
3 182 188 171 
3 189 164 165 
3 190 174 170 
3 191 162 160 
3 192 166 167 
3 193 167 174 
3 183 171 175 
3 194 175 176 
3 195 180 196 
3 197 179 168 
3 198 168 177 
3 199 187 189 
3 200 176 179 
3 201 177 178 
3 202 178 156 
3 203 196 204 
3 205 204 185 
3 206 156 180 
3 207 160 166 
3 204 159 163 
3 208 185 187 
3 196 161 159 
3 209 193 190 
3 128 191 207 
3 124 207 192 
3 210 197 198 
3 125 192 193 
3 211 200 197 
3 212 213 182 
3 214 183 194 
3 215 194 200 
3 216 198 201 
3 217 201 202 
3 218 199 219 
3 220 206 195 
3 221 195 203 
3 222 184 191 
3 223 202 206 
3 224 203 205 
3 225 205 208 
3 226 219 222 
3 227 222 128 
3 228 208 199 
3 219 189 184 
3 186 132 138 
3 229 125 209 
3 230 231 232 
3 233 215 211 
3 234 212 181 
3 235 181 214 
3 236 220 221 
3 237 214 215 
3 238 223 220 
3 239 211 210 
3 240 216 217 
3 241 217 223 
3 242 221 224 
3 243 224 225 
3 244 123 229 
3 245 228 218 
3 246 218 226 
3 247 235 237 
3 248 225 228 
3 249 226 227 
3 250 227 127 
3 251 252 253 
3 254 253 234 
3 255 127 123 
3 256 210 216 
3 257 258 259 
3 260 234 235 
3 261 262 258 
3 263 241 238 
3 262 239 256 
3 258 256 240 
3 264 245 246 
3 259 240 241 
3 265 248 245 
3 266 238 236 
3 267 242 243 
3 268 243 248 
3 269 246 249 
3 270 249 250 
3 271 247 272 
3 273 255 244 
3 274 275 251 
3 276 233 239 
3 277 250 255 
3 278 251 254 
3 279 254 260 
3 280 272 276 
3 281 276 262 
3 282 260 247 
3 272 237 233 
3 283 236 242 
3 284 259 263 
3 285 286 287 
3 288 266 283 
3 289 283 267 
3 290 267 268 
3 291 292 274 
3 293 268 265 
3 294 264 269 
3 295 265 264 
3 296 270 277 
3 297 277 273 
3 298 299 300 
3 286 274 278 
3 301 279 282 
3 302 282 271 
3 303 271 280 
3 304 280 281 
3 305 281 261 
3 306 261 257 
3 307 257 284 
3 308 284 309 
3 310 309 288 
3 311 288 289 
3 312 269 270 
3 309 263 266 
3 313 289 290 
3 314 293 295 
3 315 316 291 
3 317 294 312 
3 318 312 296 
3 319 303 304 
3 320 296 297 
3 321 302 303 
3 322 291 286 
3 323 287 301 
3 324 301 302 
3 325 304 305 
3 326 305 306 
3 327 328 314 
3 329 307 308 
3 330 308 310 
3 331 295 294 
3 332 306 307 
3 333 310 311 
3 334 311 313 
3 335 314 331 
3 336 331 317 
3 337 313 328 
3 328 290 293 
3 253 338 212 
3 339 317 318 
3 340 341 315 
3 342 324 321 
3 343 322 285 
3 344 285 323 
3 231 329 330 
3 345 323 324 
3 346 332 329 
3 347 321 319 
3 348 325 326 
3 349 326 332 
3 232 330 333 
3 350 333 334 
3 351 352 340 
3 353 337 327 
3 354 327 335 
3 355 344 345 
3 356 334 337 
3 357 335 336 
3 358 336 339 
3 359 340 360 
3 361 360 343 
3 362 339 363 
3 364 319 325 
3 360 315 322 
3 365 343 344 
3 366 367 368 
3 369 349 346 
3 367 347 364 
3 368 364 348 
3 370 353 354 
3 371 348 349 
3 372 356 353 
3 373 346 231 
3 374 232 350 
3 375 350 356 
3 376 354 357 
3 377 357 358 
3 378 355 379 
3 380 381 351 
3 382 351 359 
3 383 342 347 
3 384 358 362 
3 385 359 361 
3 386 361 365 
3 387 379 383 
3 388 383 367 
3 389 365 355 
3 379 345 342 
3 363 318 320 
3 390 368 371 
3 391 392 393 
3 394 375 372 
3 395 373 230 
3 396 230 374 
3 392 380 382 
3 397 374 375 
3 398 399 380 
3 400 372 370 
3 401 376 377 
3 402 377 384 
3 393 382 385 
3 403 385 386 
3 404 390 405 
3 406 389 378 
3 407 378 387 
3 408 396 397 
3 409 386 389 
3 410 387 388 
3 411 388 366 
3 412 405 413 
3 414 413 395 
3 415 366 390 
3 416 370 376 
3 413 369 373 
3 417 395 396 
3 405 371 369 
3 418 419 398 
3 298 400 416 
3 420 416 401 
3 421 406 407 
3 422 401 402 
3 423 409 406 
3 424 398 392 
3 425 393 403 
3 426 403 409 
3 427 407 410 
3 428 410 411 
3 429 408 430 
3 431 415 404 
3 432 404 412 
3 433 394 400 
3 434 411 415 
3 435 412 414 
3 436 414 417 
3 437 430 433 
3 300 433 298 
3 438 417 408 
3 430 397 394 
3 299 298 420 
3 439 420 422 
3 1 0 41 
3 4 3 13 
3 5 16 3 
3 7 8 6 
3 9 13 8 
3 17 44 16 
3 15 14 21 
3 11 10 14 
3 19 18 44 
3 20 21 18 
3 12 22 10 
3 23 24 22 
3 25 35 24 
3 30 29 35 
3 31 32 29 
3 33 36 32 
3 37 38 36 
3 39 43 38 
3 27 26 43 
3 41 40 65 
3 0 42 40 
3 6 48 42 
3 8 34 48 
3 13 62 34 
3 3 66 62 
3 16 50 66 
3 21 52 54 
3 14 56 52 
3 44 51 50 
3 18 54 51 
3 10 73 56 
3 35 55 58 
3 29 53 55 
3 22 57 73 
3 24 58 57 
3 32 59 53 
3 36 60 59 
3 38 67 60 
3 43 63 67 
3 65 64 81 
3 40 68 64 
3 42 69 68 
3 48 72 69 
3 34 61 72 
3 62 70 61 
3 66 71 70 
3 50 49 71 
3 51 74 49 
3 46 45 126 
3 47 141 45 
3 56 79 97 
3 58 78 82 
3 55 84 78 
3 73 80 79 
3 57 82 80 
3 53 100 84 
3 67 83 86 
3 81 76 107 
3 59 85 100 
3 60 86 85 
3 64 77 76 
3 68 87 77 
3 69 93 87 
3 72 90 93 
3 61 91 90 
3 70 94 91 
3 71 95 94 
3 49 99 95 
3 74 88 99 
3 89 96 88 
3 97 98 96 
3 79 101 98 
3 80 92 101 
3 54 89 74 
3 78 116 113 
3 84 103 116 
3 86 102 47 
3 107 106 154 
3 100 46 103 
3 85 47 46 
3 76 75 106 
3 93 105 109 
3 90 104 105 
3 77 108 75 
3 87 109 108 
3 91 110 104 
3 94 111 110 
3 95 117 111 
3 99 114 117 
3 88 115 114 
3 96 118 115 
3 98 119 118 
3 101 122 119 
3 92 112 122 
3 113 120 112 
3 116 121 120 
3 103 126 121 
3 52 97 89 
3 82 113 92 
3 154 150 149 
3 189 219 199 
3 109 129 133 
3 105 135 129 
3 75 131 130 
3 108 133 131 
3 104 153 135 
3 117 134 137 
3 114 132 134 
3 110 136 153 
3 111 137 136 
3 115 138 132 
3 118 139 138 
3 119 145 139 
3 122 142 145 
3 112 143 142 
3 120 146 143 
3 121 147 146 
3 126 152 147 
3 45 140 152 
3 149 148 172 
3 150 151 148 
3 130 155 151 
3 131 144 155 
3 133 169 144 
3 129 173 169 
3 135 157 173 
3 137 159 161 
3 134 163 159 
3 153 158 157 
3 136 161 158 
3 132 186 163 
3 145 162 165 
3 142 160 162 
3 138 164 186 
3 139 165 164 
3 143 166 160 
3 146 167 166 
3 147 174 167 
3 152 170 174 
3 172 171 188 
3 148 175 171 
3 151 176 175 
3 155 179 176 
3 144 168 179 
3 169 177 168 
3 173 178 177 
3 157 156 178 
3 158 180 156 
3 124 123 127 
3 106 130 150 
3 163 185 204 
3 165 184 189 
3 162 191 184 
3 186 187 185 
3 164 189 187 
3 160 207 191 
3 174 190 193 
3 188 182 213 
3 166 192 207 
3 167 193 192 
3 171 183 182 
3 175 194 183 
3 176 200 194 
3 179 197 200 
3 168 198 197 
3 177 201 198 
3 178 202 201 
3 156 206 202 
3 180 195 206 
3 196 203 195 
3 204 205 203 
3 185 208 205 
3 187 199 208 
3 161 196 180 
3 184 222 219 
3 191 128 222 
3 193 209 125 
3 213 212 338 
3 207 124 128 
3 192 125 124 
3 182 181 212 
3 200 211 215 
3 197 210 211 
3 183 214 181 
3 194 215 214 
3 198 216 210 
3 201 217 216 
3 202 223 217 
3 206 220 223 
3 195 221 220 
3 203 224 221 
3 205 225 224 
3 208 228 225 
3 199 218 228 
3 219 226 218 
3 222 227 226 
3 128 127 227 
3 159 204 196 
3 2 6 0 
3 125 229 123 
3 212 234 253 
3 211 239 233 
3 181 235 234 
3 214 237 235 
3 221 242 236 
3 215 233 237 
3 220 236 238 
3 210 256 239 
3 217 241 240 
3 223 238 241 
3 224 243 242 
3 225 248 243 
3 252 251 275 
3 218 246 245 
3 226 249 246 
3 237 272 247 
3 228 245 248 
3 227 250 249 
3 127 255 250 
3 253 254 251 
3 234 260 254 
3 123 244 255 
3 216 240 256 
3 318 363 339 
3 235 247 260 
3 258 257 261 
3 238 266 263 
3 256 258 262 
3 240 259 258 
3 246 269 264 
3 241 263 259 
3 245 264 265 
3 236 283 266 
3 243 268 267 
3 248 265 268 
3 249 270 269 
3 250 277 270 
3 272 280 271 
3 275 274 292 
3 251 278 274 
3 239 262 276 
3 255 273 277 
3 254 279 278 
3 260 282 279 
3 276 281 280 
3 262 261 281 
3 247 271 282 
3 233 276 272 
3 242 267 283 
3 259 284 257 
3 286 285 322 
3 265 295 293 
3 283 289 288 
3 267 290 289 
3 274 286 291 
3 268 293 290 
3 292 291 316 
3 264 294 295 
3 270 296 312 
3 277 297 296 
3 278 287 286 
3 279 301 287 
3 284 308 307 
3 271 303 302 
3 280 304 303 
3 290 328 313 
3 282 302 301 
3 281 305 304 
3 261 306 305 
3 309 310 308 
3 288 311 310 
3 257 307 306 
3 269 312 294 
3 266 288 309 
3 289 313 311 
3 263 309 284 
3 316 315 341 
3 294 317 331 
3 312 318 317 
3 303 319 321 
3 296 320 318 
3 302 321 324 
3 291 322 315 
3 287 323 285 
3 301 324 323 
3 304 325 319 
3 305 326 325 
3 328 327 337 
3 307 329 332 
3 308 330 329 
3 295 331 314 
3 306 332 326 
3 310 333 330 
3 311 334 333 
3 314 335 327 
3 331 336 335 
3 313 337 334 
3 293 314 328 
3 317 339 336 
3 341 340 352 
3 338 253 252 
3 323 345 344 
3 324 342 345 
3 322 343 360 
3 285 344 343 
3 321 347 342 
3 326 349 348 
3 332 346 349 
3 319 364 347 
3 325 348 364 
3 329 231 346 
3 330 232 231 
3 333 350 232 
3 334 356 350 
3 337 353 356 
3 327 354 353 
3 335 357 354 
3 336 358 357 
3 339 362 358 
3 352 351 381 
3 340 359 351 
3 360 361 359 
3 343 365 361 
3 344 355 365 
3 345 379 355 
3 342 383 379 
3 348 371 368 
3 349 369 371 
3 347 367 383 
3 364 368 367 
3 346 373 369 
3 350 375 374 
3 356 372 375 
3 231 230 373 
3 232 374 230 
3 353 370 372 
3 354 376 370 
3 357 377 376 
3 358 384 377 
3 381 380 399 
3 351 382 380 
3 359 385 382 
3 361 386 385 
3 365 389 386 
3 355 378 389 
3 379 387 378 
3 383 388 387 
3 367 366 388 
3 315 360 340 
3 368 390 366 
3 369 413 405 
3 375 394 397 
3 373 395 413 
3 230 396 395 
3 380 392 398 
3 374 397 396 
3 399 398 419 
3 372 400 394 
3 376 401 416 
3 377 402 401 
3 382 393 392 
3 385 403 393 
3 390 404 415 
3 389 406 409 
3 378 407 406 
3 396 408 417 
3 386 409 403 
3 387 410 407 
3 388 411 410 
3 405 412 404 
3 413 414 412 
3 366 415 411 
3 370 416 400 
3 395 417 414 
3 397 430 408 
3 371 405 390 
3 419 418 440 
3 400 298 433 
3 416 420 298 
3 401 422 420 
3 398 424 418 
3 409 423 426 
3 392 391 424 
3 393 425 391 
3 403 426 425 
3 406 421 423 
3 287 278 279 
3 407 427 421 
3 408 429 438 
3 415 431 434 
3 404 432 431 
3 394 433 430 
3 411 434 428 
3 412 435 432 
3 414 436 435 
3 430 437 429 
3 433 300 437 
3 417 438 436 
3 410 428 427 
3 420 439 299 
