ply
format ascii 1.0
comment created by MATLAB plywrite
element vertex 601
property float x
property float y
property float z
element face 1198
property list uchar short vertex_indices
end_header
0.038503 0.423376 0.280076 
0.044186 0.361493 0.339704 
0.141564 0.382701 0.303886 
-0.059218 0.394507 0.323407 
-0.068273 0.457854 0.262896 
0.133473 0.450517 0.238832 
0.024943 0.486304 0.220648 
0.141275 0.313833 0.371207 
-0.060230 0.331902 0.384470 
0.038698 0.304057 0.396705 
0.231018 0.414926 0.258514 
0.240493 0.345630 0.324325 
-0.158597 0.362416 0.365980 
-0.163407 0.428688 0.305011 
-0.170001 0.494332 0.242745 
-0.076915 0.522929 0.200611 
0.115982 0.512659 0.180781 
0.230313 0.480083 0.194927 
0.012767 0.551986 0.158310 
0.244564 0.284860 0.379804 
0.078146 0.250247 0.443038 
0.182752 0.242729 0.430495 
-0.041276 0.265854 0.445395 
-0.146606 0.289167 0.428053 
0.327088 0.440804 0.218224 
0.322523 0.372341 0.284433 
0.342726 0.282069 0.349174 
-0.241961 0.308901 0.387132 
-0.256527 0.388560 0.335388 
-0.263443 0.462210 0.279215 
-0.268682 0.530009 0.220135 
-0.174896 0.560162 0.179349 
-0.086439 0.589715 0.136772 
0.200546 0.540550 0.140334 
0.100707 0.581703 0.115485 
0.328209 0.509524 0.150967 
0.002586 0.618170 0.094620 
0.296048 0.213062 0.407438 
0.120053 0.188706 0.492207 
0.002482 0.205951 0.497032 
0.222180 0.166663 0.467847 
-0.119492 0.214277 0.487758 
-0.223436 0.227053 0.433197 
0.425940 0.465266 0.178183 
0.418396 0.399188 0.239261 
0.402510 0.328590 0.295970 
0.429832 0.240453 0.306711 
0.373404 0.171525 0.356295 
-0.297643 0.214469 0.374369 
-0.321178 0.304953 0.334060 
-0.341466 0.394087 0.291350 
-0.356710 0.477142 0.245478 
-0.365025 0.555687 0.193057 
-0.271935 0.595289 0.159274 
-0.184540 0.626992 0.115427 
-0.095027 0.655030 0.072082 
0.189666 0.607989 0.073970 
0.277558 0.568779 0.100200 
0.096272 0.642527 0.049855 
0.366957 0.577697 0.076441 
0.438729 0.526969 0.116599 
-0.003027 0.671062 0.027565 
0.294044 0.118552 0.425102 
0.160804 0.110591 0.526472 
0.057930 0.141565 0.547368 
-0.053847 0.151088 0.546613 
0.230241 0.062700 0.480066 
-0.140920 0.122286 0.528181 
-0.205713 0.151269 0.469659 
-0.275308 0.124181 0.411276 
0.531881 0.476143 0.145649 
0.513383 0.405585 0.201767 
0.483589 0.324523 0.253366 
0.501664 0.229161 0.243283 
0.446518 0.143774 0.285318 
0.399285 0.060278 0.318892 
0.342060 0.067480 0.375661 
-0.345599 0.118495 0.343731 
-0.367098 0.208293 0.308756 
-0.390838 0.298221 0.271300 
-0.414650 0.385819 0.233181 
-0.433115 0.479034 0.195753 
-0.448521 0.569817 0.152508 
-0.366301 0.628904 0.135411 
-0.281243 0.662726 0.094894 
-0.194214 0.688419 0.050556 
-0.105023 0.693938 0.005234 
0.189166 0.646677 0.002815 
0.283885 0.623434 0.031440 
0.084857 0.660262 -0.020192 
0.382610 0.616454 0.007071 
0.466644 0.583881 0.049681 
0.550728 0.536779 0.087431 
-0.021821 0.666390 -0.041896 
0.283177 0.004967 0.423716 
0.165583 0.005465 0.535160 
0.098222 0.060811 0.581614 
-0.002315 0.085866 0.599489 
-0.096504 0.059063 0.581412 
0.219319 -0.047653 0.477779 
-0.159614 -0.003084 0.540716 
-0.201652 0.058402 0.492968 
-0.259102 0.030453 0.441873 
-0.321659 0.027106 0.381291 
0.601109 0.403106 0.153064 
0.636362 0.478393 0.104681 
0.557246 0.317927 0.197310 
0.568914 0.220149 0.177619 
0.514953 0.131809 0.216895 
0.466539 0.045258 0.250845 
0.416884 -0.034399 0.287059 
0.342035 -0.040392 0.359315 
-0.387284 0.011320 0.319574 
-0.411134 0.104609 0.281809 
-0.433720 0.200430 0.244885 
-0.459607 0.289926 0.205706 
-0.481699 0.386547 0.169046 
-0.502087 0.475483 0.134782 
-0.520955 0.568737 0.098436 
-0.460174 0.650311 0.104148 
-0.380227 0.696145 0.074068 
-0.294413 0.717554 0.028511 
-0.208059 0.707805 -0.017352 
-0.128130 0.668035 -0.062814 
0.166819 0.618727 -0.065981 
0.279629 0.616543 -0.044407 
0.055443 0.618222 -0.085858 
0.386769 0.593183 -0.054592 
0.491940 0.593885 -0.025562 
0.564688 0.583635 0.023170 
0.655263 0.546736 0.048767 
-0.057008 0.616018 -0.106236 
0.273286 -0.101683 0.416888 
0.149086 -0.102777 0.528356 
0.097133 -0.046150 0.584626 
0.037498 0.007109 0.627062 
-0.041119 0.003551 0.626632 
-0.098756 -0.056119 0.583017 
0.203461 -0.154467 0.470789 
-0.163618 -0.113238 0.524864 
-0.224258 -0.050927 0.485624 
-0.295834 -0.067693 0.420120 
-0.361560 -0.078003 0.358298 
0.678947 0.387790 0.091745 
0.626665 0.306221 0.133575 
0.720567 0.470834 0.050100 
0.634142 0.207251 0.111901 
0.579264 0.119602 0.152137 
0.530501 0.029722 0.185900 
0.482155 -0.058172 0.219558 
0.376631 -0.116209 0.313748 
0.434915 -0.139916 0.253088 
0.318829 -0.161114 0.363196 
-0.430289 -0.092386 0.293539 
-0.453436 0.002716 0.256227 
-0.476222 0.102585 0.218482 
-0.502939 0.192452 0.178442 
-0.523363 0.293923 0.142752 
-0.554417 0.389353 0.097139 
-0.562824 0.491352 0.071249 
-0.584177 0.569782 0.021544 
-0.542778 0.644786 0.057711 
-0.487387 0.717745 0.049554 
-0.397011 0.739103 0.010575 
-0.312381 0.714434 -0.039687 
-0.231682 0.665820 -0.083645 
-0.165005 0.610581 -0.128512 
0.126370 0.560865 -0.132002 
0.233445 0.562610 -0.113558 
0.338149 0.551999 -0.107656 
0.015542 0.562608 -0.147491 
0.459641 0.545382 -0.094870 
0.628103 0.571541 -0.021732 
0.564047 0.544466 -0.076749 
0.727449 0.541939 0.001647 
-0.097140 0.558094 -0.169360 
0.253637 -0.212553 0.414256 
0.114091 -0.197467 0.501272 
0.060638 -0.135962 0.557681 
0.002875 -0.074600 0.607452 
-0.048547 -0.131833 0.557829 
0.170151 -0.250874 0.450427 
-0.094026 -0.179162 0.507104 
-0.168402 -0.204771 0.466460 
-0.244309 -0.145417 0.462438 
-0.320869 -0.168349 0.401289 
-0.391996 -0.180541 0.340351 
0.691150 0.288464 0.065781 
0.732200 0.366637 0.022025 
0.744770 0.454418 -0.017769 
0.692595 0.190362 0.043948 
0.641575 0.106308 0.088397 
0.593020 0.015230 0.122464 
0.544988 -0.075653 0.155414 
0.495336 -0.168912 0.189522 
0.373421 -0.216150 0.301366 
0.431306 -0.245259 0.240293 
0.307475 -0.268841 0.354433 
-0.458145 -0.196284 0.280901 
-0.497778 -0.101621 0.229026 
-0.515835 0.007616 0.194456 
-0.546633 0.088880 0.151756 
-0.567273 0.192931 0.115346 
-0.582954 0.285527 0.084838 
-0.615341 0.342875 0.031365 
-0.602469 0.444947 0.023434 
-0.587799 0.499578 -0.036288 
-0.568480 0.608621 -0.038824 
-0.560771 0.694504 0.003273 
-0.495955 0.746514 -0.006782 
-0.415022 0.716592 -0.055506 
-0.333785 0.661266 -0.103786 
-0.265690 0.603622 -0.150550 
-0.194915 0.544532 -0.197641 
0.188640 0.500049 -0.181859 
0.079068 0.504172 -0.194795 
0.296018 0.498126 -0.167107 
0.409737 0.493867 -0.153467 
-0.032077 0.508351 -0.207922 
0.522126 0.483860 -0.141745 
0.684991 0.520810 -0.057551 
0.621524 0.471959 -0.115410 
-0.120797 0.485677 -0.243795 
0.230409 -0.311995 0.391616 
0.054054 -0.266743 0.446119 
0.011157 -0.199363 0.505115 
0.133856 -0.316595 0.406267 
-0.058448 -0.243969 0.452290 
-0.144975 -0.275007 0.408266 
-0.249299 -0.234254 0.417948 
-0.332721 -0.260144 0.365950 
-0.412502 -0.282379 0.312506 
0.717614 0.257150 -0.009871 
0.713867 0.344655 -0.048021 
0.695437 0.433500 -0.077247 
0.693314 0.153921 -0.033612 
0.689344 0.097238 0.021068 
0.654580 0.009140 0.056192 
0.614298 -0.079467 0.086008 
0.572017 -0.162695 0.115379 
0.531671 -0.242295 0.142620 
0.477825 -0.297500 0.186723 
0.361686 -0.317773 0.294827 
0.416784 -0.355611 0.236501 
0.281789 -0.369481 0.336649 
-0.486399 -0.309307 0.255750 
-0.517245 -0.215972 0.227054 
-0.564990 -0.165722 0.173230 
-0.559648 -0.062844 0.162529 
-0.601745 0.000523 0.111425 
-0.607900 0.107862 0.088118 
-0.628902 0.221735 0.041062 
-0.627868 0.282873 -0.024909 
-0.604631 0.390386 -0.036954 
-0.547364 0.422304 -0.098967 
-0.533381 0.521457 -0.096554 
-0.511777 0.615380 -0.093390 
-0.513467 0.695970 -0.055481 
-0.433605 0.652858 -0.110898 
-0.371480 0.596422 -0.162606 
-0.306229 0.542708 -0.210358 
-0.241050 0.488154 -0.256528 
0.143414 0.442528 -0.245104 
0.259157 0.440051 -0.229590 
0.023688 0.451945 -0.254437 
0.370495 0.438426 -0.213373 
0.478630 0.426866 -0.199874 
0.578779 0.402584 -0.168410 
0.650059 0.359622 -0.116677 
-0.181564 0.434199 -0.301593 
-0.065956 0.423468 -0.296147 
0.174366 -0.383042 0.348117 
0.058484 -0.344462 0.372095 
-0.035655 -0.307489 0.393823 
-0.232116 -0.306098 0.363096 
-0.124009 -0.340993 0.347378 
-0.317849 -0.337418 0.316952 
-0.400663 -0.367572 0.270121 
0.666838 0.254972 -0.086588 
0.643478 0.151277 -0.093706 
0.647232 0.050082 -0.072698 
0.677980 0.016111 -0.014439 
0.661507 -0.083861 0.016331 
0.631438 -0.178894 0.046924 
0.590282 -0.267089 0.080003 
0.533378 -0.346085 0.124831 
0.472554 -0.407993 0.174322 
0.346702 -0.420169 0.277112 
0.408218 -0.461420 0.219362 
0.253091 -0.445622 0.293691 
-0.474677 -0.404799 0.219216 
-0.550488 -0.354850 0.200984 
-0.573387 -0.272947 0.180620 
-0.625517 -0.237550 0.125084 
-0.618096 -0.120583 0.114223 
-0.663838 -0.074832 0.058286 
-0.658352 0.023319 0.044046 
-0.650923 0.123642 0.029539 
-0.644550 0.175930 -0.026408 
-0.593472 0.221501 -0.084489 
-0.569663 0.322120 -0.092462 
-0.496669 0.359357 -0.158707 
-0.481086 0.463475 -0.156704 
-0.461201 0.563432 -0.147019 
-0.406812 0.512350 -0.202220 
-0.348970 0.465498 -0.254932 
-0.291211 0.416718 -0.305931 
0.126563 0.383772 -0.305162 
0.226733 0.382362 -0.290966 
0.333245 0.380265 -0.274921 
0.028634 0.390806 -0.313451 
0.438392 0.366575 -0.256952 
0.527894 0.338210 -0.219134 
0.597311 0.294270 -0.160056 
-0.231370 0.366876 -0.356530 
-0.125432 0.378841 -0.348010 
-0.035894 0.340571 -0.372448 
0.156085 -0.446956 0.286734 
0.073321 -0.409335 0.311083 
-0.024764 -0.377101 0.327450 
-0.209328 -0.371607 0.304192 
-0.101264 -0.410838 0.282616 
-0.294138 -0.404695 0.258592 
-0.374279 -0.439485 0.211926 
0.594947 0.192871 -0.148134 
0.588615 0.077274 -0.136426 
0.591814 -0.030777 -0.116456 
0.644011 -0.067574 -0.054008 
0.644796 -0.175197 -0.023850 
0.630589 -0.282794 0.011455 
0.589281 -0.373698 0.062105 
0.529511 -0.453072 0.111766 
0.465374 -0.518389 0.157716 
0.314853 -0.503622 0.240421 
0.381772 -0.553769 0.189972 
0.206457 -0.506079 0.236432 
-0.454492 -0.475850 0.163355 
-0.557572 -0.437472 0.164611 
-0.626779 -0.358866 0.137602 
-0.681864 -0.302247 0.078497 
-0.674283 -0.188000 0.067055 
-0.700376 -0.140335 0.004820 
-0.682103 -0.039940 -0.015050 
-0.662365 0.060860 -0.025474 
-0.615711 0.110223 -0.079686 
-0.549684 0.160938 -0.137609 
-0.521572 0.262633 -0.149351 
-0.445936 0.293665 -0.218490 
-0.429793 0.407531 -0.214976 
-0.376892 0.362241 -0.271917 
-0.317304 0.320048 -0.333125 
0.080881 0.330806 -0.364022 
0.194062 0.322266 -0.354494 
0.299900 0.318759 -0.336745 
0.397582 0.302785 -0.311230 
0.474983 0.267373 -0.268571 
0.536197 0.229147 -0.210549 
-0.254611 0.277729 -0.393215 
-0.156333 0.319449 -0.402473 
-0.077984 0.277203 -0.438327 
0.031472 0.279962 -0.421356 
0.092551 -0.488872 0.236329 
0.002209 -0.448864 0.261459 
-0.185650 -0.434846 0.246074 
-0.071351 -0.480731 0.218910 
-0.268819 -0.470381 0.198449 
-0.342496 -0.505590 0.152609 
0.534683 0.117794 -0.195448 
0.533521 0.002900 -0.178793 
0.594519 -0.141448 -0.096239 
0.536241 -0.110113 -0.158631 
0.603416 -0.241806 -0.069714 
0.607672 -0.333889 -0.045830 
0.612669 -0.408449 0.000104 
0.581387 -0.487036 0.048882 
0.524457 -0.562792 0.096127 
0.442408 -0.618497 0.129538 
0.263582 -0.564761 0.187266 
0.333426 -0.614107 0.147561 
0.149276 -0.552929 0.182476 
-0.427978 -0.540200 0.105333 
-0.535802 -0.513074 0.113164 
-0.631447 -0.465815 0.114549 
-0.696168 -0.406324 0.076704 
-0.715692 -0.255122 0.016565 
-0.733054 -0.363752 0.016926 
-0.694344 -0.207645 -0.045455 
-0.662511 -0.114690 -0.067377 
-0.629625 -0.009918 -0.084878 
-0.571655 0.062876 -0.131300 
-0.507127 0.080536 -0.191680 
-0.485607 0.186779 -0.196267 
-0.429232 0.188085 -0.251186 
-0.379512 0.257143 -0.288950 
-0.320681 0.210809 -0.353288 
0.145888 0.270539 -0.412198 
0.257255 0.257013 -0.398189 
0.350242 0.235745 -0.365476 
0.419948 0.195597 -0.315555 
0.478553 0.155063 -0.255896 
-0.259616 0.172772 -0.417588 
-0.186186 0.242224 -0.448129 
-0.116032 0.204368 -0.495665 
-0.008684 0.221818 -0.483336 
0.100769 0.218609 -0.469266 
0.023901 -0.529967 0.185520 
-0.165852 -0.493144 0.192138 
-0.094501 -0.542343 0.155082 
-0.219422 -0.537169 0.140793 
-0.316375 -0.565900 0.097379 
0.476637 0.040650 -0.240257 
0.479683 -0.070374 -0.220086 
0.540959 -0.224794 -0.136239 
0.486186 -0.192150 -0.194869 
0.549115 -0.326125 -0.112400 
0.572848 -0.425208 -0.071490 
0.591333 -0.513362 -0.022479 
0.576160 -0.593274 0.027613 
0.522652 -0.660922 0.067367 
0.440258 -0.694808 0.076415 
0.341969 -0.669923 0.096166 
0.221204 -0.622016 0.126008 
0.101538 -0.596452 0.132522 
-0.394193 -0.598491 0.046991 
-0.506591 -0.575578 0.053829 
-0.613563 -0.548188 0.062566 
-0.698021 -0.503664 0.060794 
-0.748367 -0.474250 0.013796 
-0.708891 -0.306416 -0.046881 
-0.724987 -0.411164 -0.045664 
-0.643258 -0.228924 -0.106205 
-0.604120 -0.112940 -0.126777 
-0.559772 -0.021845 -0.156058 
-0.491357 -0.016950 -0.222195 
-0.441327 0.084715 -0.255368 
-0.376718 0.142772 -0.309548 
-0.315339 0.100313 -0.376125 
0.209737 0.200751 -0.454352 
0.298240 0.164913 -0.418168 
0.362231 0.129675 -0.363982 
0.421522 0.083254 -0.300688 
-0.257553 0.058560 -0.439022 
-0.198374 0.140293 -0.478777 
-0.129325 0.111557 -0.539935 
-0.044626 0.158024 -0.541649 
0.061390 0.161635 -0.528773 
0.159738 0.144534 -0.509858 
-0.011149 -0.588499 0.122817 
-0.109924 -0.601557 0.094364 
-0.212640 -0.594044 0.085541 
-0.282906 -0.623038 0.037330 
0.418071 -0.032883 -0.286134 
0.432986 -0.145560 -0.254101 
0.482002 -0.313586 -0.180145 
0.430471 -0.250012 -0.240373 
0.510295 -0.420950 -0.135706 
0.540785 -0.522630 -0.088797 
0.563189 -0.618879 -0.041856 
0.559274 -0.697957 0.005972 
0.490124 -0.742888 0.019291 
0.367161 -0.726100 0.034418 
0.253635 -0.688551 0.062238 
0.148785 -0.663224 0.072459 
0.043494 -0.641533 0.078228 
-0.349619 -0.622032 -0.014377 
-0.467072 -0.604622 -0.006712 
-0.586275 -0.586249 0.000303 
-0.698805 -0.559445 0.008344 
-0.723856 -0.511862 -0.037570 
-0.663555 -0.349430 -0.103504 
-0.667562 -0.461387 -0.094483 
-0.600804 -0.307526 -0.158241 
-0.577315 -0.200725 -0.166549 
-0.533609 -0.103283 -0.194252 
-0.456629 -0.111597 -0.270763 
-0.430534 -0.011051 -0.280751 
-0.372934 0.040819 -0.329038 
-0.317181 -0.014365 -0.392043 
0.242325 0.104087 -0.468826 
0.303245 0.049488 -0.410546 
0.363125 0.027988 -0.349271 
-0.233796 -0.034816 -0.474895 
-0.187399 0.038793 -0.509629 
-0.120931 0.007465 -0.572661 
-0.058536 0.073070 -0.595854 
0.022593 0.103104 -0.584673 
0.109073 0.079538 -0.567435 
0.181354 0.048035 -0.522512 
-0.047570 -0.656880 0.041378 
-0.162477 -0.643899 0.033727 
-0.229816 -0.639206 -0.020086 
0.348344 -0.062539 -0.349717 
0.379474 -0.137802 -0.307623 
0.368254 -0.243833 -0.301990 
0.446904 -0.424242 -0.195545 
0.409806 -0.345475 -0.245079 
0.474985 -0.522571 -0.148747 
0.499048 -0.619385 -0.099698 
0.510299 -0.712504 -0.046654 
0.413408 -0.737250 -0.024022 
0.283778 -0.722349 -0.004327 
0.180226 -0.705678 0.005377 
0.068421 -0.686354 0.019634 
-0.290115 -0.594827 -0.071553 
-0.408890 -0.581229 -0.065642 
-0.525700 -0.567131 -0.060263 
-0.636657 -0.548000 -0.055408 
-0.604195 -0.415278 -0.148998 
-0.575204 -0.502774 -0.112818 
-0.539154 -0.372966 -0.204311 
-0.534291 -0.274861 -0.217395 
-0.510261 -0.179557 -0.228745 
-0.462542 -0.229199 -0.279591 
-0.404504 -0.176822 -0.328786 
-0.385137 -0.067900 -0.333882 
-0.280305 -0.094484 -0.436911 
-0.341956 -0.131863 -0.383190 
0.240183 -0.003812 -0.464139 
0.287938 -0.068860 -0.407773 
-0.205694 -0.144163 -0.486331 
-0.165750 -0.069956 -0.532748 
-0.077059 -0.083317 -0.582232 
-0.037791 -0.009677 -0.626665 
0.037729 0.023141 -0.624419 
0.109926 -0.018340 -0.580443 
0.172429 -0.051044 -0.521218 
-0.004109 -0.670050 -0.029602 
-0.110740 -0.656460 -0.022605 
-0.172681 -0.608560 -0.076713 
0.318876 -0.166405 -0.362303 
0.297185 -0.272199 -0.362564 
0.339964 -0.347894 -0.306508 
0.369015 -0.438751 -0.255900 
0.399064 -0.519695 -0.202447 
0.414951 -0.605314 -0.146735 
0.425966 -0.680876 -0.089144 
0.331763 -0.702083 -0.060445 
0.227133 -0.680708 -0.066328 
0.110326 -0.680833 -0.042817 
-0.230148 -0.549613 -0.126938 
-0.347571 -0.537503 -0.120577 
-0.463612 -0.522846 -0.116731 
-0.510276 -0.456895 -0.168030 
-0.445602 -0.410544 -0.223439 
-0.469966 -0.327480 -0.262148 
-0.395914 -0.286132 -0.320868 
-0.337200 -0.240167 -0.372823 
-0.278633 -0.192595 -0.426158 
0.224724 -0.112134 -0.461513 
0.256859 -0.192006 -0.415840 
-0.192979 -0.223530 -0.444571 
-0.106171 -0.153360 -0.524374 
-0.104479 -0.218558 -0.468735 
-0.002035 -0.146679 -0.551216 
0.025355 -0.071433 -0.607596 
0.092481 -0.114989 -0.558246 
0.157208 -0.146837 -0.507778 
0.046004 -0.626836 -0.093597 
-0.061506 -0.618253 -0.084960 
-0.116424 -0.559039 -0.135349 
0.209380 -0.291830 -0.410421 
0.250784 -0.362334 -0.353865 
0.282518 -0.431642 -0.299715 
0.304760 -0.508447 -0.238736 
0.321268 -0.578843 -0.178682 
0.322502 -0.645002 -0.117892 
0.226504 -0.610585 -0.137990 
0.146662 -0.635375 -0.101119 
-0.172080 -0.500200 -0.184275 
-0.285557 -0.491232 -0.175469 
-0.399476 -0.476965 -0.171593 
-0.338960 -0.430726 -0.226157 
-0.378683 -0.364017 -0.279528 
-0.291060 -0.324461 -0.334526 
-0.237161 -0.276762 -0.388584 
0.178852 -0.221840 -0.461852 
-0.123461 -0.282269 -0.404723 
-0.008222 -0.212949 -0.489745 
-0.018400 -0.273444 -0.429712 
0.083603 -0.201095 -0.503987 
0.112059 -0.573178 -0.156920 
-0.003225 -0.566739 -0.145361 
-0.063772 -0.506023 -0.195354 
0.096019 -0.273613 -0.442578 
0.143354 -0.349035 -0.377247 
0.168377 -0.412486 -0.320882 
0.207102 -0.477458 -0.263833 
0.221619 -0.548925 -0.197216 
-0.118280 -0.447107 -0.244518 
-0.228207 -0.443427 -0.231092 
-0.277723 -0.384568 -0.280755 
-0.178947 -0.390738 -0.290237 
-0.168928 -0.335510 -0.345736 
-0.051090 -0.335960 -0.363598 
0.048070 -0.328070 -0.386456 
0.135100 -0.513848 -0.218485 
0.038662 -0.511160 -0.206195 
-0.010139 -0.448382 -0.260019 
0.046132 -0.390615 -0.325194 
0.094848 -0.452785 -0.271950 
-0.071102 -0.391163 -0.306524 
3 1 2 0 
3 0 3 1 
3 0 4 3 
3 2 5 0 
3 5 6 0 
3 0 6 4 
3 1 7 2 
3 3 8 1 
3 8 9 1 
3 1 9 7 
3 2 10 5 
3 2 11 10 
3 7 11 2 
3 3 12 8 
3 3 13 12 
3 4 13 3 
3 4 14 13 
3 6 15 4 
3 4 15 14 
3 5 16 6 
3 5 17 16 
3 10 17 5 
3 16 18 6 
3 6 18 15 
3 7 19 11 
3 9 20 7 
3 20 21 7 
3 7 21 19 
3 8 22 9 
3 9 22 20 
3 8 23 22 
3 12 23 8 
3 10 24 17 
3 10 25 24 
3 11 25 10 
3 11 26 25 
3 19 26 11 
3 12 27 23 
3 12 28 27 
3 13 28 12 
3 13 29 28 
3 14 29 13 
3 14 30 29 
3 14 31 30 
3 15 31 14 
3 15 32 31 
3 18 32 15 
3 17 33 16 
3 33 34 16 
3 16 34 18 
3 17 35 33 
3 24 35 17 
3 18 36 32 
3 34 36 18 
3 21 37 19 
3 19 37 26 
3 20 38 21 
3 22 39 20 
3 20 39 38 
3 21 40 37 
3 38 40 21 
3 22 41 39 
3 23 41 22 
3 23 42 41 
3 27 42 23 
3 24 43 35 
3 24 44 43 
3 25 44 24 
3 25 45 44 
3 26 45 25 
3 26 46 45 
3 26 47 46 
3 37 47 26 
3 27 48 42 
3 28 49 27 
3 27 49 48 
3 28 50 49 
3 29 50 28 
3 29 51 50 
3 30 51 29 
3 30 52 51 
3 31 53 30 
3 30 53 52 
3 32 54 31 
3 31 54 53 
3 32 55 54 
3 36 55 32 
3 33 56 34 
3 33 57 56 
3 35 57 33 
3 56 58 34 
3 34 58 36 
3 35 59 57 
3 35 60 59 
3 43 60 35 
3 36 61 55 
3 58 61 36 
3 40 62 37 
3 37 62 47 
3 38 63 40 
3 39 64 38 
3 38 64 63 
3 41 65 39 
3 39 65 64 
3 40 66 62 
3 63 66 40 
3 41 67 65 
3 42 68 41 
3 41 68 67 
3 42 69 68 
3 48 69 42 
3 43 70 60 
3 43 71 70 
3 44 71 43 
3 44 72 71 
3 45 72 44 
3 46 72 45 
3 46 73 72 
3 46 74 73 
3 47 74 46 
3 47 75 74 
3 62 76 47 
3 47 76 75 
3 48 77 69 
3 49 78 48 
3 48 78 77 
3 50 79 49 
3 49 79 78 
3 51 80 50 
3 50 80 79 
3 51 81 80 
3 52 81 51 
3 52 82 81 
3 52 83 82 
3 53 83 52 
3 54 84 53 
3 53 84 83 
3 55 85 54 
3 54 85 84 
3 55 86 85 
3 61 86 55 
3 56 87 58 
3 57 88 56 
3 56 88 87 
3 59 88 57 
3 58 89 61 
3 87 89 58 
3 59 90 88 
3 59 91 90 
3 60 91 59 
3 60 92 91 
3 70 92 60 
3 61 93 86 
3 89 93 61 
3 62 94 76 
3 66 94 62 
3 63 95 66 
3 63 96 95 
3 64 96 63 
3 65 97 64 
3 64 97 96 
3 65 98 97 
3 67 98 65 
3 66 99 94 
3 95 99 66 
3 67 100 98 
3 67 101 100 
3 68 101 67 
3 69 102 68 
3 68 102 101 
3 77 103 69 
3 69 103 102 
3 71 104 70 
3 104 105 70 
3 70 105 92 
3 71 106 104 
3 72 106 71 
3 73 106 72 
3 73 107 106 
3 74 108 73 
3 73 108 107 
3 74 109 108 
3 75 109 74 
3 75 110 109 
3 76 111 75 
3 75 111 110 
3 94 111 76 
3 77 112 103 
3 78 113 77 
3 77 113 112 
3 79 114 78 
3 78 114 113 
3 79 115 114 
3 80 115 79 
3 80 116 115 
3 81 116 80 
3 82 117 81 
3 81 117 116 
3 82 118 117 
3 83 119 82 
3 82 119 118 
3 83 120 119 
3 84 120 83 
3 84 121 120 
3 85 121 84 
3 85 122 121 
3 86 122 85 
3 86 123 122 
3 93 123 86 
3 87 124 89 
3 88 125 87 
3 87 125 124 
3 90 125 88 
3 89 126 93 
3 124 126 89 
3 90 127 125 
3 90 128 127 
3 91 128 90 
3 91 129 128 
3 92 129 91 
3 92 130 129 
3 105 130 92 
3 93 131 123 
3 126 131 93 
3 99 132 94 
3 94 132 111 
3 95 133 99 
3 95 134 133 
3 96 134 95 
3 97 135 96 
3 96 135 134 
3 98 136 97 
3 97 136 135 
3 98 137 136 
3 100 137 98 
3 99 138 132 
3 133 138 99 
3 100 139 137 
3 101 140 100 
3 100 140 139 
3 102 140 101 
3 102 141 140 
3 103 141 102 
3 103 142 141 
3 112 142 103 
3 104 143 105 
3 104 144 143 
3 106 144 104 
3 107 144 106 
3 105 145 130 
3 143 145 105 
3 107 146 144 
3 107 147 146 
3 108 147 107 
3 108 148 147 
3 109 148 108 
3 109 149 148 
3 110 149 109 
3 111 150 110 
3 150 151 110 
3 110 151 149 
3 111 152 150 
3 132 152 111 
3 112 153 142 
3 113 154 112 
3 112 154 153 
3 113 155 154 
3 114 155 113 
3 115 156 114 
3 114 156 155 
3 115 157 156 
3 116 157 115 
3 116 158 157 
3 117 158 116 
3 117 159 158 
3 118 159 117 
3 118 160 159 
3 118 161 160 
3 119 161 118 
3 119 162 161 
3 120 162 119 
3 121 163 120 
3 120 163 162 
3 121 164 163 
3 122 164 121 
3 123 165 122 
3 122 165 164 
3 123 166 165 
3 131 166 123 
3 124 167 126 
3 125 168 124 
3 124 168 167 
3 125 169 168 
3 127 169 125 
3 126 170 131 
3 167 170 126 
3 128 171 127 
3 127 171 169 
3 129 172 128 
3 130 172 129 
3 172 173 128 
3 128 173 171 
3 130 174 172 
3 145 174 130 
3 131 175 166 
3 170 175 131 
3 138 176 132 
3 132 176 152 
3 133 177 138 
3 134 178 133 
3 133 178 177 
3 134 179 178 
3 136 179 135 
3 137 179 136 
3 135 179 134 
3 137 180 179 
3 139 180 137 
3 179 180 178 
3 138 181 176 
3 177 181 138 
3 139 182 180 
3 139 183 182 
3 139 184 183 
3 140 184 139 
3 141 184 140 
3 142 185 141 
3 141 185 184 
3 142 186 185 
3 153 186 142 
3 146 187 144 
3 144 187 143 
3 187 188 143 
3 143 188 145 
3 145 189 174 
3 188 189 145 
3 146 190 187 
3 146 191 190 
3 147 191 146 
3 147 192 191 
3 148 192 147 
3 148 193 192 
3 149 193 148 
3 149 194 193 
3 151 194 149 
3 150 195 151 
3 152 195 150 
3 151 196 194 
3 195 196 151 
3 176 197 152 
3 152 197 195 
3 153 198 186 
3 154 199 153 
3 153 199 198 
3 154 200 199 
3 155 200 154 
3 156 201 155 
3 155 201 200 
3 157 202 156 
3 156 202 201 
3 157 203 202 
3 158 203 157 
3 158 204 203 
3 159 205 158 
3 158 205 204 
3 160 205 159 
3 160 206 205 
3 160 207 206 
3 161 208 160 
3 160 208 207 
3 162 208 161 
3 163 209 162 
3 162 209 208 
3 163 210 209 
3 164 210 163 
3 165 211 164 
3 164 211 210 
3 166 212 165 
3 165 212 211 
3 166 213 212 
3 175 213 166 
3 168 214 167 
3 167 215 170 
3 214 215 167 
3 168 216 214 
3 169 216 168 
3 169 217 216 
3 171 217 169 
3 170 218 175 
3 215 218 170 
3 173 219 171 
3 171 219 217 
3 172 220 173 
3 174 220 172 
3 189 220 174 
3 220 221 173 
3 173 221 219 
3 175 222 213 
3 218 222 175 
3 176 223 197 
3 181 223 176 
3 177 224 181 
3 178 225 177 
3 177 225 224 
3 182 225 180 
3 180 225 178 
3 181 226 223 
3 224 226 181 
3 182 227 225 
3 225 227 224 
3 183 227 182 
3 183 228 227 
3 184 229 183 
3 183 229 228 
3 185 229 184 
3 185 230 229 
3 186 230 185 
3 186 231 230 
3 198 231 186 
3 187 232 188 
3 190 232 187 
3 188 233 189 
3 232 233 188 
3 189 234 220 
3 220 234 221 
3 233 234 189 
3 190 235 232 
3 190 236 235 
3 191 236 190 
3 191 237 236 
3 192 237 191 
3 192 238 237 
3 193 238 192 
3 193 239 238 
3 194 239 193 
3 194 240 239 
3 196 241 194 
3 194 241 240 
3 195 242 196 
3 197 242 195 
3 196 243 241 
3 242 243 196 
3 197 244 242 
3 223 244 197 
3 198 245 231 
3 198 246 245 
3 199 246 198 
3 199 247 246 
3 199 248 247 
3 200 248 199 
3 201 249 200 
3 200 249 248 
3 201 250 249 
3 202 250 201 
3 203 251 202 
3 202 251 250 
3 204 251 203 
3 204 252 251 
3 204 253 252 
3 205 253 204 
3 206 253 205 
3 206 254 253 
3 206 255 254 
3 207 255 206 
3 207 256 255 
3 208 257 207 
3 209 257 208 
3 210 257 209 
3 207 257 256 
3 210 258 257 
3 257 258 256 
3 211 258 210 
3 211 259 258 
3 212 259 211 
3 212 260 259 
3 213 260 212 
3 222 261 213 
3 213 261 260 
3 214 262 215 
3 214 263 262 
3 216 263 214 
3 215 264 218 
3 218 264 222 
3 262 264 215 
3 217 265 216 
3 216 265 263 
3 217 266 265 
3 219 266 217 
3 221 267 219 
3 219 267 266 
3 221 268 267 
3 234 268 221 
3 233 268 234 
3 222 269 261 
3 222 270 269 
3 264 270 222 
3 223 271 244 
3 226 271 223 
3 224 272 226 
3 226 272 271 
3 224 273 272 
3 227 273 224 
3 228 273 227 
3 229 274 228 
3 230 274 229 
3 228 275 273 
3 274 275 228 
3 230 276 274 
3 231 276 230 
3 231 277 276 
3 245 277 231 
3 232 278 233 
3 235 278 232 
3 233 278 268 
3 235 279 278 
3 235 280 279 
3 235 281 280 
3 236 281 235 
3 237 281 236 
3 237 282 281 
3 238 282 237 
3 239 283 238 
3 238 283 282 
3 239 284 283 
3 240 284 239 
3 241 285 240 
3 240 285 284 
3 243 286 241 
3 241 286 285 
3 242 287 243 
3 244 287 242 
3 243 288 286 
3 287 288 243 
3 244 289 287 
3 271 289 244 
3 245 290 277 
3 245 291 290 
3 246 292 245 
3 245 292 291 
3 247 292 246 
3 247 293 292 
3 247 294 293 
3 249 294 248 
3 248 294 247 
3 249 295 294 
3 250 296 249 
3 249 296 295 
3 250 297 296 
3 251 297 250 
3 251 298 297 
3 252 298 251 
3 252 299 298 
3 252 300 299 
3 253 300 252 
3 254 300 253 
3 254 301 300 
3 255 302 254 
3 254 302 301 
3 255 303 302 
3 258 303 256 
3 259 303 258 
3 256 303 255 
3 259 304 303 
3 303 304 302 
3 260 304 259 
3 260 305 304 
3 261 305 260 
3 261 306 305 
3 269 306 261 
3 262 307 264 
3 262 308 307 
3 263 308 262 
3 263 309 308 
3 265 309 263 
3 264 310 270 
3 307 310 264 
3 266 311 265 
3 265 311 309 
3 266 312 311 
3 267 312 266 
3 267 313 312 
3 268 313 267 
3 278 313 268 
3 269 314 306 
3 270 315 269 
3 269 315 314 
3 270 316 315 
3 310 316 270 
3 271 317 289 
3 271 318 317 
3 272 318 271 
3 272 319 318 
3 273 319 272 
3 275 319 273 
3 274 320 275 
3 276 320 274 
3 320 321 275 
3 275 321 319 
3 276 322 320 
3 277 322 276 
3 277 323 322 
3 290 323 277 
3 278 324 313 
3 279 324 278 
3 279 325 324 
3 280 325 279 
3 280 326 325 
3 281 327 280 
3 280 327 326 
3 282 327 281 
3 282 328 327 
3 283 328 282 
3 283 329 328 
3 284 329 283 
3 285 330 284 
3 284 330 329 
3 285 331 330 
3 286 331 285 
3 288 332 286 
3 286 332 331 
3 287 333 288 
3 289 333 287 
3 288 334 332 
3 333 334 288 
3 289 335 333 
3 317 335 289 
3 290 336 323 
3 291 337 290 
3 290 337 336 
3 292 338 291 
3 291 338 337 
3 293 338 292 
3 293 339 338 
3 294 340 293 
3 293 340 339 
3 295 340 294 
3 295 341 340 
3 296 342 295 
3 295 342 341 
3 296 343 342 
3 297 343 296 
3 298 343 297 
3 298 344 343 
3 299 344 298 
3 299 345 344 
3 300 346 299 
3 299 346 345 
3 301 346 300 
3 301 347 346 
3 305 348 304 
3 301 348 347 
3 304 348 302 
3 302 348 301 
3 305 349 348 
3 348 349 347 
3 306 349 305 
3 306 350 349 
3 314 350 306 
3 307 351 310 
3 310 351 316 
3 308 352 307 
3 307 352 351 
3 308 353 352 
3 309 353 308 
3 311 354 309 
3 309 354 353 
3 311 355 354 
3 312 355 311 
3 312 356 355 
3 313 356 312 
3 324 356 313 
3 314 357 350 
3 315 358 314 
3 314 358 357 
3 316 358 315 
3 316 359 358 
3 316 360 359 
3 351 360 316 
3 317 361 335 
3 318 361 317 
3 319 362 318 
3 318 362 361 
3 321 362 319 
3 320 363 321 
3 322 363 320 
3 321 364 362 
3 363 364 321 
3 322 365 363 
3 323 365 322 
3 323 366 365 
3 336 366 323 
3 324 367 356 
3 325 367 324 
3 325 368 367 
3 326 368 325 
3 327 369 326 
3 328 369 327 
3 369 370 326 
3 326 370 368 
3 328 371 369 
3 329 371 328 
3 329 372 371 
3 329 373 372 
3 330 373 329 
3 330 374 373 
3 331 374 330 
3 331 375 374 
3 332 375 331 
3 332 376 375 
3 334 376 332 
3 333 377 334 
3 335 377 333 
3 334 378 376 
3 377 378 334 
3 335 379 377 
3 361 379 335 
3 336 380 366 
3 337 381 336 
3 336 381 380 
3 337 382 381 
3 338 382 337 
3 338 383 382 
3 339 383 338 
3 340 384 339 
3 341 384 340 
3 339 385 383 
3 384 385 339 
3 341 386 384 
3 342 387 341 
3 341 387 386 
3 342 388 387 
3 344 388 343 
3 343 388 342 
3 345 389 344 
3 344 389 388 
3 345 390 389 
3 346 391 345 
3 345 391 390 
3 347 391 346 
3 347 392 391 
3 349 393 347 
3 347 393 392 
3 350 393 349 
3 357 394 350 
3 350 394 393 
3 351 395 360 
3 352 395 351 
3 353 396 352 
3 352 396 395 
3 353 397 396 
3 354 397 353 
3 355 398 354 
3 354 398 397 
3 355 399 398 
3 356 399 355 
3 367 399 356 
3 357 400 394 
3 358 401 357 
3 357 401 400 
3 359 401 358 
3 359 402 401 
3 360 403 359 
3 359 403 402 
3 395 404 360 
3 360 404 403 
3 361 405 379 
3 362 405 361 
3 364 405 362 
3 363 406 364 
3 365 406 363 
3 364 407 405 
3 406 407 364 
3 365 408 406 
3 406 408 407 
3 366 408 365 
3 366 409 408 
3 380 409 366 
3 367 410 399 
3 368 410 367 
3 368 411 410 
3 370 411 368 
3 371 412 369 
3 369 412 370 
3 370 413 411 
3 412 413 370 
3 371 414 412 
3 372 414 371 
3 372 415 414 
3 373 415 372 
3 373 416 415 
3 374 416 373 
3 374 417 416 
3 375 417 374 
3 375 418 417 
3 376 418 375 
3 376 419 418 
3 378 420 376 
3 376 420 419 
3 377 421 378 
3 378 421 420 
3 379 421 377 
3 379 422 421 
3 405 422 379 
3 380 423 409 
3 381 424 380 
3 380 424 423 
3 381 425 424 
3 382 425 381 
3 382 426 425 
3 383 426 382 
3 383 427 426 
3 385 427 383 
3 386 428 384 
3 384 428 385 
3 428 429 385 
3 385 429 427 
3 386 430 428 
3 387 430 386 
3 387 431 430 
3 388 431 387 
3 388 432 431 
3 389 432 388 
3 390 432 389 
3 390 433 432 
3 390 434 433 
3 392 434 391 
3 391 434 390 
3 392 435 434 
3 393 435 392 
3 394 435 393 
3 400 436 394 
3 394 436 435 
3 396 437 395 
3 395 437 404 
3 396 438 437 
3 397 438 396 
3 397 439 438 
3 398 439 397 
3 398 440 439 
3 399 440 398 
3 410 440 399 
3 400 441 436 
3 400 442 441 
3 401 442 400 
3 402 442 401 
3 402 443 442 
3 403 444 402 
3 402 444 443 
3 404 445 403 
3 403 445 444 
3 437 446 404 
3 404 446 445 
3 405 447 422 
3 407 447 405 
3 407 448 447 
3 408 448 407 
3 408 449 448 
3 409 449 408 
3 423 450 409 
3 409 450 449 
3 410 451 440 
3 411 451 410 
3 411 452 451 
3 413 452 411 
3 414 453 412 
3 412 453 413 
3 453 454 413 
3 413 454 452 
3 414 455 453 
3 415 455 414 
3 415 456 455 
3 416 456 415 
3 416 457 456 
3 417 457 416 
3 417 458 457 
3 418 458 417 
3 418 459 458 
3 419 459 418 
3 419 460 459 
3 420 460 419 
3 420 461 460 
3 421 461 420 
3 421 462 461 
3 422 462 421 
3 422 463 462 
3 447 463 422 
3 423 464 450 
3 424 465 423 
3 423 465 464 
3 424 466 465 
3 425 466 424 
3 425 467 466 
3 426 467 425 
3 427 467 426 
3 427 468 467 
3 429 468 427 
3 428 469 429 
3 430 469 428 
3 429 470 468 
3 469 470 429 
3 430 471 469 
3 430 472 471 
3 431 472 430 
3 432 473 431 
3 433 473 432 
3 431 473 472 
3 433 474 473 
3 433 475 474 
3 434 475 433 
3 434 476 475 
3 436 476 435 
3 435 476 434 
3 441 477 436 
3 436 477 476 
3 437 478 446 
3 438 478 437 
3 438 479 478 
3 439 479 438 
3 439 480 479 
3 440 480 439 
3 451 480 440 
3 441 481 477 
3 442 482 441 
3 441 482 481 
3 443 482 442 
3 443 483 482 
3 443 484 483 
3 444 484 443 
3 445 485 444 
3 444 485 484 
3 446 486 445 
3 445 486 485 
3 446 487 486 
3 478 487 446 
3 447 488 463 
3 448 488 447 
3 448 489 488 
3 449 489 448 
3 450 489 449 
3 450 490 489 
3 464 490 450 
3 451 491 480 
3 480 491 479 
3 451 492 491 
3 452 492 451 
3 454 493 452 
3 452 493 492 
3 455 494 453 
3 494 495 453 
3 453 495 454 
3 454 495 493 
3 455 496 494 
3 456 496 455 
3 456 497 496 
3 457 497 456 
3 457 498 497 
3 459 498 458 
3 458 498 457 
3 459 499 498 
3 460 499 459 
3 461 500 460 
3 460 500 499 
3 461 501 500 
3 462 501 461 
3 462 502 501 
3 488 502 463 
3 463 502 462 
3 464 503 490 
3 465 504 464 
3 464 504 503 
3 466 505 465 
3 465 505 504 
3 466 506 505 
3 467 506 466 
3 468 506 467 
3 470 506 468 
3 469 507 470 
3 471 507 469 
3 470 508 506 
3 506 508 505 
3 507 508 470 
3 471 509 507 
3 472 510 471 
3 471 510 509 
3 473 511 472 
3 472 511 510 
3 474 511 473 
3 474 512 511 
3 511 512 510 
3 474 513 512 
3 474 514 513 
3 475 514 474 
3 476 514 475 
3 477 514 476 
3 481 515 477 
3 477 516 514 
3 514 516 513 
3 515 516 477 
3 478 517 487 
3 479 517 478 
3 491 518 479 
3 479 518 517 
3 481 519 515 
3 481 520 519 
3 482 520 481 
3 483 520 482 
3 483 521 520 
3 484 522 483 
3 483 522 521 
3 485 523 484 
3 484 523 522 
3 486 523 485 
3 486 524 523 
3 487 524 486 
3 487 525 524 
3 517 525 487 
3 488 526 502 
3 488 527 526 
3 490 527 489 
3 489 527 488 
3 490 528 527 
3 503 528 490 
3 491 529 518 
3 493 529 492 
3 492 529 491 
3 493 530 529 
3 495 531 493 
3 493 531 530 
3 494 532 495 
3 495 532 531 
3 494 533 532 
3 496 533 494 
3 496 534 533 
3 497 534 496 
3 498 535 497 
3 497 535 534 
3 499 535 498 
3 500 536 499 
3 499 536 535 
3 500 537 536 
3 501 537 500 
3 501 538 537 
3 502 538 501 
3 526 538 502 
3 503 539 528 
3 503 540 539 
3 504 540 503 
3 505 541 504 
3 504 541 540 
3 508 541 505 
3 507 542 508 
3 508 542 541 
3 509 542 507 
3 509 543 542 
3 509 544 543 
3 510 544 509 
3 512 544 510 
3 513 545 512 
3 512 545 544 
3 516 546 513 
3 513 546 545 
3 515 547 516 
3 516 547 546 
3 519 547 515 
3 517 548 525 
3 518 548 517 
3 518 549 548 
3 530 549 529 
3 529 549 518 
3 519 550 547 
3 520 551 519 
3 521 551 520 
3 551 552 519 
3 519 552 550 
3 521 553 551 
3 522 554 521 
3 521 554 553 
3 523 554 522 
3 524 554 523 
3 524 555 554 
3 554 555 553 
3 525 555 524 
3 525 556 555 
3 548 556 525 
3 526 557 538 
3 526 558 557 
3 528 558 527 
3 527 558 526 
3 528 559 558 
3 539 559 528 
3 530 560 549 
3 530 561 560 
3 531 561 530 
3 531 562 561 
3 532 562 531 
3 533 563 532 
3 532 563 562 
3 534 564 533 
3 533 564 563 
3 535 565 534 
3 534 565 564 
3 536 565 535 
3 537 565 536 
3 537 566 565 
3 565 566 564 
3 537 567 566 
3 538 567 537 
3 557 567 538 
3 539 568 559 
3 539 569 568 
3 540 569 539 
3 540 570 569 
3 543 570 542 
3 542 570 541 
3 541 570 540 
3 543 571 570 
3 570 571 569 
3 544 572 543 
3 543 572 571 
3 545 572 544 
3 545 573 572 
3 546 573 545 
3 547 574 546 
3 546 574 573 
3 550 574 547 
3 548 575 556 
3 560 575 549 
3 549 575 548 
3 550 576 574 
3 552 576 550 
3 551 577 552 
3 553 577 551 
3 552 578 576 
3 577 578 552 
3 555 579 553 
3 553 579 577 
3 556 579 555 
3 575 579 556 
3 557 580 567 
3 567 580 566 
3 557 581 580 
3 558 581 557 
3 559 581 558 
3 559 582 581 
3 568 582 559 
3 560 583 575 
3 575 583 579 
3 579 583 577 
3 577 583 578 
3 560 584 583 
3 561 584 560 
3 561 585 584 
3 562 585 561 
3 562 586 585 
3 563 586 562 
3 563 587 586 
3 564 587 563 
3 566 587 564 
3 580 587 566 
3 568 588 582 
3 569 589 568 
3 568 589 588 
3 571 589 569 
3 571 590 589 
3 572 590 571 
3 573 590 572 
3 573 591 590 
3 590 591 589 
3 589 591 588 
3 573 592 591 
3 574 592 573 
3 576 592 574 
3 576 593 592 
3 578 593 576 
3 578 594 593 
3 584 594 583 
3 583 594 578 
3 580 595 587 
3 587 595 586 
3 580 596 595 
3 581 596 580 
3 582 596 581 
3 582 597 596 
3 588 597 582 
3 585 598 584 
3 584 598 594 
3 594 598 593 
3 585 599 598 
3 598 599 597 
3 595 599 586 
3 596 599 595 
3 597 599 596 
3 586 599 585 
3 591 600 588 
3 588 600 597 
3 597 600 598 
3 598 600 593 
3 593 600 592 
3 592 600 591 
