ply
format ascii 1.0
comment created by MATLAB plywrite
element vertex 600
property float x
property float y
property float z
element face 1196
property list uchar short vertex_indices
end_header
0.305728 0.282693 0.288105 
0.400121 0.226032 0.261691 
0.359605 0.317583 0.225969 
0.260547 0.367741 0.260198 
0.345985 0.191101 0.324021 
0.256554 0.249134 0.346018 
0.200307 0.329537 0.329100 
0.452621 0.261417 0.200174 
0.492104 0.165489 0.239567 
0.434378 0.133149 0.302082 
0.316293 0.405653 0.194637 
0.414169 0.355423 0.161282 
0.173052 0.424692 0.281504 
0.222920 0.460922 0.221308 
0.369961 0.104381 0.365933 
0.277629 0.169674 0.386802 
0.181391 0.249226 0.398517 
0.120725 0.396527 0.336946 
0.107627 0.333532 0.389208 
0.505664 0.296419 0.138379 
0.543448 0.201754 0.178342 
0.585039 0.106851 0.213648 
0.520593 0.072997 0.278130 
0.451523 0.040225 0.339905 
0.273697 0.497830 0.159931 
0.368673 0.445532 0.130024 
0.468750 0.393949 0.095495 
0.069682 0.476983 0.310158 
0.125573 0.514250 0.251185 
0.176841 0.552475 0.189421 
0.383003 0.006203 0.394271 
0.305682 0.079442 0.425230 
0.218018 0.145666 0.445073 
0.139619 0.201072 0.461060 
0.078114 0.278893 0.444554 
0.030464 0.417419 0.366826 
-0.000424 0.349056 0.417540 
0.560458 0.323937 0.079142 
0.600188 0.230500 0.118434 
0.636772 0.143955 0.153053 
0.674431 0.035916 0.183364 
0.596935 0.015891 0.243426 
0.511757 -0.021724 0.301513 
0.432650 -0.064789 0.343355 
0.225986 0.590931 0.128123 
0.320040 0.539597 0.097835 
0.409680 0.489798 0.067381 
0.483968 0.452461 0.028449 
0.547691 0.388722 0.027719 
-0.034390 0.480674 0.321591 
0.023067 0.552089 0.273957 
0.080857 0.602406 0.216758 
0.132859 0.644787 0.154981 
0.305956 -0.013476 0.447177 
0.344189 -0.091271 0.391432 
0.235828 0.056125 0.484891 
0.145305 0.119972 0.512782 
0.057389 0.205913 0.505294 
-0.014651 0.274669 0.469547 
-0.066683 0.399509 0.366269 
-0.102193 0.304978 0.412617 
0.625119 0.319294 0.008777 
0.645579 0.261674 0.061049 
0.702706 0.181230 0.079568 
0.715765 0.097836 0.127712 
0.767042 0.016241 0.124540 
0.710564 -0.060739 0.150454 
0.634372 -0.061935 0.203134 
0.554503 -0.073106 0.254222 
0.469683 -0.128678 0.280202 
0.371613 -0.152323 0.333013 
0.181126 0.685664 0.092569 
0.270673 0.630678 0.065992 
0.358247 0.576098 0.032206 
0.428916 0.515729 -0.006985 
0.491348 0.433439 -0.043382 
0.568127 0.363228 -0.035813 
-0.136208 0.436381 0.298712 
-0.078525 0.534797 0.265628 
-0.020775 0.621358 0.226216 
0.035398 0.687234 0.176482 
0.089122 0.736598 0.118064 
0.265670 -0.105257 0.438062 
0.224670 -0.048252 0.495792 
0.274603 -0.188324 0.375907 
0.177093 0.015845 0.538028 
0.048573 0.134522 0.558635 
0.106891 0.056349 0.574608 
-0.038772 0.189417 0.523707 
-0.098054 0.229930 0.467867 
-0.149303 0.352668 0.348393 
-0.178136 0.203791 0.432599 
-0.201133 0.265432 0.373394 
0.628767 0.277678 -0.061061 
0.699823 0.245621 0.004189 
0.771785 0.171916 0.013869 
0.787158 0.103540 0.072306 
0.846921 0.016786 0.067040 
0.789980 -0.070805 0.090317 
0.710838 -0.148320 0.097936 
0.632045 -0.146746 0.154476 
0.551327 -0.147362 0.210555 
0.469460 -0.216363 0.219919 
0.399834 -0.209881 0.273192 
0.317292 -0.243106 0.307721 
0.136734 0.776314 0.055252 
0.221662 0.715730 0.027782 
0.297047 0.649083 -0.002943 
0.355417 0.571861 -0.040580 
0.402613 0.486828 -0.075389 
0.441436 0.398751 -0.111689 
0.528633 0.336849 -0.093516 
-0.228460 0.329963 0.309103 
-0.230306 0.402756 0.256856 
-0.168343 0.497028 0.234154 
-0.113821 0.594021 0.203244 
-0.064298 0.684471 0.168038 
-0.008963 0.764662 0.127018 
0.044882 0.825047 0.076383 
0.200234 -0.173110 0.438567 
0.160278 -0.125838 0.498700 
0.126021 -0.067013 0.555911 
0.232813 -0.285244 0.337359 
0.175762 -0.252562 0.400114 
-0.047696 0.114868 0.573106 
0.015066 0.060328 0.615406 
0.073337 -0.016611 0.607665 
-0.138896 0.143465 0.501542 
-0.233532 0.114357 0.455225 
-0.267205 0.174406 0.390815 
-0.292374 0.238339 0.328500 
0.565937 0.246497 -0.131252 
0.646059 0.195449 -0.110720 
0.716526 0.198010 -0.054164 
0.792357 0.122593 -0.052699 
0.848459 0.093404 0.011475 
0.904083 0.011437 0.009296 
0.858903 -0.071126 0.031415 
0.780979 -0.150862 0.036361 
0.626093 -0.227804 0.101966 
0.701175 -0.226706 0.041131 
0.544633 -0.226994 0.159858 
0.455776 -0.302271 0.169366 
0.379830 -0.293693 0.228534 
0.294686 -0.328776 0.263577 
0.160557 0.783399 -0.013881 
0.085172 0.856620 0.014609 
0.220561 0.707267 -0.040628 
0.274562 0.619351 -0.071923 
0.308806 0.533189 -0.110379 
0.347591 0.453056 -0.139533 
0.476195 0.303053 -0.154524 
0.389322 0.361719 -0.174272 
-0.311768 0.307779 0.266316 
-0.257724 0.461814 0.196323 
-0.325776 0.376860 0.208154 
-0.199889 0.557394 0.169894 
-0.158339 0.645993 0.136809 
-0.103044 0.741937 0.106238 
-0.051472 0.832637 0.068536 
0.002148 0.898274 0.024710 
0.111534 -0.216858 0.468422 
0.068216 -0.162441 0.531304 
0.027109 -0.101616 0.588183 
0.202803 -0.371852 0.297734 
0.138815 -0.340277 0.364181 
0.079394 -0.301111 0.428721 
-0.077085 0.021307 0.604974 
-0.129483 0.071531 0.552641 
-0.008670 -0.021344 0.632355 
-0.206804 0.046810 0.509923 
-0.283966 0.014300 0.463353 
-0.323809 0.083169 0.410691 
-0.357742 0.147611 0.345967 
-0.380068 0.216875 0.282137 
0.514418 0.209424 -0.193304 
0.612150 0.140288 -0.172752 
0.713187 0.121288 -0.114750 
0.781675 0.042680 -0.108628 
0.860027 0.041651 -0.050018 
0.880229 -0.043688 -0.030212 
0.815746 -0.121729 -0.028048 
0.740367 -0.198364 -0.026090 
0.620539 -0.302890 0.045798 
0.540674 -0.304479 0.108187 
0.665823 -0.275878 -0.020857 
0.453458 -0.377819 0.118003 
0.360912 -0.379422 0.181766 
0.262230 -0.413414 0.227050 
0.087374 0.830561 -0.047836 
0.127551 0.745068 -0.087525 
0.008094 0.887920 -0.034380 
0.190690 0.665106 -0.100561 
0.221398 0.579338 -0.139470 
0.242021 0.495465 -0.183759 
0.303137 0.416449 -0.196290 
0.418188 0.273296 -0.215961 
0.326508 0.334121 -0.237560 
-0.396988 0.290523 0.218742 
-0.280249 0.521539 0.138739 
-0.349188 0.441655 0.146404 
-0.418235 0.361701 0.154042 
-0.254127 0.604573 0.098517 
-0.188954 0.700868 0.075232 
-0.136348 0.792531 0.039873 
-0.075438 0.868656 -0.001124 
0.014995 -0.244621 0.490195 
-0.031429 -0.169413 0.540590 
-0.068667 -0.080325 0.585363 
0.165292 -0.458975 0.262884 
0.106199 -0.427080 0.324737 
0.042172 -0.385081 0.386149 
-0.019839 -0.317376 0.439308 
-0.149550 -0.027092 0.555551 
-0.215122 -0.054483 0.501204 
-0.279483 -0.085376 0.440554 
-0.357019 -0.018262 0.411302 
-0.409200 0.056100 0.363765 
-0.447535 0.125792 0.297803 
-0.464969 0.202096 0.233047 
0.444419 0.189389 -0.256307 
0.537794 0.123838 -0.235894 
0.616965 0.046761 -0.221335 
0.693547 0.050582 -0.166674 
0.736183 -0.042041 -0.140308 
0.814609 -0.044730 -0.084431 
0.744539 -0.127080 -0.088314 
0.669179 -0.206660 -0.085925 
0.588836 -0.354207 -0.014417 
0.538403 -0.376464 0.053611 
0.597277 -0.286732 -0.079686 
0.460821 -0.448984 0.058360 
0.378781 -0.454401 0.116656 
0.293545 -0.471152 0.164712 
0.205264 -0.508457 0.200385 
0.030050 0.803707 -0.096883 
0.057979 0.719724 -0.146083 
0.132041 0.647586 -0.153705 
-0.059001 0.826604 -0.069353 
0.152122 0.560814 -0.200719 
0.161490 0.480272 -0.250613 
0.236737 0.408930 -0.248032 
0.348382 0.252626 -0.279294 
0.254332 0.323513 -0.295509 
-0.479136 0.278868 0.169396 
-0.347771 0.522727 0.089995 
-0.431677 0.436407 0.091581 
-0.505557 0.356401 0.096085 
-0.267279 0.662276 0.039231 
-0.338811 0.593345 0.035492 
-0.212585 0.733663 0.006574 
-0.143157 0.793194 -0.030570 
-0.085992 -0.224960 0.478825 
-0.124485 -0.127124 0.522451 
0.116463 -0.548596 0.232994 
0.063030 -0.515907 0.285567 
0.005800 -0.465150 0.336771 
-0.054166 -0.390818 0.377904 
-0.108877 -0.305092 0.408608 
-0.189700 -0.145071 0.465350 
-0.252259 -0.177970 0.398800 
-0.338110 -0.120571 0.377782 
-0.422193 -0.048764 0.357404 
-0.485311 0.016325 0.322145 
-0.529485 0.067485 0.275336 
-0.542032 0.132925 0.227097 
-0.553205 0.198467 0.173823 
0.371944 0.171608 -0.319429 
0.462673 0.106542 -0.299480 
0.541456 0.036386 -0.277878 
0.657888 -0.044441 -0.193722 
0.581472 -0.051588 -0.244524 
0.662902 -0.128268 -0.145408 
0.586852 -0.210515 -0.141829 
0.524796 -0.365553 -0.074607 
0.513383 -0.431142 -0.007871 
0.513884 -0.292319 -0.135640 
0.436962 -0.508988 -0.003552 
0.387944 -0.526247 0.054127 
0.306217 -0.540577 0.107014 
0.220578 -0.574551 0.143397 
0.133539 -0.609492 0.179137 
-0.039450 0.750798 -0.131207 
-0.018486 0.677930 -0.187315 
0.062921 0.630882 -0.206193 
-0.127212 0.737811 -0.093232 
0.074295 0.548309 -0.258110 
0.080247 0.469259 -0.310203 
0.165416 0.396689 -0.306402 
0.275003 0.238707 -0.340402 
0.183612 0.309201 -0.354989 
-0.557249 0.267937 0.122328 
-0.415283 0.514183 0.039439 
-0.503527 0.432718 0.027863 
-0.603145 0.297148 0.067078 
-0.573206 0.364525 0.028390 
-0.290694 0.649863 -0.023386 
-0.370793 0.566651 -0.028510 
-0.211627 0.699785 -0.057419 
-0.162737 -0.225554 0.428089 
0.031119 -0.612993 0.228439 
-0.031000 -0.542924 0.278138 
-0.089586 -0.455076 0.315335 
-0.147112 -0.361317 0.343801 
-0.206704 -0.269880 0.366385 
-0.303423 -0.221273 0.332709 
-0.399545 -0.141733 0.320695 
-0.487260 -0.081780 0.297205 
-0.563820 -0.024279 0.266545 
-0.611726 0.050822 0.225172 
-0.631442 0.124541 0.170060 
-0.642547 0.197809 0.111591 
0.303489 0.153195 -0.380094 
0.393813 0.084634 -0.360449 
0.466145 0.013621 -0.334421 
0.511153 -0.056855 -0.292030 
0.576490 -0.134824 -0.201490 
0.484407 -0.146002 -0.258366 
0.500375 -0.218262 -0.196950 
0.439925 -0.375478 -0.129177 
0.454927 -0.443024 -0.068460 
0.426544 -0.306116 -0.187138 
0.387686 -0.520413 -0.060252 
0.350265 -0.592165 -0.016620 
0.322682 -0.599180 0.046977 
0.241809 -0.637072 0.083579 
0.154591 -0.676251 0.118068 
0.068287 -0.686487 0.164074 
-0.112590 0.670490 -0.150443 
-0.088096 0.608227 -0.209156 
-0.015500 0.591125 -0.248054 
-0.200716 0.637161 -0.113348 
-0.015939 0.516390 -0.299540 
0.000025 0.438007 -0.355752 
0.094588 0.382377 -0.362862 
0.204783 0.221461 -0.401618 
0.114530 0.292172 -0.413802 
-0.452638 0.492968 -0.013804 
-0.564741 0.366961 -0.036808 
-0.489898 0.422503 -0.056111 
-0.676677 0.245842 0.046775 
-0.646368 0.298814 -0.012018 
-0.291195 0.593075 -0.079694 
-0.408201 0.487672 -0.070914 
-0.338166 0.505201 -0.109488 
-0.027137 -0.685216 0.179322 
-0.074444 -0.603198 0.219100 
-0.127874 -0.509454 0.253068 
-0.183377 -0.415123 0.281021 
-0.241892 -0.320854 0.306078 
-0.384465 -0.217804 0.278410 
-0.328519 -0.293289 0.264734 
-0.472075 -0.165566 0.253570 
-0.557530 -0.112991 0.229400 
-0.639098 -0.043687 0.208776 
-0.692568 0.033172 0.174131 
-0.716587 0.108956 0.120558 
-0.739405 0.168450 0.060255 
0.238506 0.133295 -0.439027 
0.329711 0.060260 -0.417238 
0.393774 -0.017054 -0.384841 
0.433484 -0.089325 -0.329964 
0.384730 -0.178316 -0.305810 
0.410524 -0.238108 -0.245957 
0.350691 -0.399770 -0.174677 
0.369177 -0.462385 -0.117816 
0.336499 -0.334620 -0.230217 
0.308654 -0.561761 -0.089821 
0.264750 -0.647995 -0.055654 
0.272891 -0.671307 0.012715 
0.192136 -0.725423 0.051271 
0.101131 -0.765944 0.089706 
0.017066 -0.761222 0.127828 
-0.167394 0.577522 -0.178492 
-0.114085 0.522054 -0.253140 
-0.251287 0.544346 -0.143051 
-0.093678 0.449122 -0.316977 
-0.076423 0.373655 -0.379241 
0.020567 0.356465 -0.410607 
0.136820 0.200319 -0.463285 
0.040347 0.272404 -0.464920 
-0.593394 0.286281 -0.083127 
-0.502325 0.342702 -0.108315 
-0.414916 0.409586 -0.122798 
-0.731213 0.215536 -0.005074 
-0.677699 0.223174 -0.066461 
-0.306457 0.455212 -0.166832 
-0.079044 -0.743912 0.118621 
-0.123864 -0.656236 0.152934 
-0.167741 -0.560719 0.189967 
-0.221298 -0.469055 0.216751 
-0.275051 -0.379353 0.241916 
-0.435909 -0.252325 0.218236 
-0.372585 -0.338140 0.202492 
-0.532257 -0.202512 0.185657 
-0.625428 -0.134288 0.167759 
-0.712502 -0.061691 0.149904 
-0.774274 0.017207 0.120691 
-0.804690 0.088778 0.069303 
-0.812720 0.133873 -0.000082 
0.192444 0.094951 -0.495544 
0.270604 0.028629 -0.468640 
0.317053 -0.048410 -0.430742 
0.349419 -0.117791 -0.371583 
0.291164 -0.210212 -0.349030 
0.316561 -0.271837 -0.288121 
0.283056 -0.500290 -0.151655 
0.261713 -0.436729 -0.211091 
0.245839 -0.371114 -0.268134 
0.224287 -0.597566 -0.124633 
0.177351 -0.689612 -0.092321 
0.205697 -0.734044 -0.022260 
0.140148 -0.802496 0.014247 
0.064779 -0.848228 0.047118 
-0.015324 -0.830957 0.078786 
-0.210166 0.491105 -0.209104 
-0.181816 0.430289 -0.271489 
-0.163040 0.362984 -0.331657 
-0.145909 0.290160 -0.394409 
-0.055656 0.300790 -0.440026 
0.041488 0.196976 -0.517376 
0.115357 0.135129 -0.522666 
-0.047290 0.223448 -0.497227 
-0.622572 0.192949 -0.129145 
-0.535474 0.252784 -0.148217 
-0.443307 0.307089 -0.174723 
-0.365328 0.375884 -0.181152 
-0.763851 0.151734 -0.054094 
-0.708884 0.129643 -0.112335 
-0.271497 0.403071 -0.227802 
-0.113690 -0.794999 0.058281 
-0.174851 -0.705171 0.082580 
-0.210375 -0.606929 0.127852 
-0.263950 -0.516860 0.153432 
-0.316849 -0.426569 0.179608 
-0.466291 -0.304385 0.160527 
-0.414060 -0.389209 0.137703 
-0.547474 -0.268115 0.129072 
-0.622859 -0.211423 0.115916 
-0.702660 -0.146925 0.104887 
-0.787229 -0.075567 0.090581 
-0.854766 -0.002744 0.064837 
-0.875445 0.063391 0.018477 
-0.865051 0.045357 -0.044402 
0.132756 0.044595 -0.560822 
0.206163 -0.002102 -0.517371 
0.233620 -0.079708 -0.475026 
0.263595 -0.145236 -0.413412 
0.203019 -0.241460 -0.388854 
0.225260 -0.307375 -0.327153 
0.195503 -0.536278 -0.187737 
0.171788 -0.472050 -0.249231 
0.155294 -0.404364 -0.308036 
0.137252 -0.632844 -0.160356 
0.087612 -0.724533 -0.127188 
0.126413 -0.780013 -0.060518 
0.071545 -0.861085 -0.026422 
0.008098 -0.905206 0.010088 
-0.065029 -0.869084 0.022814 
-0.254812 0.337139 -0.285635 
-0.228596 0.278767 -0.344845 
-0.215540 0.203601 -0.406591 
-0.132127 0.218664 -0.453822 
-0.041839 0.143002 -0.554970 
0.045176 0.114406 -0.572932 
-0.124453 0.143359 -0.511266 
-0.656840 0.096247 -0.170136 
-0.569606 0.156653 -0.191430 
-0.486832 0.211223 -0.211359 
-0.408029 0.247308 -0.241264 
-0.342754 0.318957 -0.236802 
-0.794474 0.071406 -0.087375 
-0.736913 0.027295 -0.144063 
-0.113047 -0.825398 -0.023638 
-0.180663 -0.763646 0.010954 
-0.254291 -0.688636 0.018771 
-0.258597 -0.636971 0.070967 
-0.311107 -0.558016 0.091048 
-0.360913 -0.471984 0.116909 
-0.509454 -0.356228 0.093585 
-0.458598 -0.436838 0.071243 
-0.597544 -0.302752 0.067610 
-0.687002 -0.232235 0.050560 
-0.768348 -0.157601 0.044329 
-0.852968 -0.083567 0.027058 
-0.908374 -0.009995 0.002284 
-0.858911 -0.056013 -0.043663 
-0.802792 -0.023940 -0.099629 
0.058434 0.035996 -0.610847 
0.141679 -0.053933 -0.551517 
0.071359 -0.050299 -0.598396 
0.149758 -0.125795 -0.505918 
0.177094 -0.181272 -0.449024 
0.109403 -0.265880 -0.435386 
0.138379 -0.328819 -0.372477 
0.106619 -0.569044 -0.225093 
0.079157 -0.501890 -0.287622 
0.075410 -0.409328 -0.354985 
0.046219 -0.662385 -0.189967 
-0.009392 -0.736526 -0.146033 
0.034776 -0.809454 -0.090303 
-0.024531 -0.872063 -0.044511 
-0.327399 0.247198 -0.297782 
-0.290308 0.200098 -0.356709 
-0.292607 0.119342 -0.410575 
-0.209646 0.130196 -0.461368 
-0.115216 0.060375 -0.566779 
-0.033276 0.061869 -0.609553 
-0.191744 0.060050 -0.514249 
-0.669188 -0.001281 -0.194842 
-0.595106 0.067664 -0.228880 
-0.502531 0.127215 -0.258520 
-0.416233 0.170828 -0.288988 
-0.712504 -0.080189 -0.140339 
-0.061953 -0.793429 -0.091811 
-0.146971 -0.750007 -0.068932 
-0.222167 -0.704904 -0.041696 
-0.293555 -0.633941 -0.041217 
-0.335509 -0.606594 0.020712 
-0.397145 -0.519688 0.053438 
-0.553019 -0.388160 0.021884 
-0.478443 -0.468923 0.005268 
-0.641285 -0.307546 0.008389 
-0.732353 -0.212056 -0.015997 
-0.805429 -0.139242 -0.018277 
-0.768632 -0.116725 -0.077921 
-0.003109 -0.016373 -0.633636 
0.063840 -0.135132 -0.551641 
-0.014257 -0.102311 -0.589427 
0.079892 -0.206584 -0.494042 
0.003104 -0.269149 -0.473292 
0.042315 -0.339251 -0.417321 
0.012748 -0.594842 -0.245510 
0.009480 -0.468118 -0.334795 
-0.032051 -0.528762 -0.287739 
-0.025037 -0.391927 -0.385591 
-0.054265 -0.654760 -0.192306 
-0.106285 -0.700587 -0.133161 
-0.365023 0.137615 -0.347689 
-0.367714 0.052386 -0.395106 
-0.281292 0.037709 -0.460153 
-0.152564 -0.033623 -0.550630 
-0.081374 -0.029126 -0.599785 
-0.223417 -0.024735 -0.503665 
-0.629965 -0.091041 -0.192445 
-0.590841 -0.032861 -0.245160 
-0.534507 0.036726 -0.283442 
-0.446990 0.073961 -0.329109 
-0.690953 -0.179676 -0.089862 
-0.621942 -0.167998 -0.146976 
-0.196472 -0.656328 -0.102691 
-0.266345 -0.583675 -0.104709 
-0.348759 -0.554674 -0.064311 
-0.403205 -0.543894 -0.009884 
-0.508651 -0.410308 -0.050477 
-0.582576 -0.340877 -0.046444 
-0.425536 -0.478221 -0.064063 
-0.661084 -0.262458 -0.046750 
-0.017084 -0.190724 -0.526912 
-0.091594 -0.124086 -0.544797 
-0.100267 -0.213724 -0.477637 
-0.066417 -0.306181 -0.431056 
-0.092470 -0.573842 -0.230228 
-0.081547 -0.440163 -0.330230 
-0.128408 -0.484246 -0.270362 
-0.119455 -0.349662 -0.370483 
-0.157242 -0.606607 -0.165091 
-0.415114 -0.023164 -0.369943 
-0.335466 -0.035985 -0.422870 
-0.256586 -0.079320 -0.459970 
-0.167552 -0.120211 -0.497291 
-0.546210 -0.150290 -0.212227 
-0.518868 -0.087944 -0.271564 
-0.486925 -0.019974 -0.320553 
-0.598688 -0.256408 -0.101187 
-0.533665 -0.240775 -0.157891 
-0.246509 -0.530460 -0.156120 
-0.341518 -0.484311 -0.121860 
-0.436332 -0.401478 -0.113412 
-0.513020 -0.328249 -0.110972 
-0.160774 -0.259217 -0.405841 
-0.196199 -0.178292 -0.437793 
-0.183153 -0.517221 -0.209701 
-0.168789 -0.391647 -0.307618 
-0.221120 -0.429429 -0.244614 
-0.211243 -0.300259 -0.341944 
-0.433048 -0.105647 -0.321124 
-0.354928 -0.117319 -0.368230 
-0.280547 -0.134917 -0.408675 
-0.470292 -0.229492 -0.210151 
-0.449006 -0.171683 -0.265460 
-0.434820 -0.315534 -0.174752 
-0.283285 -0.444711 -0.190402 
-0.367237 -0.397064 -0.164989 
-0.265357 -0.212876 -0.365233 
-0.256258 -0.348225 -0.276862 
-0.330136 -0.348344 -0.225063 
-0.303134 -0.269842 -0.298917 
-0.360988 -0.191034 -0.313572 
-0.384579 -0.263120 -0.246611 
3 1 2 0 
3 2 3 0 
3 0 4 1 
3 0 5 4 
3 0 6 5 
3 3 6 0 
3 1 7 2 
3 1 8 7 
3 1 9 8 
3 4 9 1 
3 2 10 3 
3 2 11 10 
3 7 11 2 
3 3 12 6 
3 3 13 12 
3 10 13 3 
3 4 14 9 
3 5 15 4 
3 4 15 14 
3 5 16 15 
3 6 16 5 
3 12 17 6 
3 17 18 6 
3 6 18 16 
3 7 19 11 
3 7 20 19 
3 8 20 7 
3 8 21 20 
3 8 22 21 
3 9 22 8 
3 9 23 22 
3 14 23 9 
3 10 24 13 
3 10 25 24 
3 11 25 10 
3 11 26 25 
3 19 26 11 
3 12 27 17 
3 12 28 27 
3 13 28 12 
3 13 29 28 
3 24 29 13 
3 14 30 23 
3 15 31 14 
3 14 31 30 
3 16 32 15 
3 15 32 31 
3 16 33 32 
3 18 34 16 
3 16 34 33 
3 17 35 18 
3 27 35 17 
3 18 36 34 
3 35 36 18 
3 19 37 26 
3 19 38 37 
3 20 38 19 
3 20 39 38 
3 21 39 20 
3 21 40 39 
3 21 41 40 
3 22 41 21 
3 23 42 22 
3 22 42 41 
3 23 43 42 
3 30 43 23 
3 24 44 29 
3 25 45 24 
3 24 45 44 
3 25 46 45 
3 26 46 25 
3 26 47 46 
3 26 48 47 
3 37 48 26 
3 27 49 35 
3 28 50 27 
3 27 50 49 
3 28 51 50 
3 29 51 28 
3 29 52 51 
3 44 52 29 
3 31 53 30 
3 30 54 43 
3 53 54 30 
3 32 55 31 
3 31 55 53 
3 32 56 55 
3 33 56 32 
3 34 57 33 
3 33 57 56 
3 34 58 57 
3 36 58 34 
3 35 59 36 
3 49 59 35 
3 36 60 58 
3 59 60 36 
3 37 61 48 
3 37 62 61 
3 38 62 37 
3 38 63 62 
3 39 63 38 
3 39 64 63 
3 40 64 39 
3 40 65 64 
3 40 66 65 
3 40 67 66 
3 41 67 40 
3 41 68 67 
3 42 68 41 
3 43 69 42 
3 42 69 68 
3 43 70 69 
3 54 70 43 
3 44 71 52 
3 44 72 71 
3 45 72 44 
3 46 73 45 
3 45 73 72 
3 46 74 73 
3 47 74 46 
3 47 75 74 
3 48 75 47 
3 48 76 75 
3 61 76 48 
3 49 77 59 
3 50 78 49 
3 49 78 77 
3 50 79 78 
3 51 79 50 
3 51 80 79 
3 52 80 51 
3 71 81 52 
3 52 81 80 
3 53 82 54 
3 53 83 82 
3 55 83 53 
3 82 84 54 
3 54 84 70 
3 56 85 55 
3 55 85 83 
3 57 86 56 
3 56 87 85 
3 86 87 56 
3 57 88 86 
3 58 88 57 
3 58 89 88 
3 60 89 58 
3 59 90 60 
3 77 90 59 
3 60 91 89 
3 60 92 91 
3 90 92 60 
3 61 93 76 
3 62 94 61 
3 61 94 93 
3 63 94 62 
3 63 95 94 
3 64 96 63 
3 63 96 95 
3 65 96 64 
3 65 97 96 
3 65 98 97 
3 66 98 65 
3 66 99 98 
3 67 100 66 
3 66 100 99 
3 68 101 67 
3 67 101 100 
3 69 101 68 
3 69 102 101 
3 70 103 69 
3 69 103 102 
3 70 104 103 
3 84 104 70 
3 71 105 81 
3 71 106 105 
3 72 106 71 
3 72 107 106 
3 73 107 72 
3 73 108 107 
3 74 108 73 
3 74 109 108 
3 75 109 74 
3 75 110 109 
3 76 111 75 
3 75 111 110 
3 93 111 76 
3 77 112 90 
3 90 112 92 
3 77 113 112 
3 78 114 77 
3 77 114 113 
3 78 115 114 
3 79 115 78 
3 79 116 115 
3 80 116 79 
3 80 117 116 
3 81 117 80 
3 81 118 117 
3 105 118 81 
3 82 119 84 
3 82 120 119 
3 83 120 82 
3 85 121 83 
3 83 121 120 
3 87 121 85 
3 84 122 104 
3 119 123 84 
3 84 123 122 
3 88 124 86 
3 124 125 86 
3 86 125 87 
3 87 126 121 
3 125 126 87 
3 88 127 124 
3 89 127 88 
3 91 127 89 
3 91 128 127 
3 92 129 91 
3 91 129 128 
3 92 130 129 
3 112 130 92 
3 93 131 111 
3 93 132 131 
3 94 133 93 
3 93 133 132 
3 95 133 94 
3 95 134 133 
3 95 135 134 
3 96 135 95 
3 97 135 96 
3 97 136 135 
3 98 137 97 
3 97 137 136 
3 98 138 137 
3 99 138 98 
3 100 139 99 
3 99 140 138 
3 139 140 99 
3 101 141 100 
3 100 141 139 
3 102 141 101 
3 102 142 141 
3 103 143 102 
3 102 143 142 
3 104 143 103 
3 104 144 143 
3 122 144 104 
3 106 145 105 
3 105 146 118 
3 145 146 105 
3 106 147 145 
3 107 147 106 
3 107 148 147 
3 108 148 107 
3 108 149 148 
3 109 149 108 
3 109 150 149 
3 110 150 109 
3 111 151 110 
3 131 151 111 
3 110 152 150 
3 151 152 110 
3 112 153 130 
3 113 153 112 
3 114 154 113 
3 154 155 113 
3 113 155 153 
3 114 156 154 
3 115 156 114 
3 116 157 115 
3 115 157 156 
3 117 158 116 
3 116 158 157 
3 117 159 158 
3 118 159 117 
3 146 160 118 
3 118 160 159 
3 119 161 123 
3 120 161 119 
3 120 162 161 
3 121 162 120 
3 121 163 162 
3 126 163 121 
3 122 164 144 
3 123 165 122 
3 122 165 164 
3 161 166 123 
3 123 166 165 
3 124 167 125 
3 124 168 167 
3 127 168 124 
3 125 169 126 
3 126 169 163 
3 167 169 125 
3 127 170 168 
3 128 170 127 
3 128 171 170 
3 129 172 128 
3 128 172 171 
3 130 173 129 
3 129 173 172 
3 130 174 173 
3 153 174 130 
3 131 175 151 
3 132 176 131 
3 131 176 175 
3 133 177 132 
3 132 177 176 
3 134 177 133 
3 134 178 177 
3 134 179 178 
3 136 179 135 
3 135 179 134 
3 136 180 179 
3 137 180 136 
3 138 181 137 
3 137 181 180 
3 138 182 181 
3 140 182 138 
3 139 183 140 
3 141 184 139 
3 139 184 183 
3 142 184 141 
3 183 185 140 
3 140 185 182 
3 142 186 184 
3 142 187 186 
3 143 187 142 
3 144 187 143 
3 144 188 187 
3 164 188 144 
3 145 189 146 
3 145 190 189 
3 147 190 145 
3 189 191 146 
3 146 191 160 
3 148 192 147 
3 147 192 190 
3 148 193 192 
3 149 193 148 
3 149 194 193 
3 150 194 149 
3 150 195 194 
3 152 195 150 
3 151 196 152 
3 175 196 151 
3 152 197 195 
3 196 197 152 
3 153 198 174 
3 155 198 153 
3 156 199 154 
3 199 200 154 
3 154 200 155 
3 200 201 155 
3 155 201 198 
3 157 202 156 
3 156 202 199 
3 157 203 202 
3 158 203 157 
3 158 204 203 
3 159 204 158 
3 159 205 204 
3 160 205 159 
3 191 205 160 
3 162 206 161 
3 161 206 166 
3 162 207 206 
3 163 207 162 
3 163 208 207 
3 169 208 163 
3 167 208 169 
3 164 209 188 
3 165 210 164 
3 164 210 209 
3 166 211 165 
3 165 211 210 
3 166 212 211 
3 206 212 166 
3 167 213 208 
3 168 213 167 
3 170 213 168 
3 170 214 213 
3 171 214 170 
3 171 215 214 
3 172 216 171 
3 171 216 215 
3 172 217 216 
3 173 217 172 
3 174 218 173 
3 173 218 217 
3 174 219 218 
3 198 219 174 
3 175 220 196 
3 176 221 175 
3 175 221 220 
3 176 222 221 
3 177 223 176 
3 176 223 222 
3 178 223 177 
3 178 224 223 
3 179 225 178 
3 178 225 224 
3 180 225 179 
3 181 225 180 
3 181 226 225 
3 225 226 224 
3 182 226 181 
3 182 227 226 
3 185 227 182 
3 183 228 185 
3 183 229 228 
3 184 229 183 
3 186 229 184 
3 185 230 227 
3 228 230 185 
3 186 231 229 
3 186 232 231 
3 187 232 186 
3 188 233 187 
3 187 233 232 
3 209 234 188 
3 188 234 233 
3 189 235 191 
3 190 235 189 
3 190 236 235 
3 192 237 190 
3 190 237 236 
3 193 237 192 
3 191 238 205 
3 235 238 191 
3 193 239 237 
3 194 239 193 
3 194 240 239 
3 195 241 194 
3 194 241 240 
3 197 241 195 
3 196 242 197 
3 220 242 196 
3 197 243 241 
3 242 243 197 
3 198 244 219 
3 201 244 198 
3 199 245 200 
3 202 245 199 
3 200 246 201 
3 245 246 200 
3 246 247 201 
3 201 247 244 
3 203 248 202 
3 248 249 202 
3 202 249 245 
3 203 250 248 
3 204 250 203 
3 204 251 250 
3 205 251 204 
3 238 251 205 
3 206 252 212 
3 207 252 206 
3 207 253 252 
3 208 253 207 
3 213 253 208 
3 214 253 213 
3 209 254 234 
3 210 255 209 
3 209 255 254 
3 211 256 210 
3 210 256 255 
3 211 257 256 
3 212 257 211 
3 252 258 212 
3 212 258 257 
3 215 259 214 
3 214 259 253 
3 253 259 252 
3 215 260 259 
3 216 261 215 
3 215 261 260 
3 216 262 261 
3 217 262 216 
3 217 263 262 
3 218 263 217 
3 218 264 263 
3 219 265 218 
3 218 265 264 
3 219 266 265 
3 244 266 219 
3 220 267 242 
3 220 268 267 
3 221 268 220 
3 222 269 221 
3 221 269 268 
3 223 270 222 
3 224 270 223 
3 222 271 269 
3 270 271 222 
3 224 272 270 
3 226 272 224 
3 227 272 226 
3 227 273 272 
3 230 273 227 
3 228 274 230 
3 229 275 228 
3 228 275 274 
3 231 275 229 
3 230 276 273 
3 274 276 230 
3 231 277 275 
3 232 278 231 
3 231 278 277 
3 232 279 278 
3 233 279 232 
3 233 280 279 
3 234 280 233 
3 234 281 280 
3 254 281 234 
3 235 282 238 
3 236 282 235 
3 236 283 282 
3 237 284 236 
3 236 284 283 
3 239 284 237 
3 238 285 251 
3 282 285 238 
3 240 286 239 
3 239 286 284 
3 240 287 286 
3 241 288 240 
3 240 288 287 
3 243 288 241 
3 242 289 243 
3 267 289 242 
3 243 290 288 
3 289 290 243 
3 244 291 266 
3 247 291 244 
3 245 292 246 
3 249 292 245 
3 246 293 247 
3 292 293 246 
3 247 294 291 
3 293 295 247 
3 247 295 294 
3 248 296 249 
3 250 296 248 
3 249 297 292 
3 296 297 249 
3 250 298 296 
3 251 298 250 
3 285 298 251 
3 252 299 258 
3 260 299 259 
3 259 299 252 
3 254 300 281 
3 255 300 254 
3 255 301 300 
3 256 301 255 
3 256 302 301 
3 257 302 256 
3 257 303 302 
3 258 303 257 
3 258 304 303 
3 260 304 299 
3 299 304 258 
3 260 305 304 
3 261 305 260 
3 262 306 261 
3 261 306 305 
3 263 307 262 
3 262 307 306 
3 263 308 307 
3 264 308 263 
3 265 309 264 
3 264 309 308 
3 266 310 265 
3 265 310 309 
3 266 311 310 
3 291 311 266 
3 294 311 291 
3 267 312 289 
3 267 313 312 
3 268 313 267 
3 268 314 313 
3 269 314 268 
3 271 315 269 
3 269 315 314 
3 272 316 270 
3 270 316 271 
3 273 316 272 
3 271 317 315 
3 316 317 271 
3 273 318 316 
3 316 318 317 
3 276 318 273 
3 274 319 276 
3 275 320 274 
3 274 320 319 
3 277 320 275 
3 276 321 318 
3 319 321 276 
3 277 322 320 
3 278 323 277 
3 277 323 322 
3 278 324 323 
3 279 324 278 
3 279 325 324 
3 280 325 279 
3 280 326 325 
3 281 326 280 
3 300 327 281 
3 281 327 326 
3 282 328 285 
3 283 328 282 
3 283 329 328 
3 283 330 329 
3 284 330 283 
3 286 330 284 
3 285 331 298 
3 328 331 285 
3 287 332 286 
3 286 332 330 
3 287 333 332 
3 288 334 287 
3 287 334 333 
3 290 334 288 
3 289 335 290 
3 312 335 289 
3 290 336 334 
3 335 336 290 
3 292 337 293 
3 297 337 292 
3 293 338 295 
3 293 339 338 
3 337 339 293 
3 294 340 311 
3 295 341 294 
3 294 341 340 
3 338 341 295 
3 296 342 297 
3 298 342 296 
3 331 342 298 
3 297 343 337 
3 337 343 339 
3 342 344 297 
3 297 344 343 
3 300 345 327 
3 301 346 300 
3 300 346 345 
3 302 347 301 
3 301 347 346 
3 302 348 347 
3 303 348 302 
3 304 349 303 
3 303 349 348 
3 305 349 304 
3 306 350 305 
3 305 351 349 
3 350 351 305 
3 306 352 350 
3 307 352 306 
3 308 353 307 
3 307 353 352 
3 308 354 353 
3 309 354 308 
3 309 355 354 
3 310 355 309 
3 310 356 355 
3 311 356 310 
3 340 357 311 
3 311 357 356 
3 312 358 335 
3 313 359 312 
3 312 359 358 
3 313 360 359 
3 314 360 313 
3 315 361 314 
3 314 361 360 
3 317 361 315 
3 317 362 361 
3 317 363 362 
3 318 363 317 
3 321 363 318 
3 319 364 321 
3 320 365 319 
3 319 365 364 
3 322 365 320 
3 364 366 321 
3 321 366 363 
3 322 367 365 
3 323 367 322 
3 323 368 367 
3 324 369 323 
3 323 369 368 
3 325 369 324 
3 325 370 369 
3 326 370 325 
3 326 371 370 
3 327 371 326 
3 327 372 371 
3 345 372 327 
3 328 373 331 
3 329 373 328 
3 329 374 373 
3 330 374 329 
3 332 374 330 
3 331 375 342 
3 342 375 344 
3 373 375 331 
3 332 376 374 
3 333 376 332 
3 333 377 376 
3 333 378 377 
3 334 378 333 
3 336 378 334 
3 335 379 336 
3 358 379 335 
3 336 380 378 
3 379 380 336 
3 338 381 341 
3 339 382 338 
3 338 382 381 
3 339 383 382 
3 344 383 343 
3 343 383 339 
3 340 384 357 
3 341 384 340 
3 341 385 384 
3 381 385 341 
3 344 386 383 
3 375 386 344 
3 345 387 372 
3 345 388 387 
3 346 388 345 
3 346 389 388 
3 347 389 346 
3 348 390 347 
3 347 390 389 
3 348 391 390 
3 349 391 348 
3 351 391 349 
3 352 392 350 
3 350 392 351 
3 351 393 391 
3 392 393 351 
3 353 394 352 
3 352 394 392 
3 354 395 353 
3 353 395 394 
3 354 396 395 
3 355 396 354 
3 355 397 396 
3 356 397 355 
3 356 398 397 
3 357 398 356 
3 357 399 398 
3 384 399 357 
3 358 400 379 
3 359 401 358 
3 358 401 400 
3 359 402 401 
3 360 402 359 
3 361 403 360 
3 360 403 402 
3 362 403 361 
3 362 404 403 
3 362 405 404 
3 363 405 362 
3 366 405 363 
3 365 406 364 
3 367 406 365 
3 406 407 364 
3 364 407 366 
3 366 408 405 
3 407 408 366 
3 368 409 367 
3 367 409 406 
3 368 410 409 
3 368 411 410 
3 370 411 369 
3 369 411 368 
3 370 412 411 
3 371 412 370 
3 371 413 412 
3 372 414 371 
3 371 414 413 
3 387 414 372 
3 373 415 375 
3 375 415 386 
3 374 415 373 
3 374 416 415 
3 376 416 374 
3 377 417 376 
3 376 417 416 
3 377 418 417 
3 377 419 418 
3 378 419 377 
3 380 419 378 
3 379 420 380 
3 379 421 420 
3 400 421 379 
3 380 422 419 
3 420 422 380 
3 381 423 385 
3 381 424 423 
3 382 424 381 
3 383 425 382 
3 382 425 424 
3 383 426 425 
3 386 426 383 
3 384 427 399 
3 385 427 384 
3 385 428 427 
3 423 428 385 
3 415 429 386 
3 386 429 426 
3 416 429 415 
3 387 430 414 
3 387 431 430 
3 388 431 387 
3 388 432 431 
3 389 432 388 
3 390 433 389 
3 389 433 432 
3 390 434 433 
3 393 434 391 
3 391 434 390 
3 392 435 393 
3 394 435 392 
3 393 436 434 
3 435 436 393 
3 394 437 435 
3 395 438 394 
3 394 438 437 
3 396 439 395 
3 395 439 438 
3 396 440 439 
3 397 440 396 
3 398 441 397 
3 397 441 440 
3 398 442 441 
3 399 442 398 
3 399 443 442 
3 427 443 399 
3 400 444 421 
3 401 445 400 
3 400 445 444 
3 402 446 401 
3 401 446 445 
3 402 447 446 
3 404 447 403 
3 403 447 402 
3 404 448 447 
3 404 449 448 
3 405 449 404 
3 408 449 405 
3 409 450 406 
3 406 450 407 
3 450 451 407 
3 407 451 408 
3 408 452 449 
3 451 452 408 
3 409 453 450 
3 410 453 409 
3 410 454 453 
3 411 455 410 
3 410 455 454 
3 412 455 411 
3 412 456 455 
3 413 456 412 
3 413 457 456 
3 414 457 413 
3 414 458 457 
3 430 458 414 
3 416 459 429 
3 417 459 416 
3 417 460 459 
3 418 460 417 
3 418 461 460 
3 418 462 461 
3 422 462 419 
3 419 462 418 
3 420 463 422 
3 420 464 463 
3 444 464 421 
3 421 464 420 
3 422 465 462 
3 463 465 422 
3 423 466 428 
3 424 467 423 
3 423 467 466 
3 424 468 467 
3 425 468 424 
3 425 469 468 
3 426 470 425 
3 425 470 469 
3 429 470 426 
3 459 470 429 
3 427 471 443 
3 428 471 427 
3 428 472 471 
3 466 472 428 
3 430 473 458 
3 430 474 473 
3 431 474 430 
3 431 475 474 
3 432 476 431 
3 431 476 475 
3 433 477 432 
3 432 477 476 
3 433 478 477 
3 434 478 433 
3 436 478 434 
3 435 479 436 
3 437 479 435 
3 436 480 478 
3 479 480 436 
3 437 481 479 
3 438 481 437 
3 439 482 438 
3 438 482 481 
3 439 483 482 
3 440 483 439 
3 440 484 483 
3 441 484 440 
3 441 485 484 
3 442 485 441 
3 443 485 442 
3 443 486 485 
3 485 486 484 
3 443 487 486 
3 471 487 443 
3 472 487 471 
3 444 488 464 
3 445 489 444 
3 489 490 444 
3 444 490 488 
3 445 491 489 
3 446 491 445 
3 447 492 446 
3 446 492 491 
3 448 492 447 
3 448 493 492 
3 448 494 493 
3 449 494 448 
3 452 494 449 
3 450 495 451 
3 453 495 450 
3 495 496 451 
3 451 496 452 
3 452 497 494 
3 496 497 452 
3 453 498 495 
3 454 498 453 
3 454 499 498 
3 455 500 454 
3 454 500 499 
3 456 500 455 
3 456 501 500 
3 457 501 456 
3 458 501 457 
3 473 501 458 
3 459 502 470 
3 470 502 469 
3 460 502 459 
3 461 503 460 
3 460 503 502 
3 461 504 503 
3 461 505 504 
3 462 505 461 
3 465 505 462 
3 463 506 465 
3 463 507 506 
3 488 507 464 
3 464 507 463 
3 465 508 505 
3 506 508 465 
3 466 509 472 
3 466 510 509 
3 467 510 466 
3 468 511 467 
3 467 511 510 
3 468 512 511 
3 469 512 468 
3 502 512 469 
3 472 513 487 
3 509 513 472 
3 473 514 501 
3 501 514 500 
3 500 514 499 
3 474 515 473 
3 473 515 514 
3 475 516 474 
3 474 516 515 
3 475 517 516 
3 476 518 475 
3 475 518 517 
3 477 518 476 
3 477 519 518 
3 478 519 477 
3 480 519 478 
3 479 520 480 
3 481 520 479 
3 480 521 519 
3 520 521 480 
3 481 522 520 
3 482 522 481 
3 483 523 482 
3 482 523 522 
3 484 524 483 
3 483 524 523 
3 486 524 484 
3 486 525 524 
3 524 525 523 
3 487 525 486 
3 513 525 487 
3 488 526 507 
3 490 526 488 
3 491 527 489 
3 489 527 490 
3 490 528 526 
3 527 528 490 
3 491 529 527 
3 493 529 492 
3 492 529 491 
3 493 530 529 
3 493 531 530 
3 497 531 494 
3 494 531 493 
3 495 532 496 
3 498 532 495 
3 496 533 497 
3 532 534 496 
3 496 534 533 
3 497 535 531 
3 533 535 497 
3 498 536 532 
3 499 536 498 
3 499 537 536 
3 514 537 499 
3 515 537 514 
3 502 538 512 
3 504 538 503 
3 503 538 502 
3 504 539 538 
3 504 540 539 
3 508 540 505 
3 505 540 504 
3 506 541 508 
3 506 542 541 
3 528 542 526 
3 526 542 507 
3 507 542 506 
3 541 543 508 
3 508 543 540 
3 509 544 513 
3 509 545 544 
3 510 545 509 
3 510 546 545 
3 511 546 510 
3 512 547 511 
3 511 547 546 
3 538 547 512 
3 539 547 538 
3 513 548 525 
3 525 548 523 
3 513 549 548 
3 544 549 513 
3 515 550 537 
3 516 550 515 
3 517 550 516 
3 517 551 550 
3 518 552 517 
3 517 552 551 
3 518 553 552 
3 519 553 518 
3 521 553 519 
3 520 554 521 
3 522 555 520 
3 520 555 554 
3 521 556 553 
3 554 556 521 
3 553 556 552 
3 523 557 522 
3 522 557 555 
3 548 557 523 
3 529 558 527 
3 527 558 528 
3 530 558 529 
3 528 559 542 
3 542 559 541 
3 558 559 528 
3 530 560 558 
3 558 560 559 
3 530 561 560 
3 531 561 530 
3 535 561 531 
3 532 562 534 
3 536 562 532 
3 534 563 533 
3 533 563 535 
3 562 564 534 
3 534 564 563 
3 535 565 561 
3 563 565 535 
3 536 566 562 
3 551 566 550 
3 550 566 537 
3 537 566 536 
3 539 567 547 
3 540 568 539 
3 539 568 567 
3 540 569 568 
3 543 569 540 
3 541 570 543 
3 543 570 569 
3 559 570 541 
3 560 570 559 
3 544 571 549 
3 545 571 544 
3 546 572 545 
3 545 572 571 
3 547 573 546 
3 546 573 572 
3 567 573 547 
3 548 574 557 
3 557 574 555 
3 549 574 548 
3 549 575 574 
3 571 575 549 
3 551 576 566 
3 552 577 551 
3 551 577 576 
3 556 577 552 
3 554 578 556 
3 556 578 577 
3 554 579 578 
3 574 579 555 
3 555 579 554 
3 575 579 574 
3 565 580 561 
3 561 580 560 
3 580 581 560 
3 560 581 570 
3 570 581 569 
3 562 582 564 
3 566 582 562 
3 576 582 566 
3 564 583 563 
3 563 583 565 
3 564 584 583 
3 582 584 564 
3 583 585 565 
3 565 585 580 
3 567 586 573 
3 573 586 572 
3 568 587 567 
3 567 587 586 
3 568 588 587 
3 581 588 569 
3 569 588 568 
3 571 589 575 
3 571 590 589 
3 572 590 571 
3 586 590 572 
3 575 591 579 
3 589 591 575 
3 579 591 578 
3 576 592 582 
3 582 592 584 
3 577 592 576 
3 577 593 592 
3 591 593 578 
3 578 593 577 
3 585 594 580 
3 580 594 581 
3 581 594 588 
3 588 594 587 
3 583 595 585 
3 584 595 583 
3 584 596 595 
3 591 596 593 
3 593 596 592 
3 592 596 584 
3 585 597 594 
3 595 597 585 
3 596 597 595 
3 586 598 590 
3 587 598 586 
3 594 598 587 
3 597 598 594 
3 589 599 591 
3 591 599 596 
3 596 599 597 
3 597 599 598 
3 598 599 590 
3 590 599 589 
