ply
format ascii 1.0
comment VTK generated PLY File
obj_info vtkPolyData points and polygons: vtk4.0
element vertex 9
property float x
property float y
property float z
element face 14
property list uchar int vertex_indices
end_header
-8.5 0 0 
8.5 0 0 
0 -0.666129 8.4443 
0 -8.4443 0.666129 
-4.79631 -9.27669 -0.475157 
4.79631 0.475157 9.27669 
0.834943 -0.711064 3.51471 
-0.834943 -3.51471 0.711064 
0 -10.4607 10.4607 
3 0 1 3 
3 3 4 0 
3 2 8 5 
3 6 0 4 
3 6 2 0 
3 6 4 8 
3 7 3 1 
3 7 8 3 
3 7 1 5 
3 8 4 3 
3 0 2 1 
3 2 5 1 
3 7 5 8 
3 8 2 6 
